<svg xmlns="http://www.w3.org/2000/svg" xmlns:xlink="http://www.w3.org/1999/xlink" width="21.234mm" height="24.409mm" viewBox="3999.2 2993.4 83.6 96.1"><title></title><style type="text/css">
*[layerid="1"] {stroke:#000000;fill:#000000;}
*[layerid="2"] {stroke:#000000;fill:#000000;}
*[layerid="3"] {stroke:#000000;fill:#000000;}
*[layerid="4"] {stroke:#000000;fill:#000000;}
*[layerid="5"] {stroke:#000000;fill:#000000;}
*[layerid="6"] {stroke:#000000;fill:#000000;}
*[layerid="7"] {stroke:#000000;fill:#000000;}
*[layerid="8"] {stroke:#000000;fill:#000000;}
*[layerid="9"] {stroke:#000000;fill:#000000;}
*[layerid="10"] {stroke:#000000;fill:#000000;}
*[layerid="11"] {stroke:#000000;fill:#000000;}
*[layerid="12"] {stroke:#000000;fill:#000000;}
*[layerid="13"] {stroke:#000000;fill:#000000;}
*[layerid="14"] {stroke:#000000;fill:#000000;}
*[layerid="15"] {stroke:#000000;fill:#000000;}
*[layerid="19"] {stroke:#000000;fill:#000000;}
*[layerid="21"] {stroke:#000000;fill:#000000;}
*[layerid="22"] {stroke:#000000;fill:#000000;}
*[layerid="23"] {stroke:#000000;fill:#000000;}
*[layerid="24"] {stroke:#000000;fill:#000000;}
*[layerid="25"] {stroke:#000000;fill:#000000;}
*[layerid="26"] {stroke:#000000;fill:#000000;}
*[layerid="27"] {stroke:#000000;fill:#000000;}
*[layerid="28"] {stroke:#000000;fill:#000000;}
*[layerid="29"] {stroke:#000000;fill:#000000;}
*[layerid="30"] {stroke:#000000;fill:#000000;}
*[layerid="31"] {stroke:#000000;fill:#000000;}
*[layerid="32"] {stroke:#000000;fill:#000000;}
*[layerid="33"] {stroke:#000000;fill:#000000;}
*[layerid="34"] {stroke:#000000;fill:#000000;}
*[layerid="35"] {stroke:#000000;fill:#000000;}
*[layerid="36"] {stroke:#000000;fill:#000000;}
*[layerid="37"] {stroke:#000000;fill:#000000;}
*[layerid="38"] {stroke:#000000;fill:#000000;}
*[layerid="39"] {stroke:#000000;fill:#000000;}
*[layerid="40"] {stroke:#000000;fill:#000000;}
*[layerid="41"] {stroke:#000000;fill:#000000;}
*[layerid="42"] {stroke:#000000;fill:#000000;}
*[layerid="43"] {stroke:#000000;fill:#000000;}
*[layerid="44"] {stroke:#000000;fill:#000000;}
*[layerid="45"] {stroke:#000000;fill:#000000;}
*[layerid="46"] {stroke:#000000;fill:#000000;}
*[layerid="47"] {stroke:#000000;fill:#000000;}
*[layerid="48"] {stroke:#000000;fill:#000000;}
*[layerid="49"] {stroke:#000000;fill:#000000;}
*[layerid="50"] {stroke:#000000;fill:#000000;}
*[layerid="51"] {stroke:#000000;fill:#000000;}
*[layerid="52"] {stroke:#000000;fill:#000000;}
*[layerid="99"] {stroke:#000000;fill:#000000;}
*[layerid="100"] {stroke:#000000;fill:#000000;}
*[layerid="101"] {stroke:#000000;fill:#000000;}
*[layerid="Hole"] {stroke:#000000;fill:#000000;}
*[layerid="DRCError"] {stroke:#000000;fill:#000000;}
*[fill="none"] {fill: none;}
*[stroke="none"] {stroke: none;}
path, polyline, polygon, line {stroke-linecap:round;}
g[c_partid="part_pad"][layerid="1"] ellipse:not([c_etype="pad_outer"]) {fill:#000000;}
g[c_partid="part_pad"][layerid="1"] polygon:not([c_etype="pad_outer"]) {fill:#000000;}
g[c_partid="part_pad"][layerid="1"] polyline:not([c_etype="pad_outer"]) {stroke:#000000;}
g[c_partid="part_pad"][layerid="2"] ellipse:not([c_etype="pad_outer"]) {fill:#000000;}
g[c_partid="part_pad"][layerid="2"] polygon:not([c_etype="pad_outer"]) {fill:#000000;}
g[c_partid="part_pad"][layerid="2"] polyline:not([c_etype="pad_outer"]) {stroke:#000000;}
g[c_partid="part_pad"][layerid="11"] ellipse:not([c_etype="pad_outer"]) {fill:#000000;}
g[c_partid="part_pad"][layerid="11"] polygon:not([c_etype="pad_outer"]) {fill:#000000;}
g[c_partid="part_pad"][layerid="11"] polyline:not([c_etype="pad_outer"]) {stroke:#000000;}
g[c_partid="part_pad"][layerid="11"] circle {fill:#FFFFFF;}
g[c_partid="part_pad"][layerid="11"] > polyline:nth-of-type(2) {stroke:#FFFFFF;}
g[c_partid="part_pad"][layerid="11"][c_shape="ELLIPSE"]  polyline:nth-last-of-type(1) {stroke:#FFFFFF;}
g[c_partid="part_pad"][layerid="11"][c_shape="RECT"]  polyline:nth-last-of-type(1) {stroke:#FFFFFF;}
g[c_partid="part_pad"][layerid="11"][c_shape="POLYGON"]  polyline:nth-last-of-type(1) {stroke:#FFFFFF;}
g[c_partid="part_via"] > * + circle, #gCurParts g[c_partid="part_via"] > * + circle {fill:#FFFFFF;}
g[c_partid="part_pad"] > polygon[c_etype="pad_outer"], #gCurParts g[c_partid="part_pad"] > polygon[c_etype="pad_outer"] {stroke-linejoin: round;stroke-miterlimit: 100;}
g[c_partid="part_hole"] > circle {fill: #FFFFFF;}path, polyline, polygon {stroke-linejoin:round;}
rect, circle, ellipse, polyline, line, polygon, path {shape-rendering:crispEdges;}
</style>
<rect x="3999.2" y="2993.4" width="83.6" height="96.1" fill="#FFFFFF" stroke="none"/><g c_partid="part_pad" c_etype="pinpart" c_origin="4012.325,3034.855" layerid="1" number="1" net="" plated ="Y"  id="gge136" locked="0" c_rotation="0" c_width="6.3" c_height="2.76" title="" c_shape="RECT" pasteexpansion="0" solderexpansion="0.2"><polygon  c_etype="pad_shell" points="4009.1749 3033.4746 4015.4749 3033.4746 4015.4749 3036.2346 4009.1749 3036.2346" layerid="1" stroke-width="0" /><circle c_etype="pad_hole" cx="4012.3249" cy="3034.8546" r="0" layerid="1" stroke-width="0"/></g><g c_partid="part_pad" c_etype="pinpart" c_origin="4012.325,3039.185" layerid="1" number="2" net="" plated ="Y"  id="gge151" locked="0" c_rotation="0" c_width="6.3" c_height="2.76" title="" c_shape="RECT" pasteexpansion="0" solderexpansion="0.2"><polygon  c_etype="pad_shell" points="4009.1749 3037.8053 4015.4749 3037.8053 4015.4749 3040.5653 4009.1749 3040.5653" layerid="1" stroke-width="0" /><circle c_etype="pad_hole" cx="4012.3249" cy="3039.1853" r="0" layerid="1" stroke-width="0"/></g><g c_partid="part_pad" c_etype="pinpart" c_origin="4012.325,3043.516" layerid="1" number="3" net="" plated ="Y"  id="gge166" locked="0" c_rotation="0" c_width="6.3" c_height="2.76" title="" c_shape="RECT" pasteexpansion="0" solderexpansion="0.2"><polygon  c_etype="pad_shell" points="4009.1749 3042.136 4015.4749 3042.136 4015.4749 3044.896 4009.1749 3044.896" layerid="1" stroke-width="0" /><circle c_etype="pad_hole" cx="4012.3249" cy="3043.516" r="0" layerid="1" stroke-width="0"/></g><g c_partid="part_pad" c_etype="pinpart" c_origin="4012.325,3047.847" layerid="1" number="4" net="" plated ="Y"  id="gge181" locked="0" c_rotation="0" c_width="6.3" c_height="2.76" title="" c_shape="RECT" pasteexpansion="0" solderexpansion="0.2"><polygon  c_etype="pad_shell" points="4009.1749 3046.4667 4015.4749 3046.4667 4015.4749 3049.2267 4009.1749 3049.2267" layerid="1" stroke-width="0" /><circle c_etype="pad_hole" cx="4012.3249" cy="3047.8467" r="0" layerid="1" stroke-width="0"/></g><g c_partid="part_pad" c_etype="pinpart" c_origin="4012.325,3052.177" layerid="1" number="5" net="" plated ="Y"  id="gge202" locked="0" c_rotation="0" c_width="6.3" c_height="2.76" title="" c_shape="RECT" pasteexpansion="0" solderexpansion="0.2"><polygon  c_etype="pad_shell" points="4009.1749 3050.7974 4015.4749 3050.7974 4015.4749 3053.5574 4009.1749 3053.5574" layerid="1" stroke-width="0" /><circle c_etype="pad_hole" cx="4012.3249" cy="3052.1774" r="0" layerid="1" stroke-width="0"/></g><g c_partid="part_pad" c_etype="pinpart" c_origin="4012.325,3056.508" layerid="1" number="6" net="" plated ="Y"  id="gge220" locked="0" c_rotation="0" c_width="6.3" c_height="2.76" title="" c_shape="RECT" pasteexpansion="0" solderexpansion="0.2"><polygon  c_etype="pad_shell" points="4009.1749 3055.1281 4015.4749 3055.1281 4015.4749 3057.8881 4009.1749 3057.8881" layerid="1" stroke-width="0" /><circle c_etype="pad_hole" cx="4012.3249" cy="3056.5081" r="0" layerid="1" stroke-width="0"/></g><g c_partid="part_pad" c_etype="pinpart" c_origin="4012.325,3060.839" layerid="1" number="7" net="" plated ="Y"  id="gge250" locked="0" c_rotation="0" c_width="6.3" c_height="2.76" title="" c_shape="RECT" pasteexpansion="0" solderexpansion="0.2"><polygon  c_etype="pad_shell" points="4009.1749 3059.4588 4015.4749 3059.4588 4015.4749 3062.2188 4009.1749 3062.2188" layerid="1" stroke-width="0" /><circle c_etype="pad_hole" cx="4012.3249" cy="3060.8388" r="0" layerid="1" stroke-width="0"/></g><g c_partid="part_pad" c_etype="pinpart" c_origin="4012.325,3065.17" layerid="1" number="8" net="" plated ="Y"  id="gge265" locked="0" c_rotation="0" c_width="6.3" c_height="2.76" title="" c_shape="RECT" pasteexpansion="0" solderexpansion="0.2"><polygon  c_etype="pad_shell" points="4009.1749 3063.7895 4015.4749 3063.7895 4015.4749 3066.5495 4009.1749 3066.5495" layerid="1" stroke-width="0" /><circle c_etype="pad_hole" cx="4012.3249" cy="3065.1695" r="0" layerid="1" stroke-width="0"/></g><g c_partid="part_pad" c_etype="pinpart" c_origin="4012.325,3069.5" layerid="1" number="9" net="" plated ="Y"  id="gge280" locked="0" c_rotation="0" c_width="6.3" c_height="2.76" title="" c_shape="RECT" pasteexpansion="0" solderexpansion="0.2"><polygon  c_etype="pad_shell" points="4009.1749 3068.1202 4015.4749 3068.1202 4015.4749 3070.8802 4009.1749 3070.8802" layerid="1" stroke-width="0" /><circle c_etype="pad_hole" cx="4012.3249" cy="3069.5002" r="0" layerid="1" stroke-width="0"/></g><g c_partid="part_pad" c_etype="pinpart" c_origin="4015.683,3075.996" layerid="1" number="10" net="" plated ="Y"  id="gge295" locked="0" c_rotation="0" c_width="6.3" c_height="7.0866" title="" c_shape="RECT" pasteexpansion="0" solderexpansion="0.2"><polygon  c_etype="pad_shell" points="4012.533 3072.4531 4018.833 3072.4531 4018.833 3079.5397 4012.533 3079.5397" layerid="1" stroke-width="0" /><circle c_etype="pad_hole" cx="4015.683" cy="3075.9965" r="0" layerid="1" stroke-width="0"/></g><g c_partid="part_pad" c_etype="pinpart" c_origin="4053.675,3074.422" layerid="1" number="11" net="" plated ="Y"  id="gge310" locked="0" c_rotation="0" c_width="9.4488" c_height="6.2992" title="" c_shape="RECT" pasteexpansion="0" solderexpansion="0.2"><polygon  c_etype="pad_shell" points="4048.9505 3071.2724 4058.3993 3071.2724 4058.3993 3077.5716 4048.9505 3077.5716" layerid="1" stroke-width="0" /><circle c_etype="pad_hole" cx="4053.6753" cy="3074.4216" r="0" layerid="1" stroke-width="0"/></g><g c_partid="part_pad" c_etype="pinpart" c_origin="4015.685,3016.349" layerid="1" number="13" net="" plated ="Y"  id="gge325" locked="0" c_rotation="0" c_width="5.51" c_height="7.09" title="" c_shape="RECT" pasteexpansion="0" solderexpansion="0.2"><polygon  c_etype="pad_shell" points="4012.9297 3012.8036 4018.4397 3012.8036 4018.4397 3019.8936 4012.9297 3019.8936" layerid="1" stroke-width="0" /><circle c_etype="pad_hole" cx="4015.6847" cy="3016.3486" r="0" layerid="1" stroke-width="0"/></g><g c_partid="part_pad" c_etype="pinpart" c_origin="4053.675,3013.004" layerid="1" number="12" net="" plated ="Y"  id="gge340" locked="0" c_rotation="0" c_width="9.4488" c_height="6.2992" title="" c_shape="RECT" pasteexpansion="0" solderexpansion="0.2"><polygon  c_etype="pad_shell" points="4048.9505 3009.8544 4058.3993 3009.8544 4058.3993 3016.1536 4048.9505 3016.1536" layerid="1" stroke-width="0" /><circle c_etype="pad_hole" cx="4053.6753" cy="3013.0042" r="0" layerid="1" stroke-width="0"/></g><g c_partid="part_hole" c_etype="pinpart" c_shapetype="group" c_origin="4055.053,3063.201" layerid="11" id="gge106" locked="0" ><circle cx="4055.053" cy="3063.201" r="2.1654"  stroke-width="1" fill-opacity="0" /></g><g c_partid="part_hole" c_etype="pinpart" c_shapetype="group" c_origin="4055.053,3031.705" layerid="11" id="gge118" locked="0" ><circle cx="4055.053" cy="3031.705" r="2.1654"  stroke-width="1" fill-opacity="0" /></g><polyline points="4072.6847 3014.5129 4072.6847 3024.4129" stroke-width="1"  stroke-linecap="round" fill="none" layerid="3" net="" id="gge43" locked="0" /><polyline points="4068.6847 3046.2129 4068.6847 3073.5129 4058.5847 3073.5129" stroke-width="1"  stroke-linecap="round" fill="none" layerid="3" net="" id="gge46" locked="0" /><polyline points="4072.7847 3014.4129 4058.5847 3014.4129" stroke-width="1"  stroke-linecap="round" fill="none" layerid="3" net="" id="gge49" locked="0" /><polyline points="4048.2847 3014.4129 4019.1847 3014.4129" stroke-width="1"  stroke-linecap="round" fill="none" layerid="3" net="" id="gge52" locked="0" /><polyline points="4013.6847 3020.5129 4013.6847 3032.7129" stroke-width="1"  stroke-linecap="round" fill="none" layerid="3" net="" id="gge55" locked="0" /><polyline points="4019.9847 3073.5129 4048.2847 3073.5129" stroke-width="1"  stroke-linecap="round" fill="none" layerid="3" net="" id="gge58" locked="0" /><g c_partid="part_pcbtext" c_etype="" c_origin="4040.596,3000.984" c_rotation="0" c_mirror="" id="gge16" locked="0" layerid="3" c_shapetype="group" display="none"><path c_fontsize="4.5" c_fontfamily="" c_text="TF-SMD_TF-15-15" d="M 4042.026 2996.444 L 4042.026 3000.734 M 4040.596 2996.444 L 4043.456 2996.444 M 4044.806 2996.444 L 4044.806 3000.734 M 4044.806 2996.444 L 4047.466 2996.444 M 4044.806 2998.484 L 4046.446 2998.484 M 4048.816 2998.894 L 4052.496 2998.894 M 4056.716 2997.054 L 4056.306 2996.644 L 4055.696 2996.444 L 4054.876 2996.444 L 4054.256 2996.644 L 4053.846 2997.054 L 4053.846 2997.464 L 4054.056 2997.874 L 4054.256 2998.084 L 4054.666 2998.284 L 4055.896 2998.694 L 4056.306 2998.894 L 4056.506 2999.104 L 4056.716 2999.514 L 4056.716 3000.124 L 4056.306 3000.534 L 4055.696 3000.734 L 4054.876 3000.734 L 4054.256 3000.534 L 4053.846 3000.124 M 4058.066 2996.444 L 4058.066 3000.734 M 4058.066 2996.444 L 4059.696 3000.734 M 4061.336 2996.444 L 4059.696 3000.734 M 4061.336 2996.444 L 4061.336 3000.734 M 4062.686 2996.444 L 4062.686 3000.734 M 4062.686 2996.444 L 4064.116 2996.444 L 4064.736 2996.644 L 4065.146 2997.054 L 4065.346 2997.464 L 4065.546 2998.084 L 4065.546 2999.104 L 4065.346 2999.714 L 4065.146 3000.124 L 4064.736 3000.534 L 4064.116 3000.734 L 4062.686 3000.734 M 4066.896 3002.174 L 4070.586 3002.174 M 4073.366 2996.444 L 4073.366 3000.734 M 4071.936 2996.444 L 4074.796 2996.444 M 4076.146 2996.444 L 4076.146 3000.734 M 4076.146 2996.444 L 4078.806 2996.444 M 4076.146 2998.484 L 4077.786 2998.484 M 4080.156 2998.894 L 4083.836 2998.894 M 4085.186 2997.264 L 4085.596 2997.054 L 4086.206 2996.444 L 4086.206 3000.734 M 4090.016 2996.444 L 4087.966 2996.444 L 4087.766 2998.284 L 4087.966 2998.084 L 4088.586 2997.874 L 4089.196 2997.874 L 4089.806 2998.084 L 4090.216 2998.484 L 4090.426 2999.104 L 4090.426 2999.514 L 4090.216 3000.124 L 4089.806 3000.534 L 4089.196 3000.734 L 4088.586 3000.734 L 4087.966 3000.534 L 4087.766 3000.334 L 4087.556 2999.924 M 4091.776 2998.894 L 4095.456 2998.894 M 4096.806 2997.264 L 4097.216 2997.054 L 4097.826 2996.444 L 4097.826 3000.734 M 4101.636 2996.444 L 4099.586 2996.444 L 4099.386 2998.284 L 4099.586 2998.084 L 4100.196 2997.874 L 4100.816 2997.874 L 4101.426 2998.084 L 4101.836 2998.484 L 4102.046 2999.104 L 4102.046 2999.514 L 4101.836 3000.124 L 4101.426 3000.534 L 4100.816 3000.734 L 4100.196 3000.734 L 4099.586 3000.534 L 4099.386 3000.334 L 4099.176 2999.924" fill="none"  stroke-width="0.6" c_note="note_name" /></g><g c_partid="part_pcbtext" c_etype="" c_origin="4040.596,3007.984" c_rotation="0" c_mirror="" id="gge22" locked="0" layerid="3" c_shapetype="group" ><path c_fontsize="4.5" c_fontfamily="" c_text="U1" d="M 4040.6 3003.44 L 4040.6 3006.51 L 4040.8 3007.12 L 4041.21 3007.53 L 4041.82 3007.74 L 4042.23 3007.74 L 4042.85 3007.53 L 4043.26 3007.12 L 4043.46 3006.51 L 4043.46 3003.44 M 4044.81 3004.26 L 4045.22 3004.06 L 4045.83 3003.44 L 4045.83 3007.74" fill="none"  stroke-width="0.6" c_note="note_pre" /></g><path d="M 4072.6846 3024.4299 A 11.057 11.057 0 0 1 4071.9602 3028.3665" locked="0"  fill="none" stroke-width="1" c_helper_type="arc2" net="" layerid="3" id="gge61" /><path d="M 4071.9602 3028.3665 A 50 50 0 0 0 4068.6846 3046.166" locked="0"  fill="none" stroke-width="1" c_helper_type="arc2" net="" layerid="3" id="gge64" /></svg>