%TF.GenerationSoftware,KiCad,Pcbnew,7.0.5*%
%TF.CreationDate,2023-10-07T01:59:45-03:00*%
%TF.ProjectId,ESP32_MicroSD,45535033-325f-44d6-9963-726f53442e6b,rev?*%
%TF.SameCoordinates,Original*%
%TF.FileFunction,Paste,Top*%
%TF.FilePolarity,Positive*%
%FSLAX46Y46*%
G04 Gerber Fmt 4.6, Leading zero omitted, Abs format (unit mm)*
G04 Created by KiCad (PCBNEW 7.0.5) date 2023-10-07 01:59:45*
%MOMM*%
%LPD*%
G01*
G04 APERTURE LIST*
G04 Aperture macros list*
%AMRoundRect*
0 Rectangle with rounded corners*
0 $1 Rounding radius*
0 $2 $3 $4 $5 $6 $7 $8 $9 X,Y pos of 4 corners*
0 Add a 4 corners polygon primitive as box body*
4,1,4,$2,$3,$4,$5,$6,$7,$8,$9,$2,$3,0*
0 Add four circle primitives for the rounded corners*
1,1,$1+$1,$2,$3*
1,1,$1+$1,$4,$5*
1,1,$1+$1,$6,$7*
1,1,$1+$1,$8,$9*
0 Add four rect primitives between the rounded corners*
20,1,$1+$1,$2,$3,$4,$5,0*
20,1,$1+$1,$4,$5,$6,$7,0*
20,1,$1+$1,$6,$7,$8,$9,0*
20,1,$1+$1,$8,$9,$2,$3,0*%
G04 Aperture macros list end*
%ADD10RoundRect,0.250000X-0.475000X0.250000X-0.475000X-0.250000X0.475000X-0.250000X0.475000X0.250000X0*%
%ADD11R,2.000000X0.900000*%
%ADD12R,0.900000X2.000000*%
%ADD13R,5.000000X5.000000*%
%ADD14R,0.800000X1.000000*%
%ADD15R,1.500000X0.700000*%
%ADD16RoundRect,0.250000X0.450000X-0.262500X0.450000X0.262500X-0.450000X0.262500X-0.450000X-0.262500X0*%
%ADD17RoundRect,0.243750X0.456250X-0.243750X0.456250X0.243750X-0.456250X0.243750X-0.456250X-0.243750X0*%
G04 APERTURE END LIST*
D10*
%TO.C,C2*%
X80416400Y-98719600D03*
X80416400Y-100619600D03*
%TD*%
D11*
%TO.C,U1*%
X74750000Y-77495000D03*
X74750000Y-78765000D03*
X74750000Y-80035000D03*
X74750000Y-81305000D03*
X74750000Y-82575000D03*
X74750000Y-83845000D03*
X74750000Y-85115000D03*
X74750000Y-86385000D03*
X74750000Y-87655000D03*
X74750000Y-88925000D03*
X74750000Y-90195000D03*
X74750000Y-91465000D03*
X74750000Y-92735000D03*
X74750000Y-94005000D03*
D12*
X77535000Y-95005000D03*
X78805000Y-95005000D03*
X80075000Y-95005000D03*
X81345000Y-95005000D03*
X82615000Y-95005000D03*
X83885000Y-95005000D03*
X85155000Y-95005000D03*
X86425000Y-95005000D03*
X87695000Y-95005000D03*
X88965000Y-95005000D03*
D11*
X91750000Y-94005000D03*
X91750000Y-92735000D03*
X91750000Y-91465000D03*
X91750000Y-90195000D03*
X91750000Y-88925000D03*
X91750000Y-87655000D03*
X91750000Y-86385000D03*
X91750000Y-85115000D03*
X91750000Y-83845000D03*
X91750000Y-82575000D03*
X91750000Y-81305000D03*
X91750000Y-80035000D03*
X91750000Y-78765000D03*
X91750000Y-77495000D03*
D13*
X82250000Y-84995000D03*
%TD*%
D14*
%TO.C,SW1*%
X90920000Y-97550000D03*
X93130000Y-97550000D03*
X93130000Y-104850000D03*
X90920000Y-104850000D03*
D15*
X90270000Y-103450000D03*
X90270000Y-100450000D03*
X90270000Y-98950000D03*
%TD*%
D16*
%TO.C,R5*%
X77673200Y-100582100D03*
X77673200Y-98757100D03*
%TD*%
D17*
%TO.C,D1*%
X75073200Y-100607100D03*
X75073200Y-98732100D03*
%TD*%
M02*
