%TF.GenerationSoftware,KiCad,Pcbnew,7.0.5*%
%TF.CreationDate,2023-10-07T01:59:45-03:00*%
%TF.ProjectId,ESP32_MicroSD,45535033-325f-44d6-9963-726f53442e6b,rev?*%
%TF.SameCoordinates,Original*%
%TF.FileFunction,Legend,Top*%
%TF.FilePolarity,Positive*%
%FSLAX46Y46*%
G04 Gerber Fmt 4.6, Leading zero omitted, Abs format (unit mm)*
G04 Created by KiCad (PCBNEW 7.0.5) date 2023-10-07 01:59:45*
%MOMM*%
%LPD*%
G01*
G04 APERTURE LIST*
%ADD10C,0.150000*%
%ADD11C,0.120000*%
G04 APERTURE END LIST*
D10*
%TO.C,C2*%
X80877580Y-102884266D02*
X80925200Y-102931885D01*
X80925200Y-102931885D02*
X80972819Y-103074742D01*
X80972819Y-103074742D02*
X80972819Y-103169980D01*
X80972819Y-103169980D02*
X80925200Y-103312837D01*
X80925200Y-103312837D02*
X80829961Y-103408075D01*
X80829961Y-103408075D02*
X80734723Y-103455694D01*
X80734723Y-103455694D02*
X80544247Y-103503313D01*
X80544247Y-103503313D02*
X80401390Y-103503313D01*
X80401390Y-103503313D02*
X80210914Y-103455694D01*
X80210914Y-103455694D02*
X80115676Y-103408075D01*
X80115676Y-103408075D02*
X80020438Y-103312837D01*
X80020438Y-103312837D02*
X79972819Y-103169980D01*
X79972819Y-103169980D02*
X79972819Y-103074742D01*
X79972819Y-103074742D02*
X80020438Y-102931885D01*
X80020438Y-102931885D02*
X80068057Y-102884266D01*
X80068057Y-102503313D02*
X80020438Y-102455694D01*
X80020438Y-102455694D02*
X79972819Y-102360456D01*
X79972819Y-102360456D02*
X79972819Y-102122361D01*
X79972819Y-102122361D02*
X80020438Y-102027123D01*
X80020438Y-102027123D02*
X80068057Y-101979504D01*
X80068057Y-101979504D02*
X80163295Y-101931885D01*
X80163295Y-101931885D02*
X80258533Y-101931885D01*
X80258533Y-101931885D02*
X80401390Y-101979504D01*
X80401390Y-101979504D02*
X80972819Y-102550932D01*
X80972819Y-102550932D02*
X80972819Y-101931885D01*
%TO.C,U1*%
X78338095Y-75154819D02*
X78338095Y-75964342D01*
X78338095Y-75964342D02*
X78385714Y-76059580D01*
X78385714Y-76059580D02*
X78433333Y-76107200D01*
X78433333Y-76107200D02*
X78528571Y-76154819D01*
X78528571Y-76154819D02*
X78719047Y-76154819D01*
X78719047Y-76154819D02*
X78814285Y-76107200D01*
X78814285Y-76107200D02*
X78861904Y-76059580D01*
X78861904Y-76059580D02*
X78909523Y-75964342D01*
X78909523Y-75964342D02*
X78909523Y-75154819D01*
X79909523Y-76154819D02*
X79338095Y-76154819D01*
X79623809Y-76154819D02*
X79623809Y-75154819D01*
X79623809Y-75154819D02*
X79528571Y-75297676D01*
X79528571Y-75297676D02*
X79433333Y-75392914D01*
X79433333Y-75392914D02*
X79338095Y-75440533D01*
%TO.C,SW1*%
X88907200Y-102533332D02*
X88954819Y-102390475D01*
X88954819Y-102390475D02*
X88954819Y-102152380D01*
X88954819Y-102152380D02*
X88907200Y-102057142D01*
X88907200Y-102057142D02*
X88859580Y-102009523D01*
X88859580Y-102009523D02*
X88764342Y-101961904D01*
X88764342Y-101961904D02*
X88669104Y-101961904D01*
X88669104Y-101961904D02*
X88573866Y-102009523D01*
X88573866Y-102009523D02*
X88526247Y-102057142D01*
X88526247Y-102057142D02*
X88478628Y-102152380D01*
X88478628Y-102152380D02*
X88431009Y-102342856D01*
X88431009Y-102342856D02*
X88383390Y-102438094D01*
X88383390Y-102438094D02*
X88335771Y-102485713D01*
X88335771Y-102485713D02*
X88240533Y-102533332D01*
X88240533Y-102533332D02*
X88145295Y-102533332D01*
X88145295Y-102533332D02*
X88050057Y-102485713D01*
X88050057Y-102485713D02*
X88002438Y-102438094D01*
X88002438Y-102438094D02*
X87954819Y-102342856D01*
X87954819Y-102342856D02*
X87954819Y-102104761D01*
X87954819Y-102104761D02*
X88002438Y-101961904D01*
X87954819Y-101628570D02*
X88954819Y-101390475D01*
X88954819Y-101390475D02*
X88240533Y-101199999D01*
X88240533Y-101199999D02*
X88954819Y-101009523D01*
X88954819Y-101009523D02*
X87954819Y-100771428D01*
X88954819Y-99866666D02*
X88954819Y-100438094D01*
X88954819Y-100152380D02*
X87954819Y-100152380D01*
X87954819Y-100152380D02*
X88097676Y-100247618D01*
X88097676Y-100247618D02*
X88192914Y-100342856D01*
X88192914Y-100342856D02*
X88240533Y-100438094D01*
%TO.C,R5*%
X78280419Y-104052666D02*
X77804228Y-104385999D01*
X78280419Y-104624094D02*
X77280419Y-104624094D01*
X77280419Y-104624094D02*
X77280419Y-104243142D01*
X77280419Y-104243142D02*
X77328038Y-104147904D01*
X77328038Y-104147904D02*
X77375657Y-104100285D01*
X77375657Y-104100285D02*
X77470895Y-104052666D01*
X77470895Y-104052666D02*
X77613752Y-104052666D01*
X77613752Y-104052666D02*
X77708990Y-104100285D01*
X77708990Y-104100285D02*
X77756609Y-104147904D01*
X77756609Y-104147904D02*
X77804228Y-104243142D01*
X77804228Y-104243142D02*
X77804228Y-104624094D01*
X77280419Y-103147904D02*
X77280419Y-103624094D01*
X77280419Y-103624094D02*
X77756609Y-103671713D01*
X77756609Y-103671713D02*
X77708990Y-103624094D01*
X77708990Y-103624094D02*
X77661371Y-103528856D01*
X77661371Y-103528856D02*
X77661371Y-103290761D01*
X77661371Y-103290761D02*
X77708990Y-103195523D01*
X77708990Y-103195523D02*
X77756609Y-103147904D01*
X77756609Y-103147904D02*
X77851847Y-103100285D01*
X77851847Y-103100285D02*
X78089942Y-103100285D01*
X78089942Y-103100285D02*
X78185180Y-103147904D01*
X78185180Y-103147904D02*
X78232800Y-103195523D01*
X78232800Y-103195523D02*
X78280419Y-103290761D01*
X78280419Y-103290761D02*
X78280419Y-103528856D01*
X78280419Y-103528856D02*
X78232800Y-103624094D01*
X78232800Y-103624094D02*
X78185180Y-103671713D01*
%TO.C,D1*%
X75588019Y-102998494D02*
X74588019Y-102998494D01*
X74588019Y-102998494D02*
X74588019Y-102760399D01*
X74588019Y-102760399D02*
X74635638Y-102617542D01*
X74635638Y-102617542D02*
X74730876Y-102522304D01*
X74730876Y-102522304D02*
X74826114Y-102474685D01*
X74826114Y-102474685D02*
X75016590Y-102427066D01*
X75016590Y-102427066D02*
X75159447Y-102427066D01*
X75159447Y-102427066D02*
X75349923Y-102474685D01*
X75349923Y-102474685D02*
X75445161Y-102522304D01*
X75445161Y-102522304D02*
X75540400Y-102617542D01*
X75540400Y-102617542D02*
X75588019Y-102760399D01*
X75588019Y-102760399D02*
X75588019Y-102998494D01*
X75588019Y-101474685D02*
X75588019Y-102046113D01*
X75588019Y-101760399D02*
X74588019Y-101760399D01*
X74588019Y-101760399D02*
X74730876Y-101855637D01*
X74730876Y-101855637D02*
X74826114Y-101950875D01*
X74826114Y-101950875D02*
X74873733Y-102046113D01*
D11*
%TO.C,C2*%
X81151400Y-99408348D02*
X81151400Y-99930852D01*
X79681400Y-99408348D02*
X79681400Y-99930852D01*
%TO.C,U1*%
X92370000Y-95470000D02*
X91370000Y-95470000D01*
X92370000Y-94850000D02*
X92370000Y-95470000D01*
X74130000Y-76030000D02*
X92370000Y-76030000D01*
X74130000Y-76450000D02*
X73750000Y-76450000D01*
X92370000Y-76030000D02*
X92370000Y-76450000D01*
X74130000Y-94850000D02*
X74130000Y-95470000D01*
X74130000Y-76030000D02*
X74130000Y-76450000D01*
X74130000Y-95470000D02*
X75130000Y-95470000D01*
%TO.C,SW1*%
X90580000Y-99800000D02*
X90580000Y-99600000D01*
X93430000Y-104050000D02*
X93430000Y-98350000D01*
X94720000Y-101300000D02*
X93430000Y-101300000D01*
X94720000Y-101300000D02*
X94930000Y-101500000D01*
X94930000Y-102400000D02*
X94930000Y-101500000D01*
X91630000Y-104650000D02*
X92420000Y-104650000D01*
X94720000Y-102600000D02*
X94930000Y-102400000D01*
X93430000Y-102600000D02*
X94720000Y-102600000D01*
X92420000Y-97750000D02*
X91630000Y-97750000D01*
X90580000Y-102800000D02*
X90580000Y-101100000D01*
%TO.C,R5*%
X76938200Y-99896664D02*
X76938200Y-99442536D01*
X78408200Y-99896664D02*
X78408200Y-99442536D01*
%TO.C,D1*%
X76033200Y-101354600D02*
X76033200Y-98669600D01*
X74113200Y-101354600D02*
X76033200Y-101354600D01*
X74113200Y-98669600D02*
X74113200Y-101354600D01*
%TD*%
M02*
