M48
; DRILL file {KiCad (6.0.5)} date Mon Mar  6 17:13:04 2023
; FORMAT={-:-/ absolute / inch / decimal}
; #@! TF.CreationDate,2023-03-06T17:13:04-03:00
; #@! TF.GenerationSoftware,Kicad,Pcbnew,(6.0.5)
; #@! TF.FileFunction,Plated,1,2,PTH
FMAT,2
INCH
; #@! TA.AperFunction,Plated,PTH,ViaDrill
T1C0.0157
; #@! TA.AperFunction,Plated,PTH,ComponentDrill
T2C0.0256
%
G90
G05
T1
X3.0157Y-3.1024
X3.0157Y-3.5866
X3.0846Y-3.5886
X3.1764Y-3.5874
X3.1811Y-3.1535
X3.2224Y-3.9311
X3.3209Y-3.6299
X3.4862Y-4.0059
X3.4882Y-3.3307
X3.4882Y-3.9213
X3.5354Y-3.1024
X3.5354Y-3.185
X3.5354Y-3.249
T2
X3.4449Y-3.0276
X3.4449Y-3.0776
X3.4449Y-3.1276
X3.4449Y-3.1776
X3.4449Y-3.2276
X3.4449Y-3.2776
X3.4449Y-3.3276
X3.4449Y-3.3776
X3.4449Y-3.4276
X3.4449Y-3.4776
T0
M30
