%TF.GenerationSoftware,KiCad,Pcbnew,7.0.5*%
%TF.CreationDate,2023-10-07T01:59:45-03:00*%
%TF.ProjectId,ESP32_MicroSD,45535033-325f-44d6-9963-726f53442e6b,rev?*%
%TF.SameCoordinates,Original*%
%TF.FileFunction,Copper,L1,Top*%
%TF.FilePolarity,Positive*%
%FSLAX46Y46*%
G04 Gerber Fmt 4.6, Leading zero omitted, Abs format (unit mm)*
G04 Created by KiCad (PCBNEW 7.0.5) date 2023-10-07 01:59:45*
%MOMM*%
%LPD*%
G01*
G04 APERTURE LIST*
G04 Aperture macros list*
%AMRoundRect*
0 Rectangle with rounded corners*
0 $1 Rounding radius*
0 $2 $3 $4 $5 $6 $7 $8 $9 X,Y pos of 4 corners*
0 Add a 4 corners polygon primitive as box body*
4,1,4,$2,$3,$4,$5,$6,$7,$8,$9,$2,$3,0*
0 Add four circle primitives for the rounded corners*
1,1,$1+$1,$2,$3*
1,1,$1+$1,$4,$5*
1,1,$1+$1,$6,$7*
1,1,$1+$1,$8,$9*
0 Add four rect primitives between the rounded corners*
20,1,$1+$1,$2,$3,$4,$5,0*
20,1,$1+$1,$4,$5,$6,$7,0*
20,1,$1+$1,$6,$7,$8,$9,0*
20,1,$1+$1,$8,$9,$2,$3,0*%
G04 Aperture macros list end*
%TA.AperFunction,SMDPad,CuDef*%
%ADD10RoundRect,0.250000X-0.475000X0.250000X-0.475000X-0.250000X0.475000X-0.250000X0.475000X0.250000X0*%
%TD*%
%TA.AperFunction,SMDPad,CuDef*%
%ADD11R,2.000000X0.900000*%
%TD*%
%TA.AperFunction,SMDPad,CuDef*%
%ADD12R,0.900000X2.000000*%
%TD*%
%TA.AperFunction,SMDPad,CuDef*%
%ADD13R,5.000000X5.000000*%
%TD*%
%TA.AperFunction,SMDPad,CuDef*%
%ADD14R,0.800000X1.000000*%
%TD*%
%TA.AperFunction,SMDPad,CuDef*%
%ADD15R,1.500000X0.700000*%
%TD*%
%TA.AperFunction,SMDPad,CuDef*%
%ADD16RoundRect,0.250000X0.450000X-0.262500X0.450000X0.262500X-0.450000X0.262500X-0.450000X-0.262500X0*%
%TD*%
%TA.AperFunction,SMDPad,CuDef*%
%ADD17RoundRect,0.243750X0.456250X-0.243750X0.456250X0.243750X-0.456250X0.243750X-0.456250X-0.243750X0*%
%TD*%
%TA.AperFunction,ComponentPad*%
%ADD18O,1.000000X1.000000*%
%TD*%
%TA.AperFunction,ComponentPad*%
%ADD19R,1.000000X1.000000*%
%TD*%
%TA.AperFunction,ViaPad*%
%ADD20C,0.800000*%
%TD*%
%TA.AperFunction,Conductor*%
%ADD21C,0.400000*%
%TD*%
%TA.AperFunction,Conductor*%
%ADD22C,0.500000*%
%TD*%
%TA.AperFunction,Conductor*%
%ADD23C,0.300000*%
%TD*%
%TA.AperFunction,Conductor*%
%ADD24C,0.250000*%
%TD*%
G04 APERTURE END LIST*
D10*
%TO.P,C2,1*%
%TO.N,+3V3*%
X80416400Y-98719600D03*
%TO.P,C2,2*%
%TO.N,GND*%
X80416400Y-100619600D03*
%TD*%
D11*
%TO.P,U1,1,GND*%
%TO.N,GND*%
X74750000Y-77495000D03*
%TO.P,U1,2,VDD*%
%TO.N,+3V3*%
X74750000Y-78765000D03*
%TO.P,U1,3,EN*%
%TO.N,Net-(JP1-Pad2)*%
X74750000Y-80035000D03*
%TO.P,U1,4,SENSOR_VP*%
%TO.N,unconnected-(U1-Pad4)*%
X74750000Y-81305000D03*
%TO.P,U1,5,SENSOR_VN*%
%TO.N,unconnected-(U1-Pad5)*%
X74750000Y-82575000D03*
%TO.P,U1,6,IO34*%
%TO.N,unconnected-(U1-Pad6)*%
X74750000Y-83845000D03*
%TO.P,U1,7,IO35*%
%TO.N,Net-(D1-Pad2)*%
X74750000Y-85115000D03*
%TO.P,U1,8,IO32*%
%TO.N,unconnected-(U1-Pad8)*%
X74750000Y-86385000D03*
%TO.P,U1,9,IO33*%
%TO.N,unconnected-(U1-Pad9)*%
X74750000Y-87655000D03*
%TO.P,U1,10,IO25*%
%TO.N,unconnected-(U1-Pad10)*%
X74750000Y-88925000D03*
%TO.P,U1,11,IO26*%
%TO.N,unconnected-(U1-Pad11)*%
X74750000Y-90195000D03*
%TO.P,U1,12,IO27*%
%TO.N,unconnected-(U1-Pad12)*%
X74750000Y-91465000D03*
%TO.P,U1,13,IO14*%
%TO.N,unconnected-(U1-Pad13)*%
X74750000Y-92735000D03*
%TO.P,U1,14,IO12*%
%TO.N,unconnected-(U1-Pad14)*%
X74750000Y-94005000D03*
D12*
%TO.P,U1,15,GND*%
%TO.N,GND*%
X77535000Y-95005000D03*
%TO.P,U1,16,IO13*%
%TO.N,unconnected-(U1-Pad16)*%
X78805000Y-95005000D03*
%TO.P,U1,17,SHD/SD2*%
%TO.N,unconnected-(U1-Pad17)*%
X80075000Y-95005000D03*
%TO.P,U1,18,SWP/SD3*%
%TO.N,unconnected-(U1-Pad18)*%
X81345000Y-95005000D03*
%TO.P,U1,19,SCS/CMD*%
%TO.N,unconnected-(U1-Pad19)*%
X82615000Y-95005000D03*
%TO.P,U1,20,SCK/CLK*%
%TO.N,unconnected-(U1-Pad20)*%
X83885000Y-95005000D03*
%TO.P,U1,21,SDO/SD0*%
%TO.N,unconnected-(U1-Pad21)*%
X85155000Y-95005000D03*
%TO.P,U1,22,SDI/SD1*%
%TO.N,unconnected-(U1-Pad22)*%
X86425000Y-95005000D03*
%TO.P,U1,23,IO15*%
%TO.N,unconnected-(U1-Pad23)*%
X87695000Y-95005000D03*
%TO.P,U1,24,IO2*%
%TO.N,unconnected-(U1-Pad24)*%
X88965000Y-95005000D03*
D11*
%TO.P,U1,25,IO0*%
%TO.N,unconnected-(U1-Pad25)*%
X91750000Y-94005000D03*
%TO.P,U1,26,IO4*%
%TO.N,unconnected-(U1-Pad26)*%
X91750000Y-92735000D03*
%TO.P,U1,27,IO16*%
%TO.N,unconnected-(U1-Pad27)*%
X91750000Y-91465000D03*
%TO.P,U1,28,IO17*%
%TO.N,unconnected-(U1-Pad28)*%
X91750000Y-90195000D03*
%TO.P,U1,29,IO5*%
%TO.N,/IO5*%
X91750000Y-88925000D03*
%TO.P,U1,30,IO18*%
%TO.N,/IO18*%
X91750000Y-87655000D03*
%TO.P,U1,31,IO19*%
%TO.N,/IO19*%
X91750000Y-86385000D03*
%TO.P,U1,32,NC*%
%TO.N,unconnected-(U1-Pad32)*%
X91750000Y-85115000D03*
%TO.P,U1,33,IO21*%
%TO.N,unconnected-(U1-Pad33)*%
X91750000Y-83845000D03*
%TO.P,U1,34,RXD0/IO3*%
%TO.N,/RX*%
X91750000Y-82575000D03*
%TO.P,U1,35,TXD0/IO1*%
%TO.N,/TX*%
X91750000Y-81305000D03*
%TO.P,U1,36,IO22*%
%TO.N,unconnected-(U1-Pad36)*%
X91750000Y-80035000D03*
%TO.P,U1,37,IO23*%
%TO.N,/IO23*%
X91750000Y-78765000D03*
%TO.P,U1,38,GND*%
%TO.N,GND*%
X91750000Y-77495000D03*
D13*
%TO.P,U1,39,GND*%
X82250000Y-84995000D03*
%TD*%
D14*
%TO.P,SW1,*%
%TO.N,*%
X90920000Y-97550000D03*
X93130000Y-97550000D03*
X93130000Y-104850000D03*
X90920000Y-104850000D03*
D15*
%TO.P,SW1,1,A*%
%TO.N,+3V3*%
X90270000Y-103450000D03*
%TO.P,SW1,2,B*%
%TO.N,Net-(J1-Pad9)*%
X90270000Y-100450000D03*
%TO.P,SW1,3,C*%
%TO.N,unconnected-(SW1-Pad3)*%
X90270000Y-98950000D03*
%TD*%
D16*
%TO.P,R5,1*%
%TO.N,Net-(D1-Pad1)*%
X77673200Y-100582100D03*
%TO.P,R5,2*%
%TO.N,GND*%
X77673200Y-98757100D03*
%TD*%
D17*
%TO.P,D1,1,K*%
%TO.N,Net-(D1-Pad1)*%
X75073200Y-100607100D03*
%TO.P,D1,2,A*%
%TO.N,Net-(D1-Pad2)*%
X75073200Y-98732100D03*
%TD*%
D18*
%TO.P,J1,18,Pin_18*%
%TO.N,unconnected-(J1-Pad18)*%
X87500000Y-88330000D03*
%TO.P,J1,17,Pin_17*%
%TO.N,unconnected-(J1-Pad17)*%
X87500000Y-87060000D03*
%TO.P,J1,16,Pin_16*%
%TO.N,unconnected-(J1-Pad16)*%
X87500000Y-85790000D03*
%TO.P,J1,15,Pin_15*%
%TO.N,unconnected-(J1-Pad15)*%
X87500000Y-84520000D03*
%TO.P,J1,14,Pin_14*%
%TO.N,/TX*%
X87500000Y-83250000D03*
%TO.P,J1,13,Pin_13*%
%TO.N,/RX*%
X87500000Y-81980000D03*
%TO.P,J1,12,Pin_12*%
%TO.N,unconnected-(J1-Pad12)*%
X87500000Y-80710000D03*
%TO.P,J1,11,Pin_11*%
%TO.N,GND*%
X87500000Y-79440000D03*
%TO.P,J1,10,Pin_10*%
%TO.N,unconnected-(J1-Pad10)*%
X87500000Y-78170000D03*
D19*
%TO.P,J1,9,Pin_9*%
%TO.N,Net-(J1-Pad9)*%
X87500000Y-76900000D03*
%TD*%
D20*
%TO.N,GND*%
X83972400Y-97282000D03*
X79400400Y-81381600D03*
%TO.N,/IO18*%
X82854800Y-89712300D03*
%TO.N,/IO19*%
X84683600Y-89712300D03*
%TO.N,/IO23*%
X80213200Y-89458800D03*
%TO.N,/IO5*%
X79806800Y-93218000D03*
%TO.N,+3V3*%
X76600000Y-78800000D03*
X81923200Y-98719600D03*
%TO.N,/IO23*%
X88900000Y-78800000D03*
X88900000Y-83800000D03*
%TO.N,Net-(JP1-Pad2)*%
X80800000Y-80100000D03*
%TO.N,/RX*%
X89800000Y-80900000D03*
X89800000Y-82524500D03*
%TO.N,Net-(J1-Pad9)*%
X88600000Y-99600000D03*
%TD*%
D21*
%TO.N,+3V3*%
X85519600Y-98719600D02*
X80573200Y-98719600D01*
X88655250Y-101855250D02*
X85519600Y-98719600D01*
X88655250Y-101910900D02*
X88655250Y-101855250D01*
D22*
X90194350Y-103450000D02*
X90270000Y-103450000D01*
X88655250Y-101910900D02*
X90194350Y-103450000D01*
D23*
%TO.N,/IO18*%
X90100000Y-88500000D02*
X90945000Y-87655000D01*
X90100000Y-88900000D02*
X90100000Y-88500000D01*
X87700000Y-91300000D02*
X90100000Y-88900000D01*
X82854800Y-89712300D02*
X82955900Y-89712300D01*
X84543600Y-91300000D02*
X87700000Y-91300000D01*
X82955900Y-89712300D02*
X84543600Y-91300000D01*
%TO.N,/IO19*%
X89458800Y-87941200D02*
X91015000Y-86385000D01*
X89458800Y-88544400D02*
X89458800Y-87941200D01*
X87934800Y-90068400D02*
X89458800Y-88544400D01*
X85039700Y-90068400D02*
X87934800Y-90068400D01*
X84683600Y-89712300D02*
X85039700Y-90068400D01*
%TO.N,/IO23*%
X88350000Y-84350000D02*
X88900000Y-83800000D01*
X87827282Y-89204800D02*
X88350000Y-88682082D01*
X87020400Y-89204800D02*
X87827282Y-89204800D01*
X88350000Y-88682082D02*
X88350000Y-84350000D01*
X86778400Y-88962800D02*
X87020400Y-89204800D01*
X80213200Y-89458800D02*
X80709200Y-88962800D01*
X80709200Y-88962800D02*
X86778400Y-88962800D01*
%TO.N,/IO5*%
X86782000Y-93218000D02*
X91075000Y-88925000D01*
X79806800Y-93218000D02*
X86782000Y-93218000D01*
D24*
%TO.N,Net-(D1-Pad2)*%
X75073200Y-97173200D02*
X75073200Y-98557580D01*
X75000000Y-97100000D02*
X75073200Y-97173200D01*
D21*
%TO.N,+3V3*%
X76600000Y-78800000D02*
X74785000Y-78800000D01*
X74785000Y-78800000D02*
X74750000Y-78765000D01*
D24*
%TO.N,/IO19*%
X91015000Y-86385000D02*
X91750000Y-86385000D01*
%TO.N,/IO18*%
X90945000Y-87655000D02*
X91750000Y-87655000D01*
%TO.N,/IO23*%
X91715000Y-78800000D02*
X91750000Y-78765000D01*
D23*
X88900000Y-78800000D02*
X91715000Y-78800000D01*
D24*
%TO.N,/IO5*%
X91075000Y-88925000D02*
X91750000Y-88925000D01*
%TO.N,Net-(JP1-Pad2)*%
X80735000Y-80035000D02*
X80800000Y-80100000D01*
X74750000Y-80035000D02*
X80735000Y-80035000D01*
%TO.N,Net-(D1-Pad1)*%
X75073200Y-100607100D02*
X77648200Y-100607100D01*
%TO.N,/RX*%
X88800000Y-80900000D02*
X87720000Y-81980000D01*
X87720000Y-81980000D02*
X87500000Y-81980000D01*
X89800000Y-80900000D02*
X88800000Y-80900000D01*
X89850500Y-82575000D02*
X91750000Y-82575000D01*
X89800000Y-82524500D02*
X89850500Y-82575000D01*
%TO.N,/TX*%
X90400000Y-81800000D02*
X90900000Y-81300000D01*
X90900000Y-81300000D02*
X91745000Y-81300000D01*
X87500000Y-83250000D02*
X88950000Y-81800000D01*
X91745000Y-81300000D02*
X91750000Y-81305000D01*
X88950000Y-81800000D02*
X90400000Y-81800000D01*
D22*
%TO.N,Net-(J1-Pad9)*%
X88600000Y-99600000D02*
X89450000Y-100450000D01*
X89450000Y-100450000D02*
X90270000Y-100450000D01*
D24*
%TO.N,Net-(D1-Pad2)*%
X74750000Y-85115000D02*
X73685000Y-85115000D01*
X73200000Y-95300000D02*
X75000000Y-97100000D01*
X73200000Y-85600000D02*
X73200000Y-95300000D01*
X73685000Y-85115000D02*
X73200000Y-85600000D01*
%TD*%
%TA.AperFunction,Conductor*%
%TO.N,GND*%
G36*
X94002735Y-75000740D02*
G01*
X94036642Y-75003705D01*
X94045440Y-75004475D01*
X94171603Y-75016901D01*
X94191847Y-75020584D01*
X94257408Y-75038151D01*
X94259232Y-75038672D01*
X94351432Y-75066640D01*
X94368092Y-75073014D01*
X94404035Y-75089775D01*
X94435351Y-75104378D01*
X94438418Y-75105911D01*
X94522280Y-75150736D01*
X94528718Y-75154692D01*
X94594799Y-75200963D01*
X94598632Y-75203870D01*
X94670774Y-75263076D01*
X94675347Y-75267220D01*
X94732777Y-75324650D01*
X94736922Y-75329224D01*
X94796128Y-75401366D01*
X94799035Y-75405199D01*
X94845306Y-75471280D01*
X94849265Y-75477723D01*
X94894084Y-75561574D01*
X94895620Y-75564647D01*
X94926982Y-75631902D01*
X94933362Y-75648577D01*
X94961296Y-75740661D01*
X94961862Y-75742644D01*
X94979412Y-75808144D01*
X94983098Y-75828404D01*
X94995523Y-75954556D01*
X94999260Y-75997253D01*
X94999500Y-76002748D01*
X94999500Y-105997249D01*
X94999260Y-106002745D01*
X94995522Y-106045450D01*
X94983098Y-106171594D01*
X94979412Y-106191854D01*
X94961862Y-106257354D01*
X94961296Y-106259337D01*
X94933362Y-106351421D01*
X94926982Y-106368096D01*
X94895620Y-106435351D01*
X94894084Y-106438424D01*
X94849265Y-106522275D01*
X94845306Y-106528718D01*
X94799035Y-106594799D01*
X94796128Y-106598632D01*
X94736922Y-106670774D01*
X94732768Y-106675358D01*
X94675358Y-106732768D01*
X94670774Y-106736922D01*
X94598632Y-106796128D01*
X94594799Y-106799035D01*
X94528718Y-106845306D01*
X94522275Y-106849265D01*
X94438424Y-106894084D01*
X94435351Y-106895620D01*
X94368096Y-106926982D01*
X94351421Y-106933362D01*
X94259337Y-106961296D01*
X94257354Y-106961862D01*
X94191854Y-106979412D01*
X94171594Y-106983098D01*
X94045450Y-106995522D01*
X94008705Y-106998738D01*
X94002740Y-106999260D01*
X93997250Y-106999500D01*
X73002749Y-106999500D01*
X72997259Y-106999260D01*
X72989143Y-106998550D01*
X72954556Y-106995523D01*
X72828404Y-106983098D01*
X72808144Y-106979412D01*
X72742644Y-106961862D01*
X72740687Y-106961303D01*
X72695652Y-106947642D01*
X72648577Y-106933362D01*
X72631902Y-106926982D01*
X72564647Y-106895620D01*
X72561574Y-106894084D01*
X72477723Y-106849265D01*
X72471280Y-106845306D01*
X72405199Y-106799035D01*
X72401366Y-106796128D01*
X72329224Y-106736922D01*
X72324650Y-106732777D01*
X72267220Y-106675347D01*
X72263076Y-106670774D01*
X72203870Y-106598632D01*
X72200963Y-106594799D01*
X72154692Y-106528718D01*
X72150733Y-106522275D01*
X72105914Y-106438424D01*
X72104378Y-106435351D01*
X72073016Y-106368096D01*
X72066640Y-106351432D01*
X72038672Y-106259232D01*
X72038151Y-106257408D01*
X72020584Y-106191847D01*
X72016901Y-106171603D01*
X72004474Y-106045424D01*
X72000740Y-106002734D01*
X72000500Y-105997241D01*
X72000500Y-85579943D01*
X72561780Y-85579943D01*
X72566220Y-85626917D01*
X72566500Y-85632850D01*
X72566500Y-95216146D01*
X72564751Y-95231988D01*
X72565044Y-95232016D01*
X72564298Y-95239908D01*
X72566469Y-95308974D01*
X72566500Y-95310953D01*
X72566500Y-95339851D01*
X72566501Y-95339872D01*
X72567378Y-95346820D01*
X72567844Y-95352732D01*
X72569326Y-95399888D01*
X72569327Y-95399893D01*
X72574977Y-95419339D01*
X72578986Y-95438697D01*
X72581525Y-95458793D01*
X72581526Y-95458799D01*
X72598893Y-95502662D01*
X72600816Y-95508279D01*
X72613982Y-95553593D01*
X72624294Y-95571031D01*
X72632988Y-95588779D01*
X72640444Y-95607609D01*
X72640450Y-95607620D01*
X72668177Y-95645783D01*
X72671437Y-95650746D01*
X72695460Y-95691365D01*
X72709779Y-95705684D01*
X72722617Y-95720714D01*
X72732156Y-95733843D01*
X72734528Y-95737107D01*
X72762794Y-95760491D01*
X72770886Y-95767185D01*
X72775267Y-95771171D01*
X73603206Y-96599110D01*
X74402795Y-97398699D01*
X74436821Y-97461011D01*
X74439700Y-97487794D01*
X74439700Y-97663625D01*
X74419698Y-97731746D01*
X74366042Y-97778239D01*
X74353333Y-97783229D01*
X74296874Y-97801937D01*
X74147201Y-97894256D01*
X74147195Y-97894261D01*
X74022861Y-98018595D01*
X74022856Y-98018601D01*
X73930539Y-98168270D01*
X73924868Y-98185385D01*
X73883454Y-98310367D01*
X73875225Y-98335200D01*
X73864700Y-98438216D01*
X73864700Y-99025974D01*
X73874717Y-99124025D01*
X73875226Y-99129004D01*
X73899957Y-99203637D01*
X73930539Y-99295929D01*
X74022856Y-99445598D01*
X74022861Y-99445604D01*
X74147201Y-99569944D01*
X74148243Y-99570768D01*
X74148771Y-99571514D01*
X74152391Y-99575134D01*
X74151772Y-99575752D01*
X74189269Y-99628711D01*
X74192456Y-99699636D01*
X74156792Y-99761025D01*
X74148243Y-99768432D01*
X74147201Y-99769255D01*
X74022861Y-99893595D01*
X74022856Y-99893601D01*
X73930539Y-100043270D01*
X73930539Y-100043271D01*
X73881823Y-100190289D01*
X73875225Y-100210200D01*
X73864700Y-100313216D01*
X73864700Y-100900974D01*
X73875225Y-101003999D01*
X73875226Y-101004004D01*
X73907025Y-101099967D01*
X73930539Y-101170929D01*
X74022856Y-101320598D01*
X74022861Y-101320604D01*
X74147195Y-101444938D01*
X74147201Y-101444943D01*
X74147202Y-101444944D01*
X74296871Y-101537261D01*
X74463796Y-101592574D01*
X74566825Y-101603100D01*
X75579574Y-101603099D01*
X75682604Y-101592574D01*
X75849529Y-101537261D01*
X75999198Y-101444944D01*
X76123544Y-101320598D01*
X76134410Y-101302980D01*
X76135969Y-101300454D01*
X76188755Y-101252975D01*
X76243210Y-101240600D01*
X76505951Y-101240600D01*
X76574072Y-101260602D01*
X76613192Y-101300454D01*
X76624168Y-101318249D01*
X76624175Y-101318258D01*
X76749541Y-101443624D01*
X76749547Y-101443629D01*
X76749548Y-101443630D01*
X76900462Y-101536715D01*
X77068774Y-101592487D01*
X77172655Y-101603100D01*
X77352489Y-101603099D01*
X77420608Y-101623101D01*
X77467101Y-101676756D01*
X77477206Y-101747030D01*
X77447713Y-101811611D01*
X77429202Y-101829054D01*
X77427093Y-101830672D01*
X77330838Y-101956114D01*
X77330836Y-101956117D01*
X77270328Y-102102196D01*
X77249691Y-102258956D01*
X77249691Y-102258957D01*
X77270328Y-102415717D01*
X77329557Y-102558707D01*
X77330837Y-102561798D01*
X77427091Y-102687239D01*
X77552532Y-102783493D01*
X77698611Y-102844001D01*
X77776992Y-102854320D01*
X77855372Y-102864639D01*
X77855372Y-102864638D01*
X77855373Y-102864639D01*
X78012135Y-102844001D01*
X78158214Y-102783493D01*
X78283655Y-102687239D01*
X78379909Y-102561798D01*
X78440417Y-102415719D01*
X78461055Y-102258957D01*
X78457164Y-102229400D01*
X85199418Y-102229400D01*
X85220055Y-102386160D01*
X85279284Y-102529150D01*
X85280564Y-102532241D01*
X85376818Y-102657682D01*
X85502259Y-102753936D01*
X85648338Y-102814444D01*
X85805100Y-102835082D01*
X85961862Y-102814444D01*
X86107941Y-102753936D01*
X86233382Y-102657682D01*
X86329636Y-102532241D01*
X86390144Y-102386162D01*
X86410782Y-102229400D01*
X86390144Y-102072638D01*
X86329636Y-101926559D01*
X86233382Y-101801118D01*
X86107941Y-101704864D01*
X86046674Y-101679486D01*
X85961860Y-101644355D01*
X85805100Y-101623718D01*
X85648339Y-101644355D01*
X85502260Y-101704863D01*
X85502257Y-101704865D01*
X85376818Y-101801118D01*
X85280565Y-101926557D01*
X85280563Y-101926560D01*
X85220055Y-102072639D01*
X85199418Y-102229399D01*
X85199418Y-102229400D01*
X78457164Y-102229400D01*
X78440417Y-102102195D01*
X78379909Y-101956116D01*
X78283655Y-101830675D01*
X78281542Y-101829054D01*
X78253707Y-101807695D01*
X78211840Y-101750357D01*
X78207619Y-101679486D01*
X78242384Y-101617583D01*
X78290778Y-101588128D01*
X78445938Y-101536715D01*
X78596852Y-101443630D01*
X78722230Y-101318252D01*
X78815315Y-101167338D01*
X78871087Y-100999026D01*
X78881700Y-100895145D01*
X78881700Y-100873600D01*
X79183400Y-100873600D01*
X79183400Y-100920116D01*
X79194005Y-101023918D01*
X79194006Y-101023921D01*
X79249742Y-101192125D01*
X79342765Y-101342939D01*
X79342770Y-101342945D01*
X79468054Y-101468229D01*
X79468060Y-101468234D01*
X79618874Y-101561257D01*
X79787078Y-101616993D01*
X79787081Y-101616994D01*
X79890883Y-101627599D01*
X79890883Y-101627600D01*
X80162400Y-101627600D01*
X80162400Y-100873600D01*
X80670400Y-100873600D01*
X80670400Y-101627600D01*
X80941917Y-101627600D01*
X80941916Y-101627599D01*
X81045718Y-101616994D01*
X81045721Y-101616993D01*
X81213925Y-101561257D01*
X81364739Y-101468234D01*
X81364745Y-101468229D01*
X81490029Y-101342945D01*
X81490034Y-101342939D01*
X81583057Y-101192125D01*
X81638793Y-101023921D01*
X81638794Y-101023918D01*
X81649399Y-100920116D01*
X81649400Y-100920116D01*
X81649400Y-100873600D01*
X80670400Y-100873600D01*
X80162400Y-100873600D01*
X79183400Y-100873600D01*
X78881700Y-100873600D01*
X78881699Y-100269056D01*
X78877523Y-100228181D01*
X78871087Y-100165174D01*
X78830693Y-100043271D01*
X78815315Y-99996862D01*
X78722230Y-99845948D01*
X78634621Y-99758339D01*
X78600598Y-99696030D01*
X78605662Y-99625214D01*
X78634623Y-99580150D01*
X78721834Y-99492939D01*
X78814857Y-99342125D01*
X78870593Y-99173921D01*
X78870594Y-99173918D01*
X78881199Y-99070116D01*
X78881200Y-99070116D01*
X78881200Y-99020144D01*
X79182900Y-99020144D01*
X79193512Y-99124025D01*
X79249285Y-99292338D01*
X79342370Y-99443252D01*
X79342375Y-99443258D01*
X79467745Y-99568628D01*
X79470850Y-99571083D01*
X79472427Y-99573310D01*
X79472937Y-99573820D01*
X79472849Y-99573907D01*
X79511881Y-99629022D01*
X79515073Y-99699947D01*
X79479414Y-99761339D01*
X79470854Y-99768757D01*
X79468054Y-99770970D01*
X79342770Y-99896254D01*
X79342765Y-99896260D01*
X79249742Y-100047074D01*
X79194006Y-100215278D01*
X79194005Y-100215281D01*
X79183400Y-100319083D01*
X79183400Y-100365600D01*
X81649400Y-100365600D01*
X81649400Y-100319083D01*
X81638794Y-100215281D01*
X81638793Y-100215278D01*
X81583057Y-100047074D01*
X81490034Y-99896260D01*
X81490029Y-99896254D01*
X81364744Y-99770969D01*
X81361951Y-99768761D01*
X81360531Y-99766756D01*
X81359550Y-99765775D01*
X81359717Y-99765607D01*
X81320919Y-99710822D01*
X81317725Y-99639898D01*
X81353383Y-99578505D01*
X81361953Y-99571079D01*
X81365039Y-99568637D01*
X81365052Y-99568630D01*
X81375124Y-99558557D01*
X81437430Y-99524531D01*
X81508246Y-99529591D01*
X81515445Y-99532533D01*
X81640912Y-99588394D01*
X81827713Y-99628100D01*
X82018687Y-99628100D01*
X82205488Y-99588394D01*
X82379952Y-99510718D01*
X82460544Y-99452163D01*
X82527412Y-99428306D01*
X82534605Y-99428100D01*
X85173940Y-99428100D01*
X85242061Y-99448102D01*
X85263035Y-99465005D01*
X87908055Y-102110025D01*
X87938564Y-102159486D01*
X87961731Y-102229399D01*
X87963136Y-102233638D01*
X88056220Y-102384551D01*
X88974596Y-103302927D01*
X89008620Y-103365238D01*
X89011500Y-103392021D01*
X89011500Y-103848649D01*
X89018009Y-103909196D01*
X89018011Y-103909204D01*
X89069110Y-104046202D01*
X89069112Y-104046207D01*
X89156738Y-104163261D01*
X89273792Y-104250887D01*
X89273794Y-104250888D01*
X89273796Y-104250889D01*
X89332875Y-104272924D01*
X89410795Y-104301988D01*
X89410803Y-104301990D01*
X89471350Y-104308499D01*
X89471355Y-104308499D01*
X89471362Y-104308500D01*
X89885500Y-104308500D01*
X89953621Y-104328502D01*
X90000114Y-104382158D01*
X90011500Y-104434500D01*
X90011500Y-105398649D01*
X90018009Y-105459196D01*
X90018011Y-105459204D01*
X90069110Y-105596202D01*
X90069112Y-105596207D01*
X90156738Y-105713261D01*
X90273792Y-105800887D01*
X90273794Y-105800888D01*
X90273796Y-105800889D01*
X90332875Y-105822924D01*
X90410795Y-105851988D01*
X90410803Y-105851990D01*
X90471350Y-105858499D01*
X90471355Y-105858499D01*
X90471362Y-105858500D01*
X90471368Y-105858500D01*
X91368632Y-105858500D01*
X91368638Y-105858500D01*
X91368645Y-105858499D01*
X91368649Y-105858499D01*
X91429196Y-105851990D01*
X91429199Y-105851989D01*
X91429201Y-105851989D01*
X91566204Y-105800889D01*
X91683261Y-105713261D01*
X91770889Y-105596204D01*
X91821989Y-105459201D01*
X91828499Y-105398649D01*
X92221500Y-105398649D01*
X92228009Y-105459196D01*
X92228011Y-105459204D01*
X92279110Y-105596202D01*
X92279112Y-105596207D01*
X92366738Y-105713261D01*
X92483792Y-105800887D01*
X92483794Y-105800888D01*
X92483796Y-105800889D01*
X92542875Y-105822924D01*
X92620795Y-105851988D01*
X92620803Y-105851990D01*
X92681350Y-105858499D01*
X92681355Y-105858499D01*
X92681362Y-105858500D01*
X92681368Y-105858500D01*
X93578632Y-105858500D01*
X93578638Y-105858500D01*
X93578645Y-105858499D01*
X93578649Y-105858499D01*
X93639196Y-105851990D01*
X93639199Y-105851989D01*
X93639201Y-105851989D01*
X93776204Y-105800889D01*
X93893261Y-105713261D01*
X93980889Y-105596204D01*
X94031989Y-105459201D01*
X94038500Y-105398638D01*
X94038500Y-104301362D01*
X94033074Y-104250887D01*
X94031990Y-104240803D01*
X94031988Y-104240795D01*
X93980889Y-104103797D01*
X93980887Y-104103792D01*
X93893261Y-103986738D01*
X93776207Y-103899112D01*
X93776202Y-103899110D01*
X93639204Y-103848011D01*
X93639196Y-103848009D01*
X93578649Y-103841500D01*
X93578638Y-103841500D01*
X92681362Y-103841500D01*
X92681350Y-103841500D01*
X92620803Y-103848009D01*
X92620795Y-103848011D01*
X92483797Y-103899110D01*
X92483792Y-103899112D01*
X92366738Y-103986738D01*
X92279112Y-104103792D01*
X92279110Y-104103797D01*
X92228011Y-104240795D01*
X92228009Y-104240803D01*
X92221500Y-104301350D01*
X92221500Y-105398649D01*
X91828499Y-105398649D01*
X91828500Y-105398638D01*
X91828500Y-104301362D01*
X91823074Y-104250887D01*
X91821990Y-104240803D01*
X91821988Y-104240795D01*
X91770889Y-104103797D01*
X91770887Y-104103792D01*
X91683262Y-103986740D01*
X91683259Y-103986738D01*
X91579683Y-103909201D01*
X91578990Y-103908682D01*
X91536444Y-103851846D01*
X91528500Y-103807814D01*
X91528500Y-103441534D01*
X91548502Y-103373413D01*
X91602158Y-103326920D01*
X91672432Y-103316816D01*
X91699180Y-103323722D01*
X91702070Y-103324818D01*
X91861128Y-103385140D01*
X91987628Y-103400500D01*
X91987632Y-103400500D01*
X92072368Y-103400500D01*
X92072372Y-103400500D01*
X92198872Y-103385140D01*
X92338782Y-103332079D01*
X92357925Y-103324820D01*
X92357925Y-103324819D01*
X92357930Y-103324818D01*
X92497929Y-103228183D01*
X92610734Y-103100852D01*
X92689790Y-102950225D01*
X92730500Y-102785056D01*
X92730500Y-102614944D01*
X92716639Y-102558707D01*
X92689791Y-102449778D01*
X92689790Y-102449776D01*
X92689790Y-102449775D01*
X92610734Y-102299148D01*
X92552697Y-102233638D01*
X92497930Y-102171818D01*
X92497928Y-102171816D01*
X92357929Y-102075181D01*
X92357925Y-102075179D01*
X92198870Y-102014859D01*
X92072378Y-101999500D01*
X92072372Y-101999500D01*
X91987628Y-101999500D01*
X91987621Y-101999500D01*
X91861129Y-102014859D01*
X91702074Y-102075179D01*
X91702070Y-102075181D01*
X91562071Y-102171816D01*
X91562069Y-102171818D01*
X91449270Y-102299142D01*
X91449265Y-102299148D01*
X91370210Y-102449774D01*
X91370209Y-102449777D01*
X91350307Y-102530524D01*
X91314583Y-102591878D01*
X91251360Y-102624180D01*
X91183936Y-102618426D01*
X91129200Y-102598010D01*
X91129196Y-102598009D01*
X91068649Y-102591500D01*
X91068638Y-102591500D01*
X90460721Y-102591500D01*
X90392600Y-102571498D01*
X90371626Y-102554595D01*
X89336424Y-101519393D01*
X89302398Y-101457081D01*
X89307463Y-101386266D01*
X89350010Y-101329430D01*
X89416530Y-101304619D01*
X89438986Y-101305020D01*
X89459549Y-101307230D01*
X89471362Y-101308500D01*
X89471368Y-101308500D01*
X91068632Y-101308500D01*
X91068638Y-101308500D01*
X91068645Y-101308499D01*
X91068649Y-101308499D01*
X91129196Y-101301990D01*
X91129199Y-101301989D01*
X91129201Y-101301989D01*
X91133317Y-101300454D01*
X91170937Y-101286422D01*
X91266204Y-101250889D01*
X91279949Y-101240600D01*
X91383261Y-101163261D01*
X91470887Y-101046207D01*
X91470887Y-101046206D01*
X91470889Y-101046204D01*
X91521989Y-100909201D01*
X91522874Y-100900974D01*
X91528499Y-100848649D01*
X91528500Y-100848632D01*
X91528500Y-100441534D01*
X91548502Y-100373413D01*
X91602158Y-100326920D01*
X91672432Y-100316816D01*
X91699180Y-100323722D01*
X91702070Y-100324818D01*
X91861128Y-100385140D01*
X91987628Y-100400500D01*
X91987632Y-100400500D01*
X92072368Y-100400500D01*
X92072372Y-100400500D01*
X92198872Y-100385140D01*
X92338782Y-100332079D01*
X92357925Y-100324820D01*
X92357925Y-100324819D01*
X92357930Y-100324818D01*
X92497929Y-100228183D01*
X92610734Y-100100852D01*
X92689790Y-99950225D01*
X92730500Y-99785056D01*
X92730500Y-99614944D01*
X92709463Y-99529591D01*
X92689791Y-99449778D01*
X92689790Y-99449776D01*
X92689790Y-99449775D01*
X92610734Y-99299148D01*
X92607882Y-99295929D01*
X92497930Y-99171818D01*
X92497928Y-99171816D01*
X92357929Y-99075181D01*
X92357925Y-99075179D01*
X92198870Y-99014859D01*
X92072378Y-98999500D01*
X92072372Y-98999500D01*
X91987628Y-98999500D01*
X91987621Y-98999500D01*
X91861128Y-99014859D01*
X91861126Y-99014859D01*
X91699179Y-99076277D01*
X91628393Y-99081731D01*
X91565895Y-99048048D01*
X91531528Y-98985923D01*
X91528500Y-98958465D01*
X91528500Y-98592184D01*
X91548502Y-98524063D01*
X91578988Y-98491318D01*
X91683261Y-98413261D01*
X91749228Y-98325138D01*
X91770887Y-98296207D01*
X91770887Y-98296206D01*
X91770889Y-98296204D01*
X91821989Y-98159201D01*
X91823121Y-98148677D01*
X91828499Y-98098649D01*
X92221500Y-98098649D01*
X92228009Y-98159196D01*
X92228011Y-98159204D01*
X92279110Y-98296202D01*
X92279112Y-98296207D01*
X92366738Y-98413261D01*
X92483792Y-98500887D01*
X92483794Y-98500888D01*
X92483796Y-98500889D01*
X92525262Y-98516355D01*
X92620795Y-98551988D01*
X92620803Y-98551990D01*
X92681350Y-98558499D01*
X92681355Y-98558499D01*
X92681362Y-98558500D01*
X92681368Y-98558500D01*
X93578632Y-98558500D01*
X93578638Y-98558500D01*
X93578645Y-98558499D01*
X93578649Y-98558499D01*
X93639196Y-98551990D01*
X93639199Y-98551989D01*
X93639201Y-98551989D01*
X93776204Y-98500889D01*
X93788994Y-98491315D01*
X93893261Y-98413261D01*
X93980887Y-98296207D01*
X93980887Y-98296206D01*
X93980889Y-98296204D01*
X94031989Y-98159201D01*
X94033121Y-98148677D01*
X94038499Y-98098649D01*
X94038500Y-98098632D01*
X94038500Y-97001367D01*
X94038499Y-97001350D01*
X94031990Y-96940803D01*
X94031988Y-96940795D01*
X94002924Y-96862875D01*
X93980889Y-96803796D01*
X93980888Y-96803794D01*
X93980887Y-96803792D01*
X93893261Y-96686738D01*
X93776207Y-96599112D01*
X93776202Y-96599110D01*
X93639204Y-96548011D01*
X93639196Y-96548009D01*
X93578649Y-96541500D01*
X93578638Y-96541500D01*
X92681362Y-96541500D01*
X92681350Y-96541500D01*
X92620803Y-96548009D01*
X92620795Y-96548011D01*
X92483797Y-96599110D01*
X92483792Y-96599112D01*
X92366738Y-96686738D01*
X92279112Y-96803792D01*
X92279110Y-96803797D01*
X92228011Y-96940795D01*
X92228009Y-96940803D01*
X92221500Y-97001350D01*
X92221500Y-98098649D01*
X91828499Y-98098649D01*
X91828500Y-98098632D01*
X91828500Y-97001367D01*
X91828499Y-97001350D01*
X91821990Y-96940803D01*
X91821988Y-96940795D01*
X91792924Y-96862875D01*
X91770889Y-96803796D01*
X91770888Y-96803794D01*
X91770887Y-96803792D01*
X91683261Y-96686738D01*
X91566207Y-96599112D01*
X91566202Y-96599110D01*
X91429204Y-96548011D01*
X91429196Y-96548009D01*
X91368649Y-96541500D01*
X91368638Y-96541500D01*
X90471362Y-96541500D01*
X90471350Y-96541500D01*
X90410803Y-96548009D01*
X90410795Y-96548011D01*
X90273797Y-96599110D01*
X90273792Y-96599112D01*
X90156738Y-96686738D01*
X90069112Y-96803792D01*
X90069110Y-96803797D01*
X90018011Y-96940795D01*
X90018009Y-96940803D01*
X90011500Y-97001350D01*
X90011500Y-97965500D01*
X89991498Y-98033621D01*
X89937842Y-98080114D01*
X89885500Y-98091500D01*
X89471350Y-98091500D01*
X89410803Y-98098009D01*
X89410795Y-98098011D01*
X89273797Y-98149110D01*
X89273792Y-98149112D01*
X89156738Y-98236738D01*
X89069112Y-98353792D01*
X89069110Y-98353797D01*
X89018011Y-98490795D01*
X89018009Y-98490803D01*
X89011500Y-98551350D01*
X89011500Y-98603073D01*
X88991498Y-98671194D01*
X88937842Y-98717687D01*
X88867568Y-98727791D01*
X88859303Y-98726320D01*
X88695487Y-98691500D01*
X88504513Y-98691500D01*
X88317711Y-98731206D01*
X88143247Y-98808882D01*
X87988744Y-98921135D01*
X87860965Y-99063048D01*
X87860958Y-99063058D01*
X87765476Y-99228438D01*
X87765473Y-99228445D01*
X87706457Y-99410072D01*
X87687048Y-99594748D01*
X87660035Y-99660405D01*
X87601814Y-99701035D01*
X87530868Y-99703738D01*
X87472643Y-99670673D01*
X86760435Y-98958465D01*
X86037064Y-98235094D01*
X86034480Y-98232350D01*
X85992873Y-98185385D01*
X85992870Y-98185383D01*
X85992871Y-98185383D01*
X85941255Y-98149754D01*
X85938190Y-98147499D01*
X85919746Y-98133049D01*
X85888826Y-98108825D01*
X85888822Y-98108823D01*
X85879519Y-98104635D01*
X85859669Y-98093440D01*
X85851275Y-98087646D01*
X85828305Y-98078934D01*
X85792643Y-98065409D01*
X85789128Y-98063953D01*
X85731932Y-98038212D01*
X85731930Y-98038211D01*
X85731929Y-98038211D01*
X85721886Y-98036370D01*
X85699936Y-98030250D01*
X85690401Y-98026635D01*
X85690400Y-98026634D01*
X85690398Y-98026634D01*
X85690394Y-98026633D01*
X85637962Y-98020267D01*
X85628137Y-98019073D01*
X85624386Y-98018502D01*
X85583360Y-98010985D01*
X85562694Y-98007198D01*
X85562693Y-98007198D01*
X85500088Y-98010985D01*
X85496285Y-98011100D01*
X82534605Y-98011100D01*
X82466484Y-97991098D01*
X82460544Y-97987036D01*
X82379952Y-97928482D01*
X82205488Y-97850806D01*
X82018687Y-97811100D01*
X81827713Y-97811100D01*
X81640909Y-97850806D01*
X81515469Y-97906656D01*
X81445103Y-97916090D01*
X81380806Y-97885983D01*
X81375139Y-97880657D01*
X81365052Y-97870570D01*
X81214138Y-97777485D01*
X81090753Y-97736600D01*
X81045827Y-97721713D01*
X81045820Y-97721712D01*
X80941953Y-97711100D01*
X79890855Y-97711100D01*
X79786974Y-97721712D01*
X79618661Y-97777485D01*
X79467747Y-97870570D01*
X79467741Y-97870575D01*
X79342375Y-97995941D01*
X79342370Y-97995947D01*
X79249285Y-98146862D01*
X79193513Y-98315172D01*
X79193512Y-98315179D01*
X79182900Y-98419046D01*
X79182900Y-99020144D01*
X78881200Y-99020144D01*
X78881200Y-99011100D01*
X77545200Y-99011100D01*
X77477079Y-98991098D01*
X77430586Y-98937442D01*
X77419200Y-98885100D01*
X77419200Y-97736600D01*
X77927200Y-97736600D01*
X77927200Y-98503100D01*
X78881200Y-98503100D01*
X78881200Y-98444083D01*
X78870594Y-98340281D01*
X78870593Y-98340278D01*
X78814857Y-98172074D01*
X78721834Y-98021260D01*
X78721829Y-98021254D01*
X78596545Y-97895970D01*
X78596539Y-97895965D01*
X78445725Y-97802942D01*
X78277521Y-97747206D01*
X78277518Y-97747205D01*
X78173716Y-97736600D01*
X77927200Y-97736600D01*
X77419200Y-97736600D01*
X77172683Y-97736600D01*
X77068881Y-97747205D01*
X77068878Y-97747206D01*
X76900674Y-97802942D01*
X76749860Y-97895965D01*
X76749854Y-97895970D01*
X76624570Y-98021254D01*
X76624565Y-98021260D01*
X76531540Y-98172078D01*
X76493935Y-98285563D01*
X76453521Y-98343935D01*
X76387965Y-98371190D01*
X76318080Y-98358676D01*
X76266054Y-98310367D01*
X76254729Y-98285570D01*
X76215861Y-98168271D01*
X76123544Y-98018602D01*
X76123543Y-98018601D01*
X76123538Y-98018595D01*
X75999204Y-97894261D01*
X75999198Y-97894256D01*
X75960797Y-97870570D01*
X75849529Y-97801939D01*
X75849527Y-97801938D01*
X75849525Y-97801937D01*
X75793067Y-97783229D01*
X75734696Y-97742815D01*
X75707440Y-97677259D01*
X75706700Y-97663625D01*
X75706700Y-97257049D01*
X75708449Y-97241212D01*
X75708155Y-97241185D01*
X75708901Y-97233292D01*
X75706731Y-97164242D01*
X75706700Y-97162263D01*
X75706700Y-97133351D01*
X75706700Y-97133344D01*
X75705820Y-97126385D01*
X75705355Y-97120480D01*
X75703873Y-97073310D01*
X75698222Y-97053863D01*
X75694212Y-97034500D01*
X75691674Y-97014403D01*
X75674300Y-96970523D01*
X75672384Y-96964925D01*
X75659218Y-96919606D01*
X75648900Y-96902161D01*
X75640205Y-96884409D01*
X75632753Y-96865585D01*
X75632750Y-96865579D01*
X75605018Y-96827410D01*
X75601762Y-96822453D01*
X75577742Y-96781837D01*
X75577740Y-96781835D01*
X75577740Y-96781834D01*
X75563418Y-96767512D01*
X75550577Y-96752479D01*
X75538671Y-96736092D01*
X75531229Y-96729935D01*
X75502308Y-96706010D01*
X75497936Y-96702031D01*
X75419770Y-96623865D01*
X74054905Y-95259000D01*
X76577000Y-95259000D01*
X76577000Y-96053597D01*
X76583505Y-96114093D01*
X76634555Y-96250964D01*
X76634555Y-96250965D01*
X76722095Y-96367904D01*
X76839034Y-96455444D01*
X76975906Y-96506494D01*
X77036402Y-96512999D01*
X77036415Y-96513000D01*
X77281000Y-96513000D01*
X77789000Y-96513000D01*
X78033585Y-96513000D01*
X78033597Y-96512999D01*
X78094093Y-96506494D01*
X78094096Y-96506493D01*
X78125247Y-96494874D01*
X78196063Y-96489807D01*
X78213309Y-96494870D01*
X78245799Y-96506989D01*
X78245801Y-96506989D01*
X78245803Y-96506990D01*
X78306350Y-96513499D01*
X78306355Y-96513499D01*
X78306362Y-96513500D01*
X78306368Y-96513500D01*
X79303632Y-96513500D01*
X79303638Y-96513500D01*
X79303645Y-96513499D01*
X79303649Y-96513499D01*
X79364196Y-96506990D01*
X79364197Y-96506989D01*
X79364201Y-96506989D01*
X79395966Y-96495140D01*
X79466779Y-96490074D01*
X79484025Y-96495137D01*
X79515799Y-96506989D01*
X79515801Y-96506989D01*
X79515803Y-96506990D01*
X79576350Y-96513499D01*
X79576355Y-96513499D01*
X79576362Y-96513500D01*
X79576368Y-96513500D01*
X80573632Y-96513500D01*
X80573638Y-96513500D01*
X80573645Y-96513499D01*
X80573649Y-96513499D01*
X80634196Y-96506990D01*
X80634196Y-96506989D01*
X80634201Y-96506989D01*
X80665966Y-96495140D01*
X80736780Y-96490075D01*
X80754029Y-96495139D01*
X80785799Y-96506989D01*
X80785800Y-96506989D01*
X80785804Y-96506990D01*
X80846350Y-96513499D01*
X80846355Y-96513499D01*
X80846362Y-96513500D01*
X80846368Y-96513500D01*
X81843632Y-96513500D01*
X81843638Y-96513500D01*
X81843645Y-96513499D01*
X81843649Y-96513499D01*
X81904196Y-96506990D01*
X81904197Y-96506989D01*
X81904201Y-96506989D01*
X81935966Y-96495140D01*
X82006779Y-96490074D01*
X82024025Y-96495137D01*
X82055799Y-96506989D01*
X82055801Y-96506989D01*
X82055803Y-96506990D01*
X82116350Y-96513499D01*
X82116355Y-96513499D01*
X82116362Y-96513500D01*
X82116368Y-96513500D01*
X83113632Y-96513500D01*
X83113638Y-96513500D01*
X83113645Y-96513499D01*
X83113649Y-96513499D01*
X83174196Y-96506990D01*
X83174197Y-96506989D01*
X83174201Y-96506989D01*
X83205966Y-96495140D01*
X83276779Y-96490074D01*
X83294025Y-96495137D01*
X83325799Y-96506989D01*
X83325801Y-96506989D01*
X83325803Y-96506990D01*
X83386350Y-96513499D01*
X83386355Y-96513499D01*
X83386362Y-96513500D01*
X83386368Y-96513500D01*
X84383632Y-96513500D01*
X84383638Y-96513500D01*
X84383645Y-96513499D01*
X84383649Y-96513499D01*
X84444196Y-96506990D01*
X84444196Y-96506989D01*
X84444201Y-96506989D01*
X84475966Y-96495140D01*
X84546780Y-96490075D01*
X84564029Y-96495139D01*
X84595799Y-96506989D01*
X84595800Y-96506989D01*
X84595804Y-96506990D01*
X84656350Y-96513499D01*
X84656355Y-96513499D01*
X84656362Y-96513500D01*
X84656368Y-96513500D01*
X85653632Y-96513500D01*
X85653638Y-96513500D01*
X85653645Y-96513499D01*
X85653649Y-96513499D01*
X85714196Y-96506990D01*
X85714197Y-96506989D01*
X85714201Y-96506989D01*
X85745966Y-96495140D01*
X85816779Y-96490074D01*
X85834025Y-96495137D01*
X85865799Y-96506989D01*
X85865801Y-96506989D01*
X85865803Y-96506990D01*
X85926350Y-96513499D01*
X85926355Y-96513499D01*
X85926362Y-96513500D01*
X85926368Y-96513500D01*
X86923632Y-96513500D01*
X86923638Y-96513500D01*
X86923645Y-96513499D01*
X86923649Y-96513499D01*
X86984196Y-96506990D01*
X86984197Y-96506989D01*
X86984201Y-96506989D01*
X87015966Y-96495140D01*
X87086779Y-96490074D01*
X87104025Y-96495137D01*
X87135799Y-96506989D01*
X87135801Y-96506989D01*
X87135803Y-96506990D01*
X87196350Y-96513499D01*
X87196355Y-96513499D01*
X87196362Y-96513500D01*
X87196368Y-96513500D01*
X88193632Y-96513500D01*
X88193638Y-96513500D01*
X88193645Y-96513499D01*
X88193649Y-96513499D01*
X88254196Y-96506990D01*
X88254196Y-96506989D01*
X88254201Y-96506989D01*
X88285966Y-96495140D01*
X88356780Y-96490075D01*
X88374029Y-96495139D01*
X88405799Y-96506989D01*
X88405800Y-96506989D01*
X88405804Y-96506990D01*
X88466350Y-96513499D01*
X88466355Y-96513499D01*
X88466362Y-96513500D01*
X88466368Y-96513500D01*
X89463632Y-96513500D01*
X89463638Y-96513500D01*
X89463645Y-96513499D01*
X89463649Y-96513499D01*
X89524196Y-96506990D01*
X89524199Y-96506989D01*
X89524201Y-96506989D01*
X89661204Y-96455889D01*
X89661799Y-96455444D01*
X89778261Y-96368261D01*
X89865887Y-96251207D01*
X89865887Y-96251206D01*
X89865889Y-96251204D01*
X89916989Y-96114201D01*
X89923500Y-96053638D01*
X89923500Y-93956362D01*
X89917001Y-93895906D01*
X89916990Y-93895803D01*
X89916988Y-93895795D01*
X89865978Y-93759035D01*
X89865889Y-93758796D01*
X89865888Y-93758794D01*
X89865887Y-93758792D01*
X89778261Y-93641738D01*
X89661207Y-93554112D01*
X89661202Y-93554110D01*
X89524204Y-93503011D01*
X89524196Y-93503009D01*
X89463649Y-93496500D01*
X89463638Y-93496500D01*
X88466362Y-93496500D01*
X88466350Y-93496500D01*
X88405804Y-93503009D01*
X88405801Y-93503010D01*
X88374030Y-93514860D01*
X88303214Y-93519923D01*
X88285970Y-93514860D01*
X88263199Y-93506367D01*
X88254201Y-93503011D01*
X88254200Y-93503010D01*
X88254198Y-93503010D01*
X88254195Y-93503009D01*
X88193649Y-93496500D01*
X88193638Y-93496500D01*
X87738950Y-93496500D01*
X87670829Y-93476498D01*
X87624336Y-93422842D01*
X87614232Y-93352568D01*
X87643726Y-93287988D01*
X87649855Y-93281405D01*
X90026405Y-90904854D01*
X90088717Y-90870829D01*
X90159532Y-90875893D01*
X90216368Y-90918440D01*
X90241179Y-90984960D01*
X90241500Y-90993949D01*
X90241500Y-91963649D01*
X90248009Y-92024195D01*
X90248010Y-92024198D01*
X90259860Y-92055970D01*
X90264923Y-92126786D01*
X90259860Y-92144029D01*
X90248010Y-92175802D01*
X90241500Y-92236350D01*
X90241500Y-93233649D01*
X90248009Y-93294195D01*
X90248010Y-93294198D01*
X90259860Y-93325970D01*
X90264923Y-93396786D01*
X90259860Y-93414030D01*
X90248010Y-93445801D01*
X90248009Y-93445804D01*
X90241500Y-93506350D01*
X90241500Y-94503649D01*
X90248009Y-94564196D01*
X90248011Y-94564204D01*
X90299110Y-94701202D01*
X90299112Y-94701207D01*
X90386738Y-94818261D01*
X90503792Y-94905887D01*
X90503794Y-94905888D01*
X90503796Y-94905889D01*
X90562875Y-94927924D01*
X90640795Y-94956988D01*
X90640803Y-94956990D01*
X90701350Y-94963499D01*
X90701355Y-94963499D01*
X90701362Y-94963500D01*
X90701368Y-94963500D01*
X92798632Y-94963500D01*
X92798638Y-94963500D01*
X92798645Y-94963499D01*
X92798649Y-94963499D01*
X92859196Y-94956990D01*
X92859199Y-94956989D01*
X92859201Y-94956989D01*
X92996204Y-94905889D01*
X93113261Y-94818261D01*
X93200889Y-94701204D01*
X93251989Y-94564201D01*
X93258500Y-94503638D01*
X93258500Y-93506362D01*
X93255560Y-93479015D01*
X93251990Y-93445804D01*
X93251989Y-93445800D01*
X93240140Y-93414031D01*
X93235076Y-93343215D01*
X93240139Y-93325970D01*
X93251989Y-93294201D01*
X93258500Y-93233638D01*
X93258500Y-92236362D01*
X93258499Y-92236350D01*
X93251990Y-92175803D01*
X93251989Y-92175802D01*
X93251989Y-92175799D01*
X93240139Y-92144030D01*
X93235075Y-92073216D01*
X93240137Y-92055974D01*
X93251989Y-92024201D01*
X93258500Y-91963638D01*
X93258500Y-90966362D01*
X93258499Y-90966350D01*
X93251990Y-90905803D01*
X93251989Y-90905801D01*
X93251989Y-90905799D01*
X93240140Y-90874033D01*
X93235074Y-90803221D01*
X93240137Y-90785974D01*
X93251989Y-90754201D01*
X93258500Y-90693638D01*
X93258500Y-89696362D01*
X93252581Y-89641302D01*
X93251990Y-89635803D01*
X93251989Y-89635801D01*
X93251989Y-89635799D01*
X93240140Y-89604033D01*
X93235074Y-89533221D01*
X93240137Y-89515974D01*
X93251989Y-89484201D01*
X93258500Y-89423638D01*
X93258500Y-88426362D01*
X93257098Y-88413321D01*
X93251990Y-88365804D01*
X93251989Y-88365800D01*
X93251531Y-88364573D01*
X93240139Y-88334030D01*
X93235076Y-88263215D01*
X93240138Y-88245972D01*
X93251989Y-88214201D01*
X93258500Y-88153638D01*
X93258500Y-87156362D01*
X93258499Y-87156350D01*
X93251990Y-87095803D01*
X93251989Y-87095801D01*
X93251989Y-87095799D01*
X93240140Y-87064033D01*
X93235074Y-86993221D01*
X93240137Y-86975974D01*
X93251989Y-86944201D01*
X93258500Y-86883638D01*
X93258500Y-85886362D01*
X93251989Y-85825803D01*
X93251989Y-85825800D01*
X93240140Y-85794031D01*
X93235076Y-85723215D01*
X93240139Y-85705970D01*
X93251989Y-85674201D01*
X93256755Y-85629875D01*
X93258499Y-85613649D01*
X93258500Y-85613632D01*
X93258500Y-84616367D01*
X93258499Y-84616350D01*
X93251990Y-84555803D01*
X93251989Y-84555801D01*
X93251989Y-84555799D01*
X93240140Y-84524033D01*
X93235074Y-84453221D01*
X93240137Y-84435974D01*
X93251989Y-84404201D01*
X93258500Y-84343638D01*
X93258500Y-83346362D01*
X93258499Y-83346350D01*
X93251990Y-83285804D01*
X93251989Y-83285800D01*
X93240140Y-83254031D01*
X93235076Y-83183215D01*
X93240139Y-83165970D01*
X93251989Y-83134201D01*
X93258500Y-83073638D01*
X93258500Y-82076362D01*
X93258499Y-82076350D01*
X93251990Y-82015803D01*
X93251989Y-82015801D01*
X93251989Y-82015799D01*
X93240140Y-81984033D01*
X93235074Y-81913221D01*
X93240137Y-81895974D01*
X93251989Y-81864201D01*
X93258500Y-81803638D01*
X93258500Y-80806362D01*
X93258499Y-80806350D01*
X93251990Y-80745803D01*
X93251989Y-80745801D01*
X93251989Y-80745799D01*
X93240140Y-80714033D01*
X93235074Y-80643221D01*
X93240137Y-80625974D01*
X93251989Y-80594201D01*
X93258500Y-80533638D01*
X93258500Y-79536362D01*
X93258048Y-79532158D01*
X93251990Y-79475803D01*
X93251989Y-79475801D01*
X93251989Y-79475799D01*
X93240140Y-79444033D01*
X93235074Y-79373221D01*
X93240137Y-79355974D01*
X93251989Y-79324201D01*
X93258500Y-79263638D01*
X93258500Y-78266362D01*
X93251990Y-78205804D01*
X93251990Y-78205803D01*
X93251989Y-78205801D01*
X93251989Y-78205799D01*
X93239873Y-78173317D01*
X93234807Y-78102505D01*
X93239874Y-78085247D01*
X93251493Y-78054096D01*
X93251494Y-78054093D01*
X93257999Y-77993597D01*
X93258000Y-77993585D01*
X93258000Y-77749000D01*
X90242000Y-77749000D01*
X90242000Y-77993585D01*
X90242001Y-77993605D01*
X90242907Y-78002033D01*
X90230300Y-78071902D01*
X90181921Y-78123863D01*
X90117629Y-78141500D01*
X89580224Y-78141500D01*
X89512103Y-78121498D01*
X89506163Y-78117436D01*
X89356752Y-78008882D01*
X89182288Y-77931206D01*
X88995487Y-77891500D01*
X88804513Y-77891500D01*
X88617707Y-77931207D01*
X88615873Y-77931803D01*
X88614753Y-77931834D01*
X88611253Y-77932579D01*
X88611116Y-77931938D01*
X88544905Y-77933827D01*
X88484109Y-77897162D01*
X88456367Y-77848544D01*
X88436241Y-77782196D01*
X88436239Y-77782193D01*
X88436239Y-77782191D01*
X88433873Y-77776479D01*
X88435797Y-77775681D01*
X88423259Y-77715494D01*
X88447985Y-77650082D01*
X88450889Y-77646204D01*
X88501989Y-77509201D01*
X88508500Y-77448638D01*
X88508500Y-77241000D01*
X90242000Y-77241000D01*
X91496000Y-77241000D01*
X91496000Y-76537000D01*
X92004000Y-76537000D01*
X92004000Y-77241000D01*
X93258000Y-77241000D01*
X93258000Y-76996414D01*
X93257999Y-76996402D01*
X93251494Y-76935906D01*
X93200444Y-76799035D01*
X93200444Y-76799034D01*
X93112904Y-76682095D01*
X92995965Y-76594555D01*
X92859093Y-76543505D01*
X92798597Y-76537000D01*
X92004000Y-76537000D01*
X91496000Y-76537000D01*
X90701402Y-76537000D01*
X90640906Y-76543505D01*
X90504035Y-76594555D01*
X90504034Y-76594555D01*
X90387095Y-76682095D01*
X90299555Y-76799034D01*
X90299555Y-76799035D01*
X90248505Y-76935906D01*
X90242000Y-76996402D01*
X90242000Y-77241000D01*
X88508500Y-77241000D01*
X88508500Y-76351362D01*
X88508499Y-76351350D01*
X88501990Y-76290803D01*
X88501988Y-76290795D01*
X88450889Y-76153797D01*
X88450887Y-76153792D01*
X88363261Y-76036738D01*
X88246207Y-75949112D01*
X88246202Y-75949110D01*
X88109204Y-75898011D01*
X88109196Y-75898009D01*
X88048649Y-75891500D01*
X88048638Y-75891500D01*
X86951362Y-75891500D01*
X86951350Y-75891500D01*
X86890803Y-75898009D01*
X86890795Y-75898011D01*
X86753797Y-75949110D01*
X86753792Y-75949112D01*
X86636738Y-76036738D01*
X86549112Y-76153792D01*
X86549110Y-76153797D01*
X86498011Y-76290795D01*
X86498009Y-76290803D01*
X86491500Y-76351350D01*
X86491500Y-77448649D01*
X86498009Y-77509196D01*
X86498011Y-77509204D01*
X86549110Y-77646202D01*
X86549112Y-77646206D01*
X86552015Y-77650084D01*
X86576824Y-77716605D01*
X86564248Y-77775706D01*
X86566126Y-77776484D01*
X86563757Y-77782202D01*
X86506090Y-77972305D01*
X86486620Y-78169996D01*
X86486620Y-78170003D01*
X86506090Y-78367694D01*
X86506091Y-78367700D01*
X86506092Y-78367701D01*
X86563758Y-78557804D01*
X86563759Y-78557804D01*
X86657406Y-78733007D01*
X86659041Y-78735453D01*
X86659503Y-78736929D01*
X86660323Y-78738463D01*
X86660032Y-78738618D01*
X86680255Y-78803206D01*
X86661471Y-78871672D01*
X86659046Y-78875446D01*
X86657826Y-78877271D01*
X86564224Y-79052387D01*
X86564223Y-79052389D01*
X86523692Y-79185999D01*
X86523693Y-79186000D01*
X87289941Y-79186000D01*
X87287871Y-79187195D01*
X87214199Y-79274993D01*
X87175000Y-79382694D01*
X87175000Y-79497306D01*
X87214199Y-79605007D01*
X87287871Y-79692805D01*
X87289941Y-79694000D01*
X86523693Y-79694000D01*
X86564223Y-79827610D01*
X86564224Y-79827612D01*
X86657821Y-80002718D01*
X86659037Y-80004538D01*
X86659381Y-80005637D01*
X86660742Y-80008183D01*
X86660259Y-80008441D01*
X86680255Y-80072290D01*
X86661475Y-80140758D01*
X86659050Y-80144533D01*
X86657406Y-80146993D01*
X86563759Y-80322195D01*
X86506090Y-80512305D01*
X86486620Y-80709996D01*
X86486620Y-80710003D01*
X86506090Y-80907694D01*
X86563759Y-81097804D01*
X86657407Y-81273008D01*
X86658740Y-81275003D01*
X86659116Y-81276206D01*
X86660323Y-81278463D01*
X86659894Y-81278691D01*
X86679952Y-81342757D01*
X86661166Y-81411223D01*
X86658740Y-81414997D01*
X86657407Y-81416991D01*
X86563759Y-81592195D01*
X86506090Y-81782305D01*
X86486620Y-81979996D01*
X86486620Y-81980003D01*
X86506090Y-82177694D01*
X86563759Y-82367804D01*
X86657407Y-82543008D01*
X86658740Y-82545003D01*
X86659116Y-82546206D01*
X86660323Y-82548463D01*
X86659894Y-82548691D01*
X86679952Y-82612757D01*
X86661166Y-82681223D01*
X86658740Y-82684997D01*
X86657407Y-82686991D01*
X86563759Y-82862195D01*
X86506090Y-83052305D01*
X86486620Y-83249996D01*
X86486620Y-83250003D01*
X86506090Y-83447694D01*
X86506091Y-83447700D01*
X86506092Y-83447701D01*
X86563759Y-83637804D01*
X86657405Y-83813004D01*
X86657408Y-83813008D01*
X86658736Y-83814995D01*
X86659113Y-83816199D01*
X86660323Y-83818463D01*
X86659893Y-83818692D01*
X86679952Y-83882748D01*
X86661170Y-83951215D01*
X86658745Y-83954989D01*
X86657408Y-83956989D01*
X86563759Y-84132195D01*
X86506090Y-84322305D01*
X86486620Y-84519996D01*
X86486620Y-84520003D01*
X86506090Y-84717694D01*
X86563759Y-84907804D01*
X86657407Y-85083008D01*
X86658740Y-85085003D01*
X86659116Y-85086206D01*
X86660323Y-85088463D01*
X86659894Y-85088691D01*
X86679952Y-85152757D01*
X86661166Y-85221223D01*
X86658740Y-85224997D01*
X86657407Y-85226991D01*
X86563759Y-85402195D01*
X86506090Y-85592305D01*
X86486620Y-85789996D01*
X86486620Y-85790003D01*
X86506090Y-85987694D01*
X86563759Y-86177804D01*
X86657407Y-86353008D01*
X86658740Y-86355003D01*
X86659116Y-86356206D01*
X86660323Y-86358463D01*
X86659894Y-86358691D01*
X86679952Y-86422757D01*
X86661166Y-86491223D01*
X86658740Y-86494997D01*
X86657407Y-86496991D01*
X86563759Y-86672195D01*
X86506090Y-86862305D01*
X86486620Y-87059996D01*
X86486620Y-87060003D01*
X86506090Y-87257694D01*
X86506091Y-87257700D01*
X86506092Y-87257701D01*
X86563759Y-87447804D01*
X86657405Y-87623004D01*
X86657408Y-87623008D01*
X86658736Y-87624995D01*
X86659113Y-87626199D01*
X86660323Y-87628463D01*
X86659893Y-87628692D01*
X86679952Y-87692748D01*
X86661170Y-87761215D01*
X86658745Y-87764989D01*
X86657408Y-87766989D01*
X86563759Y-87942195D01*
X86506090Y-88132306D01*
X86500344Y-88190650D01*
X86473761Y-88256483D01*
X86415807Y-88297492D01*
X86374951Y-88304300D01*
X80795814Y-88304300D01*
X80779579Y-88302507D01*
X80779556Y-88302757D01*
X80771663Y-88302011D01*
X80699823Y-88304269D01*
X80697844Y-88304300D01*
X80667768Y-88304300D01*
X80667763Y-88304300D01*
X80667754Y-88304301D01*
X80660419Y-88305227D01*
X80654505Y-88305693D01*
X80605372Y-88307237D01*
X80605370Y-88307237D01*
X80605369Y-88307238D01*
X80584771Y-88313221D01*
X80565421Y-88317228D01*
X80544140Y-88319916D01*
X80544135Y-88319918D01*
X80498414Y-88338019D01*
X80492799Y-88339941D01*
X80445606Y-88353652D01*
X80445599Y-88353655D01*
X80427137Y-88364573D01*
X80409391Y-88373266D01*
X80389448Y-88381162D01*
X80389445Y-88381164D01*
X80349670Y-88410062D01*
X80344708Y-88413321D01*
X80302394Y-88438346D01*
X80287222Y-88453517D01*
X80272196Y-88466350D01*
X80254845Y-88478957D01*
X80254843Y-88478958D01*
X80254843Y-88478959D01*
X80233615Y-88504617D01*
X80174782Y-88544354D01*
X80136533Y-88550300D01*
X80117713Y-88550300D01*
X79930911Y-88590006D01*
X79756447Y-88667682D01*
X79601944Y-88779935D01*
X79474165Y-88921848D01*
X79474158Y-88921858D01*
X79378676Y-89087238D01*
X79378673Y-89087245D01*
X79319657Y-89268872D01*
X79299696Y-89458800D01*
X79319657Y-89648727D01*
X79334679Y-89694958D01*
X79378673Y-89830356D01*
X79378676Y-89830361D01*
X79474158Y-89995741D01*
X79474165Y-89995751D01*
X79601944Y-90137664D01*
X79601947Y-90137666D01*
X79756448Y-90249918D01*
X79930912Y-90327594D01*
X80117713Y-90367300D01*
X80308687Y-90367300D01*
X80495488Y-90327594D01*
X80669952Y-90249918D01*
X80824453Y-90137666D01*
X80872904Y-90083856D01*
X80952234Y-89995751D01*
X80952235Y-89995749D01*
X80952240Y-89995744D01*
X81047727Y-89830356D01*
X81087365Y-89708362D01*
X81127439Y-89649758D01*
X81192836Y-89622121D01*
X81207198Y-89621300D01*
X81818281Y-89621300D01*
X81886402Y-89641302D01*
X81932895Y-89694958D01*
X81943590Y-89734126D01*
X81950694Y-89801719D01*
X81961257Y-89902227D01*
X81991326Y-89994770D01*
X82020273Y-90083856D01*
X82020276Y-90083861D01*
X82115758Y-90249241D01*
X82115765Y-90249251D01*
X82243544Y-90391164D01*
X82243547Y-90391166D01*
X82398048Y-90503418D01*
X82572512Y-90581094D01*
X82759313Y-90620800D01*
X82880950Y-90620800D01*
X82949071Y-90640802D01*
X82970045Y-90657705D01*
X84016725Y-91704385D01*
X84026938Y-91717131D01*
X84027131Y-91716972D01*
X84032183Y-91723079D01*
X84084578Y-91772281D01*
X84085967Y-91773627D01*
X84107267Y-91794927D01*
X84107275Y-91794933D01*
X84113117Y-91799465D01*
X84117633Y-91803322D01*
X84153467Y-91836972D01*
X84172269Y-91847308D01*
X84188775Y-91858151D01*
X84205732Y-91871304D01*
X84250854Y-91890829D01*
X84256180Y-91893439D01*
X84299259Y-91917123D01*
X84299263Y-91917124D01*
X84320032Y-91922456D01*
X84338734Y-91928859D01*
X84358424Y-91937380D01*
X84406995Y-91945072D01*
X84412789Y-91946271D01*
X84460412Y-91958500D01*
X84481859Y-91958500D01*
X84501567Y-91960050D01*
X84522752Y-91963406D01*
X84560480Y-91959839D01*
X84571694Y-91958780D01*
X84577627Y-91958500D01*
X86806050Y-91958500D01*
X86874171Y-91978502D01*
X86920664Y-92032158D01*
X86930768Y-92102432D01*
X86901274Y-92167012D01*
X86895145Y-92173595D01*
X86546145Y-92522595D01*
X86483833Y-92556621D01*
X86457050Y-92559500D01*
X80487024Y-92559500D01*
X80418903Y-92539498D01*
X80412963Y-92535436D01*
X80263552Y-92426882D01*
X80089088Y-92349206D01*
X79902287Y-92309500D01*
X79711313Y-92309500D01*
X79524511Y-92349206D01*
X79350047Y-92426882D01*
X79195544Y-92539135D01*
X79067765Y-92681048D01*
X79067758Y-92681058D01*
X78972276Y-92846438D01*
X78972273Y-92846445D01*
X78913257Y-93028072D01*
X78893296Y-93217999D01*
X78893296Y-93218000D01*
X78907940Y-93357330D01*
X78895168Y-93427168D01*
X78846666Y-93479015D01*
X78782630Y-93496500D01*
X78306350Y-93496500D01*
X78245804Y-93503009D01*
X78245801Y-93503010D01*
X78213314Y-93515127D01*
X78142498Y-93520190D01*
X78125254Y-93515126D01*
X78094098Y-93503506D01*
X78094096Y-93503505D01*
X78033597Y-93497000D01*
X77789000Y-93497000D01*
X77789000Y-96513000D01*
X77281000Y-96513000D01*
X77281000Y-95259000D01*
X76577000Y-95259000D01*
X74054905Y-95259000D01*
X73974500Y-95178595D01*
X73940474Y-95116283D01*
X73945539Y-95045468D01*
X73988086Y-94988632D01*
X74054606Y-94963821D01*
X74063595Y-94963500D01*
X75798632Y-94963500D01*
X75798638Y-94963500D01*
X75798645Y-94963499D01*
X75798649Y-94963499D01*
X75859196Y-94956990D01*
X75859199Y-94956989D01*
X75859201Y-94956989D01*
X75996204Y-94905889D01*
X76113261Y-94818261D01*
X76163612Y-94751000D01*
X76577000Y-94751000D01*
X77281000Y-94751000D01*
X77281000Y-93497000D01*
X77036402Y-93497000D01*
X76975906Y-93503505D01*
X76839035Y-93554555D01*
X76839034Y-93554555D01*
X76722095Y-93642095D01*
X76634555Y-93759034D01*
X76634555Y-93759035D01*
X76583505Y-93895906D01*
X76577000Y-93956402D01*
X76577000Y-94751000D01*
X76163612Y-94751000D01*
X76200889Y-94701204D01*
X76251989Y-94564201D01*
X76258500Y-94503638D01*
X76258500Y-93506362D01*
X76255560Y-93479015D01*
X76251990Y-93445803D01*
X76251989Y-93445802D01*
X76251989Y-93445801D01*
X76251989Y-93445799D01*
X76240139Y-93414030D01*
X76235075Y-93343216D01*
X76240137Y-93325974D01*
X76251989Y-93294201D01*
X76258500Y-93233638D01*
X76258500Y-92236362D01*
X76258499Y-92236350D01*
X76251990Y-92175803D01*
X76251989Y-92175802D01*
X76251989Y-92175799D01*
X76240139Y-92144030D01*
X76235075Y-92073216D01*
X76240137Y-92055974D01*
X76251989Y-92024201D01*
X76258500Y-91963638D01*
X76258500Y-90966362D01*
X76258499Y-90966350D01*
X76251990Y-90905803D01*
X76251989Y-90905801D01*
X76251989Y-90905799D01*
X76240140Y-90874033D01*
X76235074Y-90803221D01*
X76240137Y-90785974D01*
X76251989Y-90754201D01*
X76258500Y-90693638D01*
X76258500Y-89696362D01*
X76252581Y-89641302D01*
X76251990Y-89635803D01*
X76251989Y-89635801D01*
X76251989Y-89635799D01*
X76240140Y-89604033D01*
X76235074Y-89533221D01*
X76240137Y-89515974D01*
X76251989Y-89484201D01*
X76258500Y-89423638D01*
X76258500Y-88426362D01*
X76257098Y-88413321D01*
X76251990Y-88365803D01*
X76251989Y-88365802D01*
X76251989Y-88365799D01*
X76240139Y-88334030D01*
X76235075Y-88263216D01*
X76240137Y-88245974D01*
X76251989Y-88214201D01*
X76258500Y-88153638D01*
X76258500Y-87156362D01*
X76258499Y-87156350D01*
X76251990Y-87095803D01*
X76251989Y-87095801D01*
X76251989Y-87095799D01*
X76240140Y-87064033D01*
X76235074Y-86993221D01*
X76240137Y-86975974D01*
X76251989Y-86944201D01*
X76258500Y-86883638D01*
X76258500Y-85886362D01*
X76251990Y-85825804D01*
X76251990Y-85825803D01*
X76251989Y-85825802D01*
X76251989Y-85825801D01*
X76251989Y-85825799D01*
X76240139Y-85794030D01*
X76235075Y-85723216D01*
X76240137Y-85705974D01*
X76251989Y-85674201D01*
X76256755Y-85629875D01*
X76258499Y-85613649D01*
X76258500Y-85613632D01*
X76258500Y-85249000D01*
X79242000Y-85249000D01*
X79242000Y-87543597D01*
X79248505Y-87604093D01*
X79299555Y-87740964D01*
X79299555Y-87740965D01*
X79387095Y-87857904D01*
X79504034Y-87945444D01*
X79640906Y-87996494D01*
X79701402Y-88002999D01*
X79701415Y-88003000D01*
X81996000Y-88003000D01*
X81996000Y-85249000D01*
X82504000Y-85249000D01*
X82504000Y-88003000D01*
X84798585Y-88003000D01*
X84798597Y-88002999D01*
X84859093Y-87996494D01*
X84995964Y-87945444D01*
X84995965Y-87945444D01*
X85112904Y-87857904D01*
X85200444Y-87740965D01*
X85200444Y-87740964D01*
X85251494Y-87604093D01*
X85257999Y-87543597D01*
X85258000Y-87543585D01*
X85258000Y-85249000D01*
X82504000Y-85249000D01*
X81996000Y-85249000D01*
X79242000Y-85249000D01*
X76258500Y-85249000D01*
X76258500Y-84741000D01*
X79242000Y-84741000D01*
X81996000Y-84741000D01*
X81996000Y-81987000D01*
X82504000Y-81987000D01*
X82504000Y-84741000D01*
X85258000Y-84741000D01*
X85258000Y-82446414D01*
X85257999Y-82446402D01*
X85251494Y-82385906D01*
X85200444Y-82249035D01*
X85200444Y-82249034D01*
X85112904Y-82132095D01*
X84995965Y-82044555D01*
X84859093Y-81993505D01*
X84798597Y-81987000D01*
X82504000Y-81987000D01*
X81996000Y-81987000D01*
X79701402Y-81987000D01*
X79640906Y-81993505D01*
X79504035Y-82044555D01*
X79504034Y-82044555D01*
X79387095Y-82132095D01*
X79299555Y-82249034D01*
X79299555Y-82249035D01*
X79248505Y-82385906D01*
X79242000Y-82446402D01*
X79242000Y-84741000D01*
X76258500Y-84741000D01*
X76258500Y-84616367D01*
X76258499Y-84616350D01*
X76251990Y-84555803D01*
X76251989Y-84555801D01*
X76251989Y-84555799D01*
X76240140Y-84524033D01*
X76235074Y-84453221D01*
X76240137Y-84435974D01*
X76251989Y-84404201D01*
X76258500Y-84343638D01*
X76258500Y-83346362D01*
X76258499Y-83346350D01*
X76251990Y-83285803D01*
X76251989Y-83285802D01*
X76251989Y-83285799D01*
X76240139Y-83254030D01*
X76235075Y-83183216D01*
X76240137Y-83165974D01*
X76251989Y-83134201D01*
X76258500Y-83073638D01*
X76258500Y-82076362D01*
X76258499Y-82076350D01*
X76251990Y-82015803D01*
X76251989Y-82015801D01*
X76251989Y-82015799D01*
X76240140Y-81984033D01*
X76235074Y-81913221D01*
X76240137Y-81895974D01*
X76251989Y-81864201D01*
X76258500Y-81803638D01*
X76258500Y-80806362D01*
X76258499Y-80806350D01*
X76258319Y-80802989D01*
X76259583Y-80802921D01*
X76271280Y-80738098D01*
X76319659Y-80686137D01*
X76383951Y-80668500D01*
X80033274Y-80668500D01*
X80101395Y-80688502D01*
X80126910Y-80710190D01*
X80188744Y-80778864D01*
X80188747Y-80778866D01*
X80343248Y-80891118D01*
X80517712Y-80968794D01*
X80704513Y-81008500D01*
X80895487Y-81008500D01*
X81082288Y-80968794D01*
X81256752Y-80891118D01*
X81411253Y-80778866D01*
X81473089Y-80710190D01*
X81539034Y-80636951D01*
X81539035Y-80636949D01*
X81539040Y-80636944D01*
X81634527Y-80471556D01*
X81693542Y-80289928D01*
X81713504Y-80100000D01*
X81693542Y-79910072D01*
X81634527Y-79728444D01*
X81539040Y-79563056D01*
X81539038Y-79563054D01*
X81539034Y-79563048D01*
X81411255Y-79421135D01*
X81256752Y-79308882D01*
X81082288Y-79231206D01*
X80895487Y-79191500D01*
X80704513Y-79191500D01*
X80517711Y-79231206D01*
X80343247Y-79308882D01*
X80248892Y-79377436D01*
X80182024Y-79401294D01*
X80174831Y-79401500D01*
X77520007Y-79401500D01*
X77451886Y-79381498D01*
X77405393Y-79327842D01*
X77395289Y-79257568D01*
X77410888Y-79212500D01*
X77412423Y-79209839D01*
X77434527Y-79171556D01*
X77493542Y-78989928D01*
X77513504Y-78800000D01*
X77493542Y-78610072D01*
X77434527Y-78428444D01*
X77339040Y-78263056D01*
X77339038Y-78263054D01*
X77339034Y-78263048D01*
X77211255Y-78121135D01*
X77056752Y-78008882D01*
X76882288Y-77931206D01*
X76695487Y-77891500D01*
X76504513Y-77891500D01*
X76504511Y-77891500D01*
X76410196Y-77911547D01*
X76339406Y-77906145D01*
X76282773Y-77863328D01*
X76258280Y-77796690D01*
X76258000Y-77788300D01*
X76258000Y-77749000D01*
X73242000Y-77749000D01*
X73242000Y-77993597D01*
X73248505Y-78054096D01*
X73248506Y-78054098D01*
X73260126Y-78085254D01*
X73265190Y-78156069D01*
X73260127Y-78173314D01*
X73248010Y-78205801D01*
X73248009Y-78205804D01*
X73241500Y-78266350D01*
X73241500Y-79263649D01*
X73248009Y-79324195D01*
X73248010Y-79324198D01*
X73259860Y-79355970D01*
X73264923Y-79426786D01*
X73259860Y-79444030D01*
X73248010Y-79475801D01*
X73248009Y-79475804D01*
X73241500Y-79536350D01*
X73241500Y-80533649D01*
X73248009Y-80594195D01*
X73248010Y-80594198D01*
X73259860Y-80625970D01*
X73264923Y-80696786D01*
X73259860Y-80714030D01*
X73248010Y-80745801D01*
X73248009Y-80745804D01*
X73241500Y-80806350D01*
X73241500Y-81803649D01*
X73248009Y-81864195D01*
X73248010Y-81864198D01*
X73259860Y-81895970D01*
X73264923Y-81966786D01*
X73259860Y-81984030D01*
X73248010Y-82015801D01*
X73248009Y-82015804D01*
X73241500Y-82076350D01*
X73241500Y-83073649D01*
X73248009Y-83134195D01*
X73248010Y-83134198D01*
X73259860Y-83165970D01*
X73264923Y-83236786D01*
X73259860Y-83254029D01*
X73248010Y-83285802D01*
X73241500Y-83346350D01*
X73241500Y-84343649D01*
X73248009Y-84404195D01*
X73248010Y-84404198D01*
X73259860Y-84435970D01*
X73264923Y-84506786D01*
X73259860Y-84524030D01*
X73248010Y-84555801D01*
X73248009Y-84555804D01*
X73241499Y-84616364D01*
X73241465Y-84617006D01*
X73241415Y-84617146D01*
X73241139Y-84619717D01*
X73240531Y-84619651D01*
X73217843Y-84683958D01*
X73204741Y-84699353D01*
X72811333Y-85092760D01*
X72798901Y-85102720D01*
X72799089Y-85102947D01*
X72792982Y-85107999D01*
X72745694Y-85158355D01*
X72744319Y-85159774D01*
X72723863Y-85180231D01*
X72719560Y-85185777D01*
X72715714Y-85190279D01*
X72683417Y-85224674D01*
X72683411Y-85224683D01*
X72673651Y-85242435D01*
X72662803Y-85258950D01*
X72650386Y-85274958D01*
X72631645Y-85318264D01*
X72629034Y-85323594D01*
X72606305Y-85364939D01*
X72606303Y-85364944D01*
X72601267Y-85384559D01*
X72594864Y-85403262D01*
X72586819Y-85421852D01*
X72579437Y-85468456D01*
X72578233Y-85474268D01*
X72566500Y-85519968D01*
X72566500Y-85540223D01*
X72564949Y-85559933D01*
X72561780Y-85579942D01*
X72561780Y-85579943D01*
X72000500Y-85579943D01*
X72000500Y-77241000D01*
X73242000Y-77241000D01*
X74496000Y-77241000D01*
X74496000Y-76537000D01*
X75004000Y-76537000D01*
X75004000Y-77241000D01*
X76258000Y-77241000D01*
X76258000Y-76996414D01*
X76257999Y-76996402D01*
X76251494Y-76935906D01*
X76200444Y-76799035D01*
X76200444Y-76799034D01*
X76112904Y-76682095D01*
X75995965Y-76594555D01*
X75859093Y-76543505D01*
X75798597Y-76537000D01*
X75004000Y-76537000D01*
X74496000Y-76537000D01*
X73701402Y-76537000D01*
X73640906Y-76543505D01*
X73504035Y-76594555D01*
X73504034Y-76594555D01*
X73387095Y-76682095D01*
X73299555Y-76799034D01*
X73299555Y-76799035D01*
X73248505Y-76935906D01*
X73242000Y-76996402D01*
X73242000Y-77241000D01*
X72000500Y-77241000D01*
X72000500Y-76002756D01*
X72000740Y-75997264D01*
X72001846Y-75984610D01*
X72004480Y-75954508D01*
X72016902Y-75828389D01*
X72020583Y-75808156D01*
X72038160Y-75742557D01*
X72038662Y-75740799D01*
X72066643Y-75648558D01*
X72073010Y-75631916D01*
X72104392Y-75564618D01*
X72105896Y-75561609D01*
X72150744Y-75477703D01*
X72154684Y-75471292D01*
X72200970Y-75405189D01*
X72203849Y-75401392D01*
X72263086Y-75329212D01*
X72267200Y-75324672D01*
X72324672Y-75267200D01*
X72329212Y-75263086D01*
X72401392Y-75203849D01*
X72405189Y-75200970D01*
X72471292Y-75154684D01*
X72477703Y-75150744D01*
X72561609Y-75105896D01*
X72564618Y-75104392D01*
X72631916Y-75073010D01*
X72648558Y-75066643D01*
X72740799Y-75038662D01*
X72742557Y-75038160D01*
X72808156Y-75020583D01*
X72828391Y-75016902D01*
X72954511Y-75004479D01*
X72976849Y-75002525D01*
X72997266Y-75000740D01*
X73002758Y-75000500D01*
X93997242Y-75000500D01*
X94002735Y-75000740D01*
G37*
%TD.AperFunction*%
%TD*%
M02*
