%TF.GenerationSoftware,KiCad,Pcbnew,(6.0.5)*%
%TF.CreationDate,2023-03-06T17:13:12-03:00*%
%TF.ProjectId,ESP32_MicroSD,45535033-325f-44d6-9963-726f53442e6b,rev?*%
%TF.SameCoordinates,Original*%
%TF.FileFunction,Copper,L1,Top*%
%TF.FilePolarity,Positive*%
%FSLAX46Y46*%
G04 Gerber Fmt 4.6, Leading zero omitted, Abs format (unit mm)*
G04 Created by KiCad (PCBNEW (6.0.5)) date 2023-03-06 17:13:12*
%MOMM*%
%LPD*%
G01*
G04 APERTURE LIST*
G04 Aperture macros list*
%AMRoundRect*
0 Rectangle with rounded corners*
0 $1 Rounding radius*
0 $2 $3 $4 $5 $6 $7 $8 $9 X,Y pos of 4 corners*
0 Add a 4 corners polygon primitive as box body*
4,1,4,$2,$3,$4,$5,$6,$7,$8,$9,$2,$3,0*
0 Add four circle primitives for the rounded corners*
1,1,$1+$1,$2,$3*
1,1,$1+$1,$4,$5*
1,1,$1+$1,$6,$7*
1,1,$1+$1,$8,$9*
0 Add four rect primitives between the rounded corners*
20,1,$1+$1,$2,$3,$4,$5,0*
20,1,$1+$1,$4,$5,$6,$7,0*
20,1,$1+$1,$6,$7,$8,$9,0*
20,1,$1+$1,$8,$9,$2,$3,0*%
G04 Aperture macros list end*
%TA.AperFunction,ComponentPad*%
%ADD10R,1.000000X1.000000*%
%TD*%
%TA.AperFunction,ComponentPad*%
%ADD11O,1.000000X1.000000*%
%TD*%
%TA.AperFunction,SMDPad,CuDef*%
%ADD12RoundRect,0.250000X-0.475000X0.250000X-0.475000X-0.250000X0.475000X-0.250000X0.475000X0.250000X0*%
%TD*%
%TA.AperFunction,SMDPad,CuDef*%
%ADD13R,2.000000X0.900000*%
%TD*%
%TA.AperFunction,SMDPad,CuDef*%
%ADD14R,0.900000X2.000000*%
%TD*%
%TA.AperFunction,SMDPad,CuDef*%
%ADD15R,5.000000X5.000000*%
%TD*%
%TA.AperFunction,SMDPad,CuDef*%
%ADD16R,0.800000X1.000000*%
%TD*%
%TA.AperFunction,SMDPad,CuDef*%
%ADD17R,1.500000X0.700000*%
%TD*%
%TA.AperFunction,SMDPad,CuDef*%
%ADD18RoundRect,0.250000X0.450000X-0.262500X0.450000X0.262500X-0.450000X0.262500X-0.450000X-0.262500X0*%
%TD*%
%TA.AperFunction,SMDPad,CuDef*%
%ADD19RoundRect,0.243750X0.456250X-0.243750X0.456250X0.243750X-0.456250X0.243750X-0.456250X-0.243750X0*%
%TD*%
%TA.AperFunction,ViaPad*%
%ADD20C,0.800000*%
%TD*%
%TA.AperFunction,Conductor*%
%ADD21C,0.250000*%
%TD*%
%TA.AperFunction,Conductor*%
%ADD22C,0.300000*%
%TD*%
%TA.AperFunction,Conductor*%
%ADD23C,0.400000*%
%TD*%
%TA.AperFunction,Conductor*%
%ADD24C,0.500000*%
%TD*%
G04 APERTURE END LIST*
D10*
%TO.P,J1,9,Pin_9*%
%TO.N,Net-(J1-Pad9)*%
X87500000Y-76900000D03*
D11*
%TO.P,J1,10,Pin_10*%
%TO.N,unconnected-(J1-Pad10)*%
X87500000Y-78170000D03*
%TO.P,J1,11,Pin_11*%
%TO.N,GND*%
X87500000Y-79440000D03*
%TO.P,J1,12,Pin_12*%
%TO.N,unconnected-(J1-Pad12)*%
X87500000Y-80710000D03*
%TO.P,J1,13,Pin_13*%
%TO.N,/RX*%
X87500000Y-81980000D03*
%TO.P,J1,14,Pin_14*%
%TO.N,/TX*%
X87500000Y-83250000D03*
%TO.P,J1,15,Pin_15*%
%TO.N,unconnected-(J1-Pad15)*%
X87500000Y-84520000D03*
%TO.P,J1,16,Pin_16*%
%TO.N,unconnected-(J1-Pad16)*%
X87500000Y-85790000D03*
%TO.P,J1,17,Pin_17*%
%TO.N,unconnected-(J1-Pad17)*%
X87500000Y-87060000D03*
%TO.P,J1,18,Pin_18*%
%TO.N,unconnected-(J1-Pad18)*%
X87500000Y-88330000D03*
%TD*%
D12*
%TO.P,C2,1*%
%TO.N,+3V3*%
X80500000Y-99850000D03*
%TO.P,C2,2*%
%TO.N,GND*%
X80500000Y-101750000D03*
%TD*%
D13*
%TO.P,U1,1,GND*%
%TO.N,GND*%
X74750000Y-77495000D03*
%TO.P,U1,2,VDD*%
%TO.N,+3V3*%
X74750000Y-78765000D03*
%TO.P,U1,3,EN*%
%TO.N,Net-(JP1-Pad2)*%
X74750000Y-80035000D03*
%TO.P,U1,4,SENSOR_VP*%
%TO.N,unconnected-(U1-Pad4)*%
X74750000Y-81305000D03*
%TO.P,U1,5,SENSOR_VN*%
%TO.N,unconnected-(U1-Pad5)*%
X74750000Y-82575000D03*
%TO.P,U1,6,IO34*%
%TO.N,unconnected-(U1-Pad6)*%
X74750000Y-83845000D03*
%TO.P,U1,7,IO35*%
%TO.N,Net-(D1-Pad2)*%
X74750000Y-85115000D03*
%TO.P,U1,8,IO32*%
%TO.N,unconnected-(U1-Pad8)*%
X74750000Y-86385000D03*
%TO.P,U1,9,IO33*%
%TO.N,unconnected-(U1-Pad9)*%
X74750000Y-87655000D03*
%TO.P,U1,10,IO25*%
%TO.N,unconnected-(U1-Pad10)*%
X74750000Y-88925000D03*
%TO.P,U1,11,IO26*%
%TO.N,unconnected-(U1-Pad11)*%
X74750000Y-90195000D03*
%TO.P,U1,12,IO27*%
%TO.N,unconnected-(U1-Pad12)*%
X74750000Y-91465000D03*
%TO.P,U1,13,IO14*%
%TO.N,unconnected-(U1-Pad13)*%
X74750000Y-92735000D03*
%TO.P,U1,14,IO12*%
%TO.N,unconnected-(U1-Pad14)*%
X74750000Y-94005000D03*
D14*
%TO.P,U1,15,GND*%
%TO.N,GND*%
X77535000Y-95005000D03*
%TO.P,U1,16,IO13*%
%TO.N,unconnected-(U1-Pad16)*%
X78805000Y-95005000D03*
%TO.P,U1,17,SHD/SD2*%
%TO.N,unconnected-(U1-Pad17)*%
X80075000Y-95005000D03*
%TO.P,U1,18,SWP/SD3*%
%TO.N,unconnected-(U1-Pad18)*%
X81345000Y-95005000D03*
%TO.P,U1,19,SCS/CMD*%
%TO.N,unconnected-(U1-Pad19)*%
X82615000Y-95005000D03*
%TO.P,U1,20,SCK/CLK*%
%TO.N,unconnected-(U1-Pad20)*%
X83885000Y-95005000D03*
%TO.P,U1,21,SDO/SD0*%
%TO.N,unconnected-(U1-Pad21)*%
X85155000Y-95005000D03*
%TO.P,U1,22,SDI/SD1*%
%TO.N,unconnected-(U1-Pad22)*%
X86425000Y-95005000D03*
%TO.P,U1,23,IO15*%
%TO.N,unconnected-(U1-Pad23)*%
X87695000Y-95005000D03*
%TO.P,U1,24,IO2*%
%TO.N,unconnected-(U1-Pad24)*%
X88965000Y-95005000D03*
D13*
%TO.P,U1,25,IO0*%
%TO.N,unconnected-(U1-Pad25)*%
X91750000Y-94005000D03*
%TO.P,U1,26,IO4*%
%TO.N,unconnected-(U1-Pad26)*%
X91750000Y-92735000D03*
%TO.P,U1,27,IO16*%
%TO.N,unconnected-(U1-Pad27)*%
X91750000Y-91465000D03*
%TO.P,U1,28,IO17*%
%TO.N,unconnected-(U1-Pad28)*%
X91750000Y-90195000D03*
%TO.P,U1,29,IO5*%
%TO.N,/IO5*%
X91750000Y-88925000D03*
%TO.P,U1,30,IO18*%
%TO.N,/IO18*%
X91750000Y-87655000D03*
%TO.P,U1,31,IO19*%
%TO.N,/IO19*%
X91750000Y-86385000D03*
%TO.P,U1,32,NC*%
%TO.N,unconnected-(U1-Pad32)*%
X91750000Y-85115000D03*
%TO.P,U1,33,IO21*%
%TO.N,unconnected-(U1-Pad33)*%
X91750000Y-83845000D03*
%TO.P,U1,34,RXD0/IO3*%
%TO.N,/RX*%
X91750000Y-82575000D03*
%TO.P,U1,35,TXD0/IO1*%
%TO.N,/TX*%
X91750000Y-81305000D03*
%TO.P,U1,36,IO22*%
%TO.N,unconnected-(U1-Pad36)*%
X91750000Y-80035000D03*
%TO.P,U1,37,IO23*%
%TO.N,/IO23*%
X91750000Y-78765000D03*
%TO.P,U1,38,GND*%
%TO.N,GND*%
X91750000Y-77495000D03*
D15*
%TO.P,U1,39,GND*%
X82250000Y-84995000D03*
%TD*%
D16*
%TO.P,SW1,*%
%TO.N,*%
X90920000Y-97550000D03*
X93130000Y-97550000D03*
X93130000Y-104850000D03*
X90920000Y-104850000D03*
D17*
%TO.P,SW1,1,A*%
%TO.N,+3V3*%
X90270000Y-103450000D03*
%TO.P,SW1,2,B*%
%TO.N,Net-(J1-Pad9)*%
X90270000Y-100450000D03*
%TO.P,SW1,3,C*%
%TO.N,unconnected-(SW1-Pad3)*%
X90270000Y-98950000D03*
%TD*%
D18*
%TO.P,R5,1*%
%TO.N,Net-(D1-Pad1)*%
X77600000Y-101712500D03*
%TO.P,R5,2*%
%TO.N,GND*%
X77600000Y-99887500D03*
%TD*%
D19*
%TO.P,D1,1,K*%
%TO.N,Net-(D1-Pad1)*%
X75000000Y-101737500D03*
%TO.P,D1,2,A*%
%TO.N,Net-(D1-Pad2)*%
X75000000Y-99862500D03*
%TD*%
D20*
%TO.N,/RX*%
X89800000Y-82524500D03*
X89800000Y-80900000D03*
%TO.N,Net-(JP1-Pad2)*%
X80800000Y-80100000D03*
%TO.N,+3V3*%
X76600000Y-78800000D03*
X88550000Y-101750000D03*
X81850000Y-99850000D03*
%TO.N,/IO19*%
X76600000Y-91100000D03*
%TO.N,/IO18*%
X78350008Y-91149992D03*
%TO.N,/IO23*%
X80680000Y-91120000D03*
X89800000Y-78800000D03*
X88600000Y-84600000D03*
%TO.N,/IO5*%
X84350000Y-92200000D03*
%TO.N,Net-(J1-Pad9)*%
X88600000Y-99600000D03*
%TD*%
D21*
%TO.N,/TX*%
X87500000Y-83250000D02*
X88950000Y-81800000D01*
X88950000Y-81800000D02*
X90400000Y-81800000D01*
X91745000Y-81300000D02*
X91750000Y-81305000D01*
X90400000Y-81800000D02*
X90900000Y-81300000D01*
X90900000Y-81300000D02*
X91745000Y-81300000D01*
%TO.N,/RX*%
X87720000Y-81980000D02*
X87500000Y-81980000D01*
X88800000Y-80900000D02*
X87720000Y-81980000D01*
X89800000Y-80900000D02*
X88800000Y-80900000D01*
X89850500Y-82575000D02*
X91750000Y-82575000D01*
X89800000Y-82524500D02*
X89850500Y-82575000D01*
D22*
%TO.N,/IO23*%
X87350000Y-90050000D02*
X82850000Y-90050000D01*
X82850000Y-90050000D02*
X81780000Y-91120000D01*
X88600000Y-88800000D02*
X87350000Y-90050000D01*
X88600000Y-84600000D02*
X88600000Y-88800000D01*
X81780000Y-91120000D02*
X80680000Y-91120000D01*
D21*
%TO.N,Net-(JP1-Pad2)*%
X80735000Y-80035000D02*
X80800000Y-80100000D01*
X74750000Y-80035000D02*
X80735000Y-80035000D01*
D23*
%TO.N,+3V3*%
X86650000Y-99850000D02*
X80500000Y-99850000D01*
D24*
X90270000Y-103450000D02*
X90250000Y-103450000D01*
X90250000Y-103450000D02*
X88550000Y-101750000D01*
D23*
X76600000Y-78800000D02*
X74785000Y-78800000D01*
X88550000Y-101750000D02*
X86650000Y-99850000D01*
X74785000Y-78800000D02*
X74750000Y-78765000D01*
D22*
%TO.N,/IO19*%
X77349511Y-90350489D02*
X78610459Y-90350489D01*
D21*
X91015000Y-86385000D02*
X91750000Y-86385000D01*
D22*
X83200000Y-90650000D02*
X87550000Y-90650000D01*
X89200000Y-88200000D02*
X91015000Y-86385000D01*
X76600000Y-91100000D02*
X77349511Y-90350489D01*
X89200000Y-89000000D02*
X89200000Y-88200000D01*
X87550000Y-90650000D02*
X89200000Y-89000000D01*
X80159970Y-91900000D02*
X81950000Y-91900000D01*
X81950000Y-91900000D02*
X83200000Y-90650000D01*
X78610459Y-90350489D02*
X80159970Y-91900000D01*
%TO.N,/IO18*%
X79800000Y-92500000D02*
X82250000Y-92500000D01*
X87700000Y-91300000D02*
X89800000Y-89200000D01*
X78400000Y-91100000D02*
X79800000Y-92500000D01*
D21*
X78350008Y-91149992D02*
X78400000Y-91100000D01*
D22*
X89800000Y-89200000D02*
X89800000Y-88800000D01*
D21*
X90945000Y-87655000D02*
X91750000Y-87655000D01*
D22*
X82250000Y-92500000D02*
X83450000Y-91300000D01*
X83450000Y-91300000D02*
X87700000Y-91300000D01*
X89800000Y-88800000D02*
X90945000Y-87655000D01*
D21*
%TO.N,/IO23*%
X91715000Y-78800000D02*
X91750000Y-78765000D01*
D22*
X89800000Y-78800000D02*
X91715000Y-78800000D01*
D21*
%TO.N,/IO5*%
X91075000Y-88925000D02*
X91750000Y-88925000D01*
D22*
X84350000Y-92200000D02*
X87800000Y-92200000D01*
X87800000Y-92200000D02*
X91075000Y-88925000D01*
D21*
%TO.N,GND*%
X77575000Y-100137500D02*
X77600000Y-100112500D01*
D24*
%TO.N,Net-(J1-Pad9)*%
X88600000Y-99600000D02*
X89450000Y-100450000D01*
X89450000Y-100450000D02*
X90270000Y-100450000D01*
D21*
%TO.N,Net-(D1-Pad1)*%
X77575000Y-101737500D02*
X77600000Y-101712500D01*
X75000000Y-101737500D02*
X77575000Y-101737500D01*
%TO.N,Net-(D1-Pad2)*%
X74750000Y-85115000D02*
X73685000Y-85115000D01*
X73200000Y-95300000D02*
X75000000Y-97100000D01*
X73200000Y-85600000D02*
X73200000Y-95300000D01*
X73685000Y-85115000D02*
X73200000Y-85600000D01*
X75000000Y-97100000D02*
X75000000Y-99687980D01*
%TD*%
%TA.AperFunction,Conductor*%
%TO.N,GND*%
G36*
X93970018Y-75510000D02*
G01*
X93984852Y-75512310D01*
X93984855Y-75512310D01*
X93993724Y-75513691D01*
X94002626Y-75512527D01*
X94002750Y-75512511D01*
X94033192Y-75512240D01*
X94040621Y-75513077D01*
X94095264Y-75519234D01*
X94122771Y-75525513D01*
X94199853Y-75552485D01*
X94225274Y-75564727D01*
X94294426Y-75608178D01*
X94316485Y-75625770D01*
X94374230Y-75683515D01*
X94391822Y-75705574D01*
X94435273Y-75774726D01*
X94447515Y-75800147D01*
X94474487Y-75877228D01*
X94480766Y-75904736D01*
X94487018Y-75960226D01*
X94486923Y-75975868D01*
X94487800Y-75975879D01*
X94487690Y-75984851D01*
X94486309Y-75993724D01*
X94487473Y-76002626D01*
X94487473Y-76002628D01*
X94490436Y-76025283D01*
X94491500Y-76041621D01*
X94491500Y-105950633D01*
X94490000Y-105970018D01*
X94486309Y-105993724D01*
X94487473Y-106002626D01*
X94487489Y-106002750D01*
X94487760Y-106033192D01*
X94485430Y-106053870D01*
X94480766Y-106095264D01*
X94474487Y-106122771D01*
X94447515Y-106199853D01*
X94435273Y-106225274D01*
X94391822Y-106294426D01*
X94374230Y-106316485D01*
X94316485Y-106374230D01*
X94294426Y-106391822D01*
X94225274Y-106435273D01*
X94199853Y-106447515D01*
X94122772Y-106474487D01*
X94095264Y-106480766D01*
X94039774Y-106487018D01*
X94024132Y-106486923D01*
X94024121Y-106487800D01*
X94015149Y-106487690D01*
X94006276Y-106486309D01*
X93997374Y-106487473D01*
X93997372Y-106487473D01*
X93986385Y-106488910D01*
X93974714Y-106490436D01*
X93958379Y-106491500D01*
X73049367Y-106491500D01*
X73029982Y-106490000D01*
X73015148Y-106487690D01*
X73015145Y-106487690D01*
X73006276Y-106486309D01*
X72997374Y-106487473D01*
X72997250Y-106487489D01*
X72966808Y-106487760D01*
X72946130Y-106485430D01*
X72904736Y-106480766D01*
X72877229Y-106474487D01*
X72800147Y-106447515D01*
X72774726Y-106435273D01*
X72705574Y-106391822D01*
X72683515Y-106374230D01*
X72625770Y-106316485D01*
X72608178Y-106294426D01*
X72564727Y-106225274D01*
X72552485Y-106199853D01*
X72525513Y-106122772D01*
X72519234Y-106095266D01*
X72513170Y-106041451D01*
X72512888Y-106016640D01*
X72513576Y-106012552D01*
X72513729Y-106000000D01*
X72509773Y-105972376D01*
X72508500Y-105954514D01*
X72508500Y-95813200D01*
X72528502Y-95745079D01*
X72582158Y-95698586D01*
X72652432Y-95688482D01*
X72717012Y-95717976D01*
X72726352Y-95726949D01*
X72729868Y-95730694D01*
X72734528Y-95737107D01*
X72768605Y-95765298D01*
X72777384Y-95773288D01*
X74329595Y-97325499D01*
X74363621Y-97387811D01*
X74366500Y-97414594D01*
X74366500Y-98794056D01*
X74346498Y-98862177D01*
X74292842Y-98908670D01*
X74280377Y-98913579D01*
X74229427Y-98930578D01*
X74229425Y-98930579D01*
X74222474Y-98932898D01*
X74073311Y-99025203D01*
X73949383Y-99149347D01*
X73945543Y-99155577D01*
X73945542Y-99155578D01*
X73935369Y-99172082D01*
X73857339Y-99298671D01*
X73855034Y-99305619D01*
X73855034Y-99305620D01*
X73805683Y-99454409D01*
X73802115Y-99465165D01*
X73791500Y-99568769D01*
X73791501Y-100156230D01*
X73802384Y-100261129D01*
X73804563Y-100267660D01*
X73804564Y-100267665D01*
X73853990Y-100415811D01*
X73857898Y-100427526D01*
X73950203Y-100576689D01*
X74074347Y-100700617D01*
X74077270Y-100702419D01*
X74117408Y-100759029D01*
X74120642Y-100829952D01*
X74085018Y-100891364D01*
X74078622Y-100896916D01*
X74073311Y-100900203D01*
X73949383Y-101024347D01*
X73857339Y-101173671D01*
X73855034Y-101180619D01*
X73855034Y-101180620D01*
X73814576Y-101302598D01*
X73802115Y-101340165D01*
X73791500Y-101443769D01*
X73791501Y-102031230D01*
X73802384Y-102136129D01*
X73804563Y-102142660D01*
X73804564Y-102142665D01*
X73810778Y-102161290D01*
X73857898Y-102302526D01*
X73950203Y-102451689D01*
X74074347Y-102575617D01*
X74080577Y-102579457D01*
X74080578Y-102579458D01*
X74113986Y-102600051D01*
X74223671Y-102667661D01*
X74230619Y-102669966D01*
X74230620Y-102669966D01*
X74383634Y-102720719D01*
X74383636Y-102720719D01*
X74390165Y-102722885D01*
X74493769Y-102733500D01*
X74996096Y-102733500D01*
X75506230Y-102733499D01*
X75611129Y-102722616D01*
X75617660Y-102720437D01*
X75617665Y-102720436D01*
X75770578Y-102669420D01*
X75777526Y-102667102D01*
X75926689Y-102574797D01*
X76050617Y-102450653D01*
X76055259Y-102443123D01*
X76062802Y-102430885D01*
X76115574Y-102383391D01*
X76170062Y-102371000D01*
X76432835Y-102371000D01*
X76500956Y-102391002D01*
X76539978Y-102430695D01*
X76547669Y-102443123D01*
X76547673Y-102443128D01*
X76551522Y-102449348D01*
X76676697Y-102574305D01*
X76682927Y-102578145D01*
X76682928Y-102578146D01*
X76820090Y-102662694D01*
X76827262Y-102667115D01*
X76835858Y-102669966D01*
X76988611Y-102720632D01*
X76988613Y-102720632D01*
X76995139Y-102722797D01*
X77001975Y-102723497D01*
X77001978Y-102723498D01*
X77045031Y-102727909D01*
X77099600Y-102733500D01*
X78100400Y-102733500D01*
X78103646Y-102733163D01*
X78103650Y-102733163D01*
X78199308Y-102723238D01*
X78199312Y-102723237D01*
X78206166Y-102722526D01*
X78212702Y-102720345D01*
X78212704Y-102720345D01*
X78363707Y-102669966D01*
X78373946Y-102666550D01*
X78524348Y-102573478D01*
X78649305Y-102448303D01*
X78661286Y-102428866D01*
X78738275Y-102303968D01*
X78738276Y-102303966D01*
X78742115Y-102297738D01*
X78797797Y-102129861D01*
X78800086Y-102107526D01*
X78805609Y-102053614D01*
X78806277Y-102047095D01*
X79267001Y-102047095D01*
X79267338Y-102053614D01*
X79277257Y-102149206D01*
X79280149Y-102162600D01*
X79331588Y-102316784D01*
X79337761Y-102329962D01*
X79423063Y-102467807D01*
X79432099Y-102479208D01*
X79546829Y-102593739D01*
X79558240Y-102602751D01*
X79696243Y-102687816D01*
X79709424Y-102693963D01*
X79863710Y-102745138D01*
X79877086Y-102748005D01*
X79971438Y-102757672D01*
X79977854Y-102758000D01*
X80227885Y-102758000D01*
X80243124Y-102753525D01*
X80244329Y-102752135D01*
X80246000Y-102744452D01*
X80246000Y-102739884D01*
X80754000Y-102739884D01*
X80758475Y-102755123D01*
X80759865Y-102756328D01*
X80767548Y-102757999D01*
X81022095Y-102757999D01*
X81028614Y-102757662D01*
X81124206Y-102747743D01*
X81137600Y-102744851D01*
X81291784Y-102693412D01*
X81304962Y-102687239D01*
X81442807Y-102601937D01*
X81454208Y-102592901D01*
X81568739Y-102478171D01*
X81577751Y-102466760D01*
X81662816Y-102328757D01*
X81668963Y-102315576D01*
X81720138Y-102161290D01*
X81723005Y-102147914D01*
X81732672Y-102053562D01*
X81733000Y-102047146D01*
X81733000Y-102022115D01*
X81728525Y-102006876D01*
X81727135Y-102005671D01*
X81719452Y-102004000D01*
X80772115Y-102004000D01*
X80756876Y-102008475D01*
X80755671Y-102009865D01*
X80754000Y-102017548D01*
X80754000Y-102739884D01*
X80246000Y-102739884D01*
X80246000Y-102022115D01*
X80241525Y-102006876D01*
X80240135Y-102005671D01*
X80232452Y-102004000D01*
X79285116Y-102004000D01*
X79269877Y-102008475D01*
X79268672Y-102009865D01*
X79267001Y-102017548D01*
X79267001Y-102047095D01*
X78806277Y-102047095D01*
X78808500Y-102025400D01*
X78808500Y-101399600D01*
X78803436Y-101350794D01*
X78798238Y-101300692D01*
X78798237Y-101300688D01*
X78797526Y-101293834D01*
X78741550Y-101126054D01*
X78648478Y-100975652D01*
X78583028Y-100910316D01*
X78561537Y-100888862D01*
X78527458Y-100826579D01*
X78532461Y-100755759D01*
X78561382Y-100710671D01*
X78643739Y-100628171D01*
X78652751Y-100616760D01*
X78737816Y-100478757D01*
X78743963Y-100465576D01*
X78795138Y-100311290D01*
X78798005Y-100297914D01*
X78807672Y-100203562D01*
X78808000Y-100197146D01*
X78808000Y-100159615D01*
X78805294Y-100150400D01*
X79266500Y-100150400D01*
X79266837Y-100153646D01*
X79266837Y-100153650D01*
X79272741Y-100210547D01*
X79277474Y-100256166D01*
X79333450Y-100423946D01*
X79426522Y-100574348D01*
X79431704Y-100579521D01*
X79439641Y-100587444D01*
X79551697Y-100699305D01*
X79556235Y-100702102D01*
X79596824Y-100759353D01*
X79600054Y-100830276D01*
X79564428Y-100891687D01*
X79555932Y-100899062D01*
X79545793Y-100907098D01*
X79431261Y-101021829D01*
X79422249Y-101033240D01*
X79337184Y-101171243D01*
X79331037Y-101184424D01*
X79279862Y-101338710D01*
X79276995Y-101352086D01*
X79267328Y-101446438D01*
X79267000Y-101452855D01*
X79267000Y-101477885D01*
X79271475Y-101493124D01*
X79272865Y-101494329D01*
X79280548Y-101496000D01*
X81714884Y-101496000D01*
X81730123Y-101491525D01*
X81731328Y-101490135D01*
X81732999Y-101482452D01*
X81732999Y-101452905D01*
X81732662Y-101446386D01*
X81722743Y-101350794D01*
X81719851Y-101337400D01*
X81668412Y-101183216D01*
X81662239Y-101170038D01*
X81576937Y-101032193D01*
X81567901Y-101020792D01*
X81485112Y-100938147D01*
X81451033Y-100875864D01*
X81456036Y-100805044D01*
X81498533Y-100748172D01*
X81565032Y-100723303D01*
X81600327Y-100725727D01*
X81748056Y-100757128D01*
X81748061Y-100757128D01*
X81754513Y-100758500D01*
X81945487Y-100758500D01*
X81951939Y-100757128D01*
X81951944Y-100757128D01*
X82038888Y-100738647D01*
X82132288Y-100718794D01*
X82151074Y-100710430D01*
X82300722Y-100643803D01*
X82300724Y-100643802D01*
X82306752Y-100641118D01*
X82387344Y-100582564D01*
X82454211Y-100558706D01*
X82461405Y-100558500D01*
X86304340Y-100558500D01*
X86372461Y-100578502D01*
X86393435Y-100595405D01*
X87615335Y-101817305D01*
X87649361Y-101879617D01*
X87651550Y-101893228D01*
X87656458Y-101939928D01*
X87715473Y-102121556D01*
X87810960Y-102286944D01*
X87815378Y-102291851D01*
X87815379Y-102291852D01*
X87875339Y-102358444D01*
X87938747Y-102428866D01*
X88093248Y-102541118D01*
X88099276Y-102543802D01*
X88099278Y-102543803D01*
X88261681Y-102616109D01*
X88267712Y-102618794D01*
X88274167Y-102620166D01*
X88274176Y-102620169D01*
X88330772Y-102632199D01*
X88393669Y-102666350D01*
X88974595Y-103247276D01*
X89008621Y-103309588D01*
X89011500Y-103336371D01*
X89011500Y-103848134D01*
X89011869Y-103851531D01*
X89012185Y-103854440D01*
X89018255Y-103910316D01*
X89069385Y-104046705D01*
X89156739Y-104163261D01*
X89273295Y-104250615D01*
X89409684Y-104301745D01*
X89471866Y-104308500D01*
X89885500Y-104308500D01*
X89953621Y-104328502D01*
X90000114Y-104382158D01*
X90011500Y-104434500D01*
X90011500Y-105398134D01*
X90018255Y-105460316D01*
X90069385Y-105596705D01*
X90156739Y-105713261D01*
X90273295Y-105800615D01*
X90409684Y-105851745D01*
X90471866Y-105858500D01*
X91368134Y-105858500D01*
X91430316Y-105851745D01*
X91566705Y-105800615D01*
X91683261Y-105713261D01*
X91770615Y-105596705D01*
X91821745Y-105460316D01*
X91828500Y-105398134D01*
X92221500Y-105398134D01*
X92228255Y-105460316D01*
X92279385Y-105596705D01*
X92366739Y-105713261D01*
X92483295Y-105800615D01*
X92619684Y-105851745D01*
X92681866Y-105858500D01*
X93578134Y-105858500D01*
X93640316Y-105851745D01*
X93776705Y-105800615D01*
X93893261Y-105713261D01*
X93980615Y-105596705D01*
X94031745Y-105460316D01*
X94038500Y-105398134D01*
X94038500Y-104301866D01*
X94031745Y-104239684D01*
X93980615Y-104103295D01*
X93893261Y-103986739D01*
X93776705Y-103899385D01*
X93640316Y-103848255D01*
X93578134Y-103841500D01*
X92681866Y-103841500D01*
X92619684Y-103848255D01*
X92483295Y-103899385D01*
X92366739Y-103986739D01*
X92279385Y-104103295D01*
X92228255Y-104239684D01*
X92221500Y-104301866D01*
X92221500Y-105398134D01*
X91828500Y-105398134D01*
X91828500Y-104301866D01*
X91821745Y-104239684D01*
X91770615Y-104103295D01*
X91683261Y-103986739D01*
X91578935Y-103908551D01*
X91536420Y-103851692D01*
X91528500Y-103807725D01*
X91528500Y-103719207D01*
X91548502Y-103651086D01*
X91602158Y-103604593D01*
X91672432Y-103594489D01*
X91704538Y-103603569D01*
X91738684Y-103618345D01*
X91744931Y-103619650D01*
X91744934Y-103619651D01*
X91924557Y-103657176D01*
X91924562Y-103657177D01*
X91929293Y-103658165D01*
X91935685Y-103658500D01*
X92078663Y-103658500D01*
X92151653Y-103651086D01*
X92217378Y-103644410D01*
X92217379Y-103644410D01*
X92223727Y-103643765D01*
X92304843Y-103618345D01*
X92403451Y-103587444D01*
X92403456Y-103587442D01*
X92409541Y-103585535D01*
X92494696Y-103538332D01*
X92574271Y-103494223D01*
X92574274Y-103494221D01*
X92579850Y-103491130D01*
X92584691Y-103486981D01*
X92584695Y-103486978D01*
X92722855Y-103368560D01*
X92727698Y-103364409D01*
X92847046Y-103210547D01*
X92933018Y-103035829D01*
X92982102Y-102847393D01*
X92986805Y-102757662D01*
X92991959Y-102659317D01*
X92991959Y-102659313D01*
X92992293Y-102652936D01*
X92966019Y-102479208D01*
X92964130Y-102466715D01*
X92964130Y-102466714D01*
X92963175Y-102460401D01*
X92960972Y-102454415D01*
X92960971Y-102454409D01*
X92898140Y-102283640D01*
X92898138Y-102283635D01*
X92895937Y-102277654D01*
X92816296Y-102149206D01*
X92796688Y-102117582D01*
X92796687Y-102117581D01*
X92793326Y-102112160D01*
X92731798Y-102047095D01*
X92663919Y-101975315D01*
X92659534Y-101970678D01*
X92606243Y-101933363D01*
X92505259Y-101862654D01*
X92500025Y-101858989D01*
X92452013Y-101838212D01*
X92327175Y-101784190D01*
X92327171Y-101784189D01*
X92321316Y-101781655D01*
X92315069Y-101780350D01*
X92315066Y-101780349D01*
X92135443Y-101742824D01*
X92135438Y-101742823D01*
X92130707Y-101741835D01*
X92124315Y-101741500D01*
X91981337Y-101741500D01*
X91912049Y-101748538D01*
X91842622Y-101755590D01*
X91842621Y-101755590D01*
X91836273Y-101756235D01*
X91779939Y-101773889D01*
X91656549Y-101812556D01*
X91656544Y-101812558D01*
X91650459Y-101814465D01*
X91588417Y-101848856D01*
X91485729Y-101905777D01*
X91485726Y-101905779D01*
X91480150Y-101908870D01*
X91475309Y-101913019D01*
X91475305Y-101913022D01*
X91436588Y-101946207D01*
X91332302Y-102035591D01*
X91328391Y-102040633D01*
X91328390Y-102040634D01*
X91323339Y-102047146D01*
X91212954Y-102189453D01*
X91210138Y-102195176D01*
X91210136Y-102195179D01*
X91154249Y-102308757D01*
X91126982Y-102364171D01*
X91125373Y-102370347D01*
X91125371Y-102370353D01*
X91092315Y-102497260D01*
X91055788Y-102558140D01*
X90992146Y-102589606D01*
X90970384Y-102591500D01*
X90516371Y-102591500D01*
X90448250Y-102571498D01*
X90427276Y-102554595D01*
X89470125Y-101597444D01*
X89439387Y-101547285D01*
X89422724Y-101496000D01*
X89415392Y-101473436D01*
X89413364Y-101402468D01*
X89450027Y-101341671D01*
X89513739Y-101310345D01*
X89535225Y-101308500D01*
X91068134Y-101308500D01*
X91130316Y-101301745D01*
X91266705Y-101250615D01*
X91383261Y-101163261D01*
X91470615Y-101046705D01*
X91521745Y-100910316D01*
X91528500Y-100848134D01*
X91528500Y-100719207D01*
X91548502Y-100651086D01*
X91602158Y-100604593D01*
X91672432Y-100594489D01*
X91704538Y-100603569D01*
X91738684Y-100618345D01*
X91744931Y-100619650D01*
X91744934Y-100619651D01*
X91924557Y-100657176D01*
X91924562Y-100657177D01*
X91929293Y-100658165D01*
X91935685Y-100658500D01*
X92078663Y-100658500D01*
X92151653Y-100651086D01*
X92217378Y-100644410D01*
X92217379Y-100644410D01*
X92223727Y-100643765D01*
X92309901Y-100616760D01*
X92403451Y-100587444D01*
X92403456Y-100587442D01*
X92409541Y-100585535D01*
X92494695Y-100538333D01*
X92574271Y-100494223D01*
X92574274Y-100494221D01*
X92579850Y-100491130D01*
X92584691Y-100486981D01*
X92584695Y-100486978D01*
X92722855Y-100368560D01*
X92727698Y-100364409D01*
X92768902Y-100311290D01*
X92806589Y-100262704D01*
X92847046Y-100210547D01*
X92850484Y-100203562D01*
X92930200Y-100041556D01*
X92933018Y-100035829D01*
X92934628Y-100029649D01*
X92980492Y-99853575D01*
X92980492Y-99853572D01*
X92982102Y-99847393D01*
X92989772Y-99701035D01*
X92991959Y-99659317D01*
X92991959Y-99659313D01*
X92992293Y-99652936D01*
X92963175Y-99460401D01*
X92960972Y-99454415D01*
X92960971Y-99454409D01*
X92898140Y-99283640D01*
X92898138Y-99283635D01*
X92895937Y-99277654D01*
X92821248Y-99157193D01*
X92796688Y-99117582D01*
X92796687Y-99117581D01*
X92793326Y-99112160D01*
X92687920Y-99000695D01*
X92663919Y-98975315D01*
X92659534Y-98970678D01*
X92617864Y-98941500D01*
X92532987Y-98882069D01*
X92500025Y-98858989D01*
X92393203Y-98812763D01*
X92327175Y-98784190D01*
X92327171Y-98784189D01*
X92321316Y-98781655D01*
X92315069Y-98780350D01*
X92315066Y-98780349D01*
X92135443Y-98742824D01*
X92135438Y-98742823D01*
X92130707Y-98741835D01*
X92124315Y-98741500D01*
X91981337Y-98741500D01*
X91912049Y-98748538D01*
X91842622Y-98755590D01*
X91842621Y-98755590D01*
X91836273Y-98756235D01*
X91715585Y-98794056D01*
X91692179Y-98801391D01*
X91621194Y-98802675D01*
X91560783Y-98765378D01*
X91530127Y-98701341D01*
X91528500Y-98681157D01*
X91528500Y-98592275D01*
X91548502Y-98524154D01*
X91578935Y-98491449D01*
X91581290Y-98489684D01*
X91683261Y-98413261D01*
X91770615Y-98296705D01*
X91821745Y-98160316D01*
X91828500Y-98098134D01*
X92221500Y-98098134D01*
X92228255Y-98160316D01*
X92279385Y-98296705D01*
X92366739Y-98413261D01*
X92483295Y-98500615D01*
X92619684Y-98551745D01*
X92681866Y-98558500D01*
X93578134Y-98558500D01*
X93640316Y-98551745D01*
X93776705Y-98500615D01*
X93893261Y-98413261D01*
X93980615Y-98296705D01*
X94031745Y-98160316D01*
X94038500Y-98098134D01*
X94038500Y-97001866D01*
X94031745Y-96939684D01*
X93980615Y-96803295D01*
X93893261Y-96686739D01*
X93776705Y-96599385D01*
X93640316Y-96548255D01*
X93578134Y-96541500D01*
X92681866Y-96541500D01*
X92619684Y-96548255D01*
X92483295Y-96599385D01*
X92366739Y-96686739D01*
X92279385Y-96803295D01*
X92228255Y-96939684D01*
X92221500Y-97001866D01*
X92221500Y-98098134D01*
X91828500Y-98098134D01*
X91828500Y-97001866D01*
X91821745Y-96939684D01*
X91770615Y-96803295D01*
X91683261Y-96686739D01*
X91566705Y-96599385D01*
X91430316Y-96548255D01*
X91368134Y-96541500D01*
X90471866Y-96541500D01*
X90409684Y-96548255D01*
X90273295Y-96599385D01*
X90156739Y-96686739D01*
X90069385Y-96803295D01*
X90018255Y-96939684D01*
X90011500Y-97001866D01*
X90011500Y-97965500D01*
X89991498Y-98033621D01*
X89937842Y-98080114D01*
X89885500Y-98091500D01*
X89471866Y-98091500D01*
X89409684Y-98098255D01*
X89273295Y-98149385D01*
X89156739Y-98236739D01*
X89069385Y-98353295D01*
X89018255Y-98489684D01*
X89011500Y-98551866D01*
X89011500Y-98603073D01*
X88991498Y-98671194D01*
X88937842Y-98717687D01*
X88867568Y-98727791D01*
X88859303Y-98726320D01*
X88701944Y-98692872D01*
X88701939Y-98692872D01*
X88695487Y-98691500D01*
X88504513Y-98691500D01*
X88498061Y-98692872D01*
X88498056Y-98692872D01*
X88411113Y-98711353D01*
X88317712Y-98731206D01*
X88311682Y-98733891D01*
X88311681Y-98733891D01*
X88149278Y-98806197D01*
X88149276Y-98806198D01*
X88143248Y-98808882D01*
X88137907Y-98812762D01*
X88137906Y-98812763D01*
X88087843Y-98849136D01*
X87988747Y-98921134D01*
X87984326Y-98926044D01*
X87984325Y-98926045D01*
X87911700Y-99006704D01*
X87860960Y-99063056D01*
X87813192Y-99145792D01*
X87783167Y-99197798D01*
X87765473Y-99228444D01*
X87706458Y-99410072D01*
X87705768Y-99416633D01*
X87705768Y-99416635D01*
X87687048Y-99594748D01*
X87660035Y-99660405D01*
X87601813Y-99701035D01*
X87530868Y-99703738D01*
X87472643Y-99670673D01*
X87171450Y-99369480D01*
X87165596Y-99363215D01*
X87165201Y-99362762D01*
X87127561Y-99319615D01*
X87075280Y-99282871D01*
X87069986Y-99278939D01*
X87025693Y-99244209D01*
X87019718Y-99239524D01*
X87012802Y-99236401D01*
X87010516Y-99235017D01*
X86995835Y-99226643D01*
X86993475Y-99225378D01*
X86987261Y-99221010D01*
X86980182Y-99218250D01*
X86980180Y-99218249D01*
X86927725Y-99197798D01*
X86921656Y-99195247D01*
X86863427Y-99168955D01*
X86855960Y-99167571D01*
X86853405Y-99166770D01*
X86837152Y-99162141D01*
X86834572Y-99161478D01*
X86827491Y-99158718D01*
X86819960Y-99157727D01*
X86819958Y-99157726D01*
X86790339Y-99153827D01*
X86764139Y-99150378D01*
X86757641Y-99149348D01*
X86694814Y-99137704D01*
X86687234Y-99138141D01*
X86687233Y-99138141D01*
X86632608Y-99141291D01*
X86625354Y-99141500D01*
X82461405Y-99141500D01*
X82393284Y-99121498D01*
X82387344Y-99117436D01*
X82312094Y-99062763D01*
X82312093Y-99062762D01*
X82306752Y-99058882D01*
X82300724Y-99056198D01*
X82300722Y-99056197D01*
X82138319Y-98983891D01*
X82138318Y-98983891D01*
X82132288Y-98981206D01*
X82038887Y-98961353D01*
X81951944Y-98942872D01*
X81951939Y-98942872D01*
X81945487Y-98941500D01*
X81754513Y-98941500D01*
X81748061Y-98942872D01*
X81748056Y-98942872D01*
X81634475Y-98967015D01*
X81567712Y-98981206D01*
X81561679Y-98983892D01*
X81561676Y-98983893D01*
X81551320Y-98988504D01*
X81540777Y-98993198D01*
X81470411Y-99002633D01*
X81423412Y-98985352D01*
X81303968Y-98911725D01*
X81303966Y-98911724D01*
X81297738Y-98907885D01*
X81193066Y-98873167D01*
X81136389Y-98854368D01*
X81136387Y-98854368D01*
X81129861Y-98852203D01*
X81123025Y-98851503D01*
X81123022Y-98851502D01*
X81079969Y-98847091D01*
X81025400Y-98841500D01*
X79974600Y-98841500D01*
X79971354Y-98841837D01*
X79971350Y-98841837D01*
X79875692Y-98851762D01*
X79875688Y-98851763D01*
X79868834Y-98852474D01*
X79862298Y-98854655D01*
X79862296Y-98854655D01*
X79771450Y-98884964D01*
X79701054Y-98908450D01*
X79550652Y-99001522D01*
X79545479Y-99006704D01*
X79528230Y-99023983D01*
X79425695Y-99126697D01*
X79421855Y-99132927D01*
X79421854Y-99132928D01*
X79366505Y-99222721D01*
X79332885Y-99277262D01*
X79277203Y-99445139D01*
X79266500Y-99549600D01*
X79266500Y-100150400D01*
X78805294Y-100150400D01*
X78803525Y-100144376D01*
X78802135Y-100143171D01*
X78794452Y-100141500D01*
X77472000Y-100141500D01*
X77403879Y-100121498D01*
X77357386Y-100067842D01*
X77346000Y-100015500D01*
X77346000Y-99615385D01*
X77854000Y-99615385D01*
X77858475Y-99630624D01*
X77859865Y-99631829D01*
X77867548Y-99633500D01*
X78789884Y-99633500D01*
X78805123Y-99629025D01*
X78806328Y-99627635D01*
X78807999Y-99619952D01*
X78807999Y-99577905D01*
X78807662Y-99571386D01*
X78797743Y-99475794D01*
X78794851Y-99462400D01*
X78743412Y-99308216D01*
X78737239Y-99295038D01*
X78651937Y-99157193D01*
X78642901Y-99145792D01*
X78528171Y-99031261D01*
X78516760Y-99022249D01*
X78378757Y-98937184D01*
X78365576Y-98931037D01*
X78211290Y-98879862D01*
X78197914Y-98876995D01*
X78103562Y-98867328D01*
X78097145Y-98867000D01*
X77872115Y-98867000D01*
X77856876Y-98871475D01*
X77855671Y-98872865D01*
X77854000Y-98880548D01*
X77854000Y-99615385D01*
X77346000Y-99615385D01*
X77346000Y-98885116D01*
X77341525Y-98869877D01*
X77340135Y-98868672D01*
X77332452Y-98867001D01*
X77102905Y-98867001D01*
X77096386Y-98867338D01*
X77000794Y-98877257D01*
X76987400Y-98880149D01*
X76833216Y-98931588D01*
X76820038Y-98937761D01*
X76682193Y-99023063D01*
X76670792Y-99032099D01*
X76556261Y-99146829D01*
X76547249Y-99158240D01*
X76462184Y-99296243D01*
X76456037Y-99309424D01*
X76420759Y-99415783D01*
X76380328Y-99474142D01*
X76314764Y-99501379D01*
X76244882Y-99488845D01*
X76192870Y-99440521D01*
X76181642Y-99415991D01*
X76144420Y-99304422D01*
X76142102Y-99297474D01*
X76049797Y-99148311D01*
X75925653Y-99024383D01*
X75776329Y-98932339D01*
X75719831Y-98913599D01*
X75661472Y-98873167D01*
X75634236Y-98807603D01*
X75633500Y-98794006D01*
X75633500Y-97178763D01*
X75634027Y-97167579D01*
X75635701Y-97160091D01*
X75633562Y-97092032D01*
X75633500Y-97088075D01*
X75633500Y-97060144D01*
X75632994Y-97056138D01*
X75632061Y-97044292D01*
X75630922Y-97008037D01*
X75630673Y-97000110D01*
X75625022Y-96980658D01*
X75621014Y-96961306D01*
X75619468Y-96949068D01*
X75619467Y-96949066D01*
X75618474Y-96941203D01*
X75602194Y-96900086D01*
X75598359Y-96888885D01*
X75586018Y-96846406D01*
X75581985Y-96839587D01*
X75581983Y-96839582D01*
X75575707Y-96828971D01*
X75567010Y-96811221D01*
X75559552Y-96792383D01*
X75533571Y-96756623D01*
X75527053Y-96746701D01*
X75508578Y-96715460D01*
X75508574Y-96715455D01*
X75504542Y-96708637D01*
X75490218Y-96694313D01*
X75477376Y-96679278D01*
X75465472Y-96662893D01*
X75431406Y-96634711D01*
X75422627Y-96626722D01*
X74845574Y-96049669D01*
X76577001Y-96049669D01*
X76577371Y-96056490D01*
X76582895Y-96107352D01*
X76586521Y-96122604D01*
X76631676Y-96243054D01*
X76640214Y-96258649D01*
X76716715Y-96360724D01*
X76729276Y-96373285D01*
X76831351Y-96449786D01*
X76846946Y-96458324D01*
X76967394Y-96503478D01*
X76982649Y-96507105D01*
X77033514Y-96512631D01*
X77040328Y-96513000D01*
X77262885Y-96513000D01*
X77278124Y-96508525D01*
X77279329Y-96507135D01*
X77281000Y-96499452D01*
X77281000Y-96494884D01*
X77789000Y-96494884D01*
X77793475Y-96510123D01*
X77794865Y-96511328D01*
X77802548Y-96512999D01*
X78029669Y-96512999D01*
X78036490Y-96512629D01*
X78087352Y-96507105D01*
X78102600Y-96503480D01*
X78125057Y-96495061D01*
X78195864Y-96489878D01*
X78213510Y-96495058D01*
X78244684Y-96506745D01*
X78306866Y-96513500D01*
X79303134Y-96513500D01*
X79365316Y-96506745D01*
X79395771Y-96495328D01*
X79466577Y-96490145D01*
X79484224Y-96495326D01*
X79514684Y-96506745D01*
X79576866Y-96513500D01*
X80573134Y-96513500D01*
X80635316Y-96506745D01*
X80665771Y-96495328D01*
X80736577Y-96490145D01*
X80754224Y-96495326D01*
X80784684Y-96506745D01*
X80846866Y-96513500D01*
X81843134Y-96513500D01*
X81905316Y-96506745D01*
X81935771Y-96495328D01*
X82006577Y-96490145D01*
X82024224Y-96495326D01*
X82054684Y-96506745D01*
X82116866Y-96513500D01*
X83113134Y-96513500D01*
X83175316Y-96506745D01*
X83205771Y-96495328D01*
X83276577Y-96490145D01*
X83294224Y-96495326D01*
X83324684Y-96506745D01*
X83386866Y-96513500D01*
X84383134Y-96513500D01*
X84445316Y-96506745D01*
X84475771Y-96495328D01*
X84546577Y-96490145D01*
X84564224Y-96495326D01*
X84594684Y-96506745D01*
X84656866Y-96513500D01*
X85653134Y-96513500D01*
X85715316Y-96506745D01*
X85745771Y-96495328D01*
X85816577Y-96490145D01*
X85834224Y-96495326D01*
X85864684Y-96506745D01*
X85926866Y-96513500D01*
X86923134Y-96513500D01*
X86985316Y-96506745D01*
X87015771Y-96495328D01*
X87086577Y-96490145D01*
X87104224Y-96495326D01*
X87134684Y-96506745D01*
X87196866Y-96513500D01*
X88193134Y-96513500D01*
X88255316Y-96506745D01*
X88285771Y-96495328D01*
X88356577Y-96490145D01*
X88374224Y-96495326D01*
X88404684Y-96506745D01*
X88466866Y-96513500D01*
X89463134Y-96513500D01*
X89525316Y-96506745D01*
X89661705Y-96455615D01*
X89778261Y-96368261D01*
X89865615Y-96251705D01*
X89916745Y-96115316D01*
X89923500Y-96053134D01*
X89923500Y-93956866D01*
X89916745Y-93894684D01*
X89865615Y-93758295D01*
X89778261Y-93641739D01*
X89661705Y-93554385D01*
X89525316Y-93503255D01*
X89463134Y-93496500D01*
X88466866Y-93496500D01*
X88404684Y-93503255D01*
X88374229Y-93514672D01*
X88303423Y-93519855D01*
X88285776Y-93514674D01*
X88255316Y-93503255D01*
X88193134Y-93496500D01*
X87196866Y-93496500D01*
X87134684Y-93503255D01*
X87104229Y-93514672D01*
X87033423Y-93519855D01*
X87015776Y-93514674D01*
X86985316Y-93503255D01*
X86923134Y-93496500D01*
X85926866Y-93496500D01*
X85864684Y-93503255D01*
X85834229Y-93514672D01*
X85763423Y-93519855D01*
X85745776Y-93514674D01*
X85715316Y-93503255D01*
X85653134Y-93496500D01*
X84656866Y-93496500D01*
X84594684Y-93503255D01*
X84564229Y-93514672D01*
X84493423Y-93519855D01*
X84475776Y-93514674D01*
X84445316Y-93503255D01*
X84383134Y-93496500D01*
X83386866Y-93496500D01*
X83324684Y-93503255D01*
X83294229Y-93514672D01*
X83223423Y-93519855D01*
X83205776Y-93514674D01*
X83175316Y-93503255D01*
X83113134Y-93496500D01*
X82116866Y-93496500D01*
X82054684Y-93503255D01*
X82024229Y-93514672D01*
X81953423Y-93519855D01*
X81935776Y-93514674D01*
X81905316Y-93503255D01*
X81843134Y-93496500D01*
X80846866Y-93496500D01*
X80784684Y-93503255D01*
X80754229Y-93514672D01*
X80683423Y-93519855D01*
X80665776Y-93514674D01*
X80635316Y-93503255D01*
X80573134Y-93496500D01*
X79576866Y-93496500D01*
X79514684Y-93503255D01*
X79484229Y-93514672D01*
X79413423Y-93519855D01*
X79395776Y-93514674D01*
X79365316Y-93503255D01*
X79303134Y-93496500D01*
X78306866Y-93496500D01*
X78244684Y-93503255D01*
X78213517Y-93514939D01*
X78142712Y-93520122D01*
X78125057Y-93514939D01*
X78102602Y-93506521D01*
X78087351Y-93502895D01*
X78036486Y-93497369D01*
X78029672Y-93497000D01*
X77807115Y-93497000D01*
X77791876Y-93501475D01*
X77790671Y-93502865D01*
X77789000Y-93510548D01*
X77789000Y-96494884D01*
X77281000Y-96494884D01*
X77281000Y-95277115D01*
X77276525Y-95261876D01*
X77275135Y-95260671D01*
X77267452Y-95259000D01*
X76595116Y-95259000D01*
X76579877Y-95263475D01*
X76578672Y-95264865D01*
X76577001Y-95272548D01*
X76577001Y-96049669D01*
X74845574Y-96049669D01*
X73974500Y-95178595D01*
X73940474Y-95116283D01*
X73945539Y-95045468D01*
X73988086Y-94988632D01*
X74054606Y-94963821D01*
X74063595Y-94963500D01*
X75798134Y-94963500D01*
X75860316Y-94956745D01*
X75996705Y-94905615D01*
X76113261Y-94818261D01*
X76177247Y-94732885D01*
X76577000Y-94732885D01*
X76581475Y-94748124D01*
X76582865Y-94749329D01*
X76590548Y-94751000D01*
X77262885Y-94751000D01*
X77278124Y-94746525D01*
X77279329Y-94745135D01*
X77281000Y-94737452D01*
X77281000Y-93515116D01*
X77276525Y-93499877D01*
X77275135Y-93498672D01*
X77267452Y-93497001D01*
X77040331Y-93497001D01*
X77033510Y-93497371D01*
X76982648Y-93502895D01*
X76967396Y-93506521D01*
X76846946Y-93551676D01*
X76831351Y-93560214D01*
X76729276Y-93636715D01*
X76716715Y-93649276D01*
X76640214Y-93751351D01*
X76631676Y-93766946D01*
X76586522Y-93887394D01*
X76582895Y-93902649D01*
X76577369Y-93953514D01*
X76577000Y-93960328D01*
X76577000Y-94732885D01*
X76177247Y-94732885D01*
X76200615Y-94701705D01*
X76251745Y-94565316D01*
X76258500Y-94503134D01*
X76258500Y-93506866D01*
X76251745Y-93444684D01*
X76240328Y-93414229D01*
X76235145Y-93343423D01*
X76240326Y-93325776D01*
X76251745Y-93295316D01*
X76258500Y-93233134D01*
X76258500Y-92236866D01*
X76251745Y-92174684D01*
X76242869Y-92151007D01*
X76237687Y-92080200D01*
X76271609Y-92017831D01*
X76333865Y-91983703D01*
X76387048Y-91983532D01*
X76387853Y-91983703D01*
X76498056Y-92007128D01*
X76498061Y-92007128D01*
X76504513Y-92008500D01*
X76695487Y-92008500D01*
X76701939Y-92007128D01*
X76701944Y-92007128D01*
X76788887Y-91988647D01*
X76882288Y-91968794D01*
X76895001Y-91963134D01*
X77050722Y-91893803D01*
X77050724Y-91893802D01*
X77056752Y-91891118D01*
X77211253Y-91778866D01*
X77339040Y-91636944D01*
X77342344Y-91631222D01*
X77351455Y-91615442D01*
X77402838Y-91566449D01*
X77472552Y-91553014D01*
X77538462Y-91579401D01*
X77569690Y-91615441D01*
X77610968Y-91686936D01*
X77738755Y-91828858D01*
X77893256Y-91941110D01*
X77899284Y-91943794D01*
X77899286Y-91943795D01*
X78044617Y-92008500D01*
X78067720Y-92018786D01*
X78161121Y-92038639D01*
X78248064Y-92057120D01*
X78248069Y-92057120D01*
X78254521Y-92058492D01*
X78375042Y-92058492D01*
X78443163Y-92078494D01*
X78464137Y-92095397D01*
X79276345Y-92907605D01*
X79284335Y-92916385D01*
X79288584Y-92923080D01*
X79294362Y-92928506D01*
X79294363Y-92928507D01*
X79340257Y-92971604D01*
X79343099Y-92974359D01*
X79363667Y-92994927D01*
X79367170Y-92997644D01*
X79376195Y-93005352D01*
X79409867Y-93036972D01*
X79416818Y-93040793D01*
X79416819Y-93040794D01*
X79428658Y-93047303D01*
X79445182Y-93058157D01*
X79455271Y-93065982D01*
X79462132Y-93071304D01*
X79469404Y-93074451D01*
X79469406Y-93074452D01*
X79504535Y-93089654D01*
X79515195Y-93094876D01*
X79545168Y-93111354D01*
X79555663Y-93117124D01*
X79576441Y-93122459D01*
X79595131Y-93128858D01*
X79614824Y-93137380D01*
X79649563Y-93142882D01*
X79660448Y-93144606D01*
X79672071Y-93147013D01*
X79696754Y-93153350D01*
X79716812Y-93158500D01*
X79738259Y-93158500D01*
X79757969Y-93160051D01*
X79779152Y-93163406D01*
X79825141Y-93159059D01*
X79836996Y-93158500D01*
X82167944Y-93158500D01*
X82179800Y-93159059D01*
X82179803Y-93159059D01*
X82187537Y-93160788D01*
X82258369Y-93158562D01*
X82262327Y-93158500D01*
X82291432Y-93158500D01*
X82295832Y-93157944D01*
X82307664Y-93157012D01*
X82353831Y-93155562D01*
X82374421Y-93149580D01*
X82393782Y-93145570D01*
X82401416Y-93144606D01*
X82407204Y-93143875D01*
X82407205Y-93143875D01*
X82415064Y-93142882D01*
X82422429Y-93139966D01*
X82422433Y-93139965D01*
X82458021Y-93125874D01*
X82469231Y-93122035D01*
X82513600Y-93109145D01*
X82532065Y-93098225D01*
X82549805Y-93089534D01*
X82569756Y-93081635D01*
X82607129Y-93054482D01*
X82617048Y-93047967D01*
X82649977Y-93028493D01*
X82649981Y-93028490D01*
X82656807Y-93024453D01*
X82671971Y-93009289D01*
X82687005Y-92996448D01*
X82704357Y-92983841D01*
X82733798Y-92948253D01*
X82741787Y-92939473D01*
X83270573Y-92410687D01*
X83332885Y-92376662D01*
X83403700Y-92381726D01*
X83460536Y-92424273D01*
X83479501Y-92460845D01*
X83515473Y-92571556D01*
X83610960Y-92736944D01*
X83615378Y-92741851D01*
X83615379Y-92741852D01*
X83734325Y-92873955D01*
X83738747Y-92878866D01*
X83893248Y-92991118D01*
X83899276Y-92993802D01*
X83899278Y-92993803D01*
X84061681Y-93066109D01*
X84067712Y-93068794D01*
X84161113Y-93088647D01*
X84248056Y-93107128D01*
X84248061Y-93107128D01*
X84254513Y-93108500D01*
X84445487Y-93108500D01*
X84451939Y-93107128D01*
X84451944Y-93107128D01*
X84538887Y-93088647D01*
X84632288Y-93068794D01*
X84638319Y-93066109D01*
X84800722Y-92993803D01*
X84800724Y-92993802D01*
X84806752Y-92991118D01*
X84956163Y-92882564D01*
X85023031Y-92858706D01*
X85030224Y-92858500D01*
X87717944Y-92858500D01*
X87729800Y-92859059D01*
X87729803Y-92859059D01*
X87737537Y-92860788D01*
X87808369Y-92858562D01*
X87812327Y-92858500D01*
X87841432Y-92858500D01*
X87845832Y-92857944D01*
X87857664Y-92857012D01*
X87903831Y-92855562D01*
X87924421Y-92849580D01*
X87943782Y-92845570D01*
X87950770Y-92844688D01*
X87957204Y-92843875D01*
X87957205Y-92843875D01*
X87965064Y-92842882D01*
X87972429Y-92839966D01*
X87972433Y-92839965D01*
X88008021Y-92825874D01*
X88019231Y-92822035D01*
X88063600Y-92809145D01*
X88082065Y-92798225D01*
X88099805Y-92789534D01*
X88119756Y-92781635D01*
X88157129Y-92754482D01*
X88167048Y-92747967D01*
X88199977Y-92728493D01*
X88199981Y-92728490D01*
X88206807Y-92724453D01*
X88221971Y-92709289D01*
X88237005Y-92696448D01*
X88247943Y-92688501D01*
X88254357Y-92683841D01*
X88283803Y-92648247D01*
X88291792Y-92639468D01*
X89157305Y-91773955D01*
X90026405Y-90904854D01*
X90088717Y-90870829D01*
X90159532Y-90875893D01*
X90216368Y-90918440D01*
X90241179Y-90984960D01*
X90241500Y-90993949D01*
X90241500Y-91963134D01*
X90248255Y-92025316D01*
X90259672Y-92055771D01*
X90264855Y-92126577D01*
X90259674Y-92144224D01*
X90248255Y-92174684D01*
X90241500Y-92236866D01*
X90241500Y-93233134D01*
X90248255Y-93295316D01*
X90259672Y-93325771D01*
X90264855Y-93396577D01*
X90259674Y-93414224D01*
X90248255Y-93444684D01*
X90241500Y-93506866D01*
X90241500Y-94503134D01*
X90248255Y-94565316D01*
X90299385Y-94701705D01*
X90386739Y-94818261D01*
X90503295Y-94905615D01*
X90639684Y-94956745D01*
X90701866Y-94963500D01*
X92798134Y-94963500D01*
X92860316Y-94956745D01*
X92996705Y-94905615D01*
X93113261Y-94818261D01*
X93200615Y-94701705D01*
X93251745Y-94565316D01*
X93258500Y-94503134D01*
X93258500Y-93506866D01*
X93251745Y-93444684D01*
X93240328Y-93414229D01*
X93235145Y-93343423D01*
X93240326Y-93325776D01*
X93251745Y-93295316D01*
X93258500Y-93233134D01*
X93258500Y-92236866D01*
X93251745Y-92174684D01*
X93240328Y-92144229D01*
X93235145Y-92073423D01*
X93240326Y-92055776D01*
X93251745Y-92025316D01*
X93258500Y-91963134D01*
X93258500Y-90966866D01*
X93251745Y-90904684D01*
X93240328Y-90874229D01*
X93235145Y-90803423D01*
X93240326Y-90785776D01*
X93251745Y-90755316D01*
X93258500Y-90693134D01*
X93258500Y-89696866D01*
X93251745Y-89634684D01*
X93240328Y-89604229D01*
X93235145Y-89533423D01*
X93240326Y-89515776D01*
X93251745Y-89485316D01*
X93258500Y-89423134D01*
X93258500Y-88426866D01*
X93251745Y-88364684D01*
X93240328Y-88334229D01*
X93235145Y-88263423D01*
X93240326Y-88245776D01*
X93251745Y-88215316D01*
X93258500Y-88153134D01*
X93258500Y-87156866D01*
X93251745Y-87094684D01*
X93240328Y-87064229D01*
X93235145Y-86993423D01*
X93240326Y-86975776D01*
X93251745Y-86945316D01*
X93258500Y-86883134D01*
X93258500Y-85886866D01*
X93251745Y-85824684D01*
X93240328Y-85794229D01*
X93235145Y-85723423D01*
X93240326Y-85705776D01*
X93251745Y-85675316D01*
X93258500Y-85613134D01*
X93258500Y-84616866D01*
X93251745Y-84554684D01*
X93240328Y-84524229D01*
X93235145Y-84453423D01*
X93240326Y-84435776D01*
X93251745Y-84405316D01*
X93258500Y-84343134D01*
X93258500Y-83346866D01*
X93251745Y-83284684D01*
X93240328Y-83254229D01*
X93235145Y-83183423D01*
X93240326Y-83165776D01*
X93251745Y-83135316D01*
X93258500Y-83073134D01*
X93258500Y-82076866D01*
X93251745Y-82014684D01*
X93240328Y-81984229D01*
X93235145Y-81913423D01*
X93240326Y-81895776D01*
X93251745Y-81865316D01*
X93258500Y-81803134D01*
X93258500Y-80806866D01*
X93251745Y-80744684D01*
X93240328Y-80714229D01*
X93235145Y-80643423D01*
X93240326Y-80625776D01*
X93251745Y-80595316D01*
X93258500Y-80533134D01*
X93258500Y-79536866D01*
X93251745Y-79474684D01*
X93240328Y-79444229D01*
X93235145Y-79373423D01*
X93240326Y-79355776D01*
X93251745Y-79325316D01*
X93258500Y-79263134D01*
X93258500Y-78266866D01*
X93251745Y-78204684D01*
X93240061Y-78173517D01*
X93234878Y-78102712D01*
X93240061Y-78085057D01*
X93248479Y-78062602D01*
X93252105Y-78047351D01*
X93257631Y-77996486D01*
X93258000Y-77989672D01*
X93258000Y-77767115D01*
X93253525Y-77751876D01*
X93252135Y-77750671D01*
X93244452Y-77749000D01*
X90260116Y-77749000D01*
X90244877Y-77753475D01*
X90243672Y-77754865D01*
X90242001Y-77762548D01*
X90242001Y-77810401D01*
X90221999Y-77878522D01*
X90168343Y-77925015D01*
X90098069Y-77935119D01*
X90083432Y-77931715D01*
X90082288Y-77931206D01*
X90053162Y-77925015D01*
X89901944Y-77892872D01*
X89901939Y-77892872D01*
X89895487Y-77891500D01*
X89704513Y-77891500D01*
X89698061Y-77892872D01*
X89698056Y-77892872D01*
X89635609Y-77906146D01*
X89517712Y-77931206D01*
X89511682Y-77933891D01*
X89511681Y-77933891D01*
X89349278Y-78006197D01*
X89349276Y-78006198D01*
X89343248Y-78008882D01*
X89188747Y-78121134D01*
X89184326Y-78126044D01*
X89184325Y-78126045D01*
X89151956Y-78161995D01*
X89060960Y-78263056D01*
X89012614Y-78346793D01*
X88988597Y-78388393D01*
X88965473Y-78428444D01*
X88906458Y-78610072D01*
X88886496Y-78800000D01*
X88887186Y-78806565D01*
X88893618Y-78867758D01*
X88906458Y-78989928D01*
X88965473Y-79171556D01*
X88968776Y-79177278D01*
X88968777Y-79177279D01*
X88972171Y-79183158D01*
X89060960Y-79336944D01*
X89065378Y-79341851D01*
X89065379Y-79341852D01*
X89178322Y-79467288D01*
X89188747Y-79478866D01*
X89343248Y-79591118D01*
X89349276Y-79593802D01*
X89349278Y-79593803D01*
X89511681Y-79666109D01*
X89517712Y-79668794D01*
X89611112Y-79688647D01*
X89698056Y-79707128D01*
X89698061Y-79707128D01*
X89704513Y-79708500D01*
X89895487Y-79708500D01*
X89901939Y-79707128D01*
X89901944Y-79707128D01*
X90075833Y-79670166D01*
X90075832Y-79670166D01*
X90082288Y-79668794D01*
X90082493Y-79669758D01*
X90147536Y-79667903D01*
X90208333Y-79704568D01*
X90239655Y-79768281D01*
X90241500Y-79789762D01*
X90241500Y-79910238D01*
X90221498Y-79978359D01*
X90167842Y-80024852D01*
X90097568Y-80034956D01*
X90083214Y-80031618D01*
X90082288Y-80031206D01*
X90052395Y-80024852D01*
X89901944Y-79992872D01*
X89901939Y-79992872D01*
X89895487Y-79991500D01*
X89704513Y-79991500D01*
X89698061Y-79992872D01*
X89698056Y-79992872D01*
X89611324Y-80011308D01*
X89517712Y-80031206D01*
X89511682Y-80033891D01*
X89511681Y-80033891D01*
X89349278Y-80106197D01*
X89349276Y-80106198D01*
X89343248Y-80108882D01*
X89337907Y-80112762D01*
X89337906Y-80112763D01*
X89287750Y-80149204D01*
X89188747Y-80221134D01*
X89184332Y-80226037D01*
X89179420Y-80230460D01*
X89178295Y-80229211D01*
X89124986Y-80262051D01*
X89091800Y-80266500D01*
X88878768Y-80266500D01*
X88867585Y-80265973D01*
X88860092Y-80264298D01*
X88852166Y-80264547D01*
X88852165Y-80264547D01*
X88792002Y-80266438D01*
X88788044Y-80266500D01*
X88760144Y-80266500D01*
X88756154Y-80267004D01*
X88744320Y-80267936D01*
X88700111Y-80269326D01*
X88692495Y-80271539D01*
X88692493Y-80271539D01*
X88680652Y-80274979D01*
X88661293Y-80278988D01*
X88659983Y-80279154D01*
X88641203Y-80281526D01*
X88633837Y-80284442D01*
X88633831Y-80284444D01*
X88600098Y-80297800D01*
X88588868Y-80301645D01*
X88575971Y-80305392D01*
X88546408Y-80313981D01*
X88545503Y-80310866D01*
X88489904Y-80317752D01*
X88425913Y-80287000D01*
X88399022Y-80252562D01*
X88386606Y-80229211D01*
X88344066Y-80149204D01*
X88340170Y-80144427D01*
X88339404Y-80143274D01*
X88318366Y-80075466D01*
X88334795Y-80011308D01*
X88422262Y-79857337D01*
X88427256Y-79846121D01*
X88472142Y-79711190D01*
X88472643Y-79697097D01*
X88466454Y-79694000D01*
X86542282Y-79694000D01*
X86528751Y-79697973D01*
X86527601Y-79705975D01*
X86556552Y-79806941D01*
X86561067Y-79818345D01*
X86645794Y-79983207D01*
X86652432Y-79993507D01*
X86654131Y-79995650D01*
X86654667Y-79996975D01*
X86655774Y-79998692D01*
X86655448Y-79998902D01*
X86680770Y-80061460D01*
X86667600Y-80131224D01*
X86663979Y-80137316D01*
X86663846Y-80137474D01*
X86663370Y-80138341D01*
X86663364Y-80138350D01*
X86619986Y-80217255D01*
X86568567Y-80310787D01*
X86566706Y-80316654D01*
X86566705Y-80316656D01*
X86517568Y-80471556D01*
X86508765Y-80499306D01*
X86486719Y-80695851D01*
X86487235Y-80701995D01*
X86496327Y-80810269D01*
X86503268Y-80892934D01*
X86557783Y-81083050D01*
X86648187Y-81258956D01*
X86652016Y-81263787D01*
X86653839Y-81266088D01*
X86654414Y-81267509D01*
X86655353Y-81268966D01*
X86655076Y-81269144D01*
X86680474Y-81331898D01*
X86667301Y-81401662D01*
X86663846Y-81407474D01*
X86568567Y-81580787D01*
X86508765Y-81769306D01*
X86486719Y-81965851D01*
X86490016Y-82005116D01*
X86500227Y-82126715D01*
X86503268Y-82162934D01*
X86504967Y-82168858D01*
X86530226Y-82256946D01*
X86557783Y-82353050D01*
X86648187Y-82528956D01*
X86652016Y-82533787D01*
X86653839Y-82536088D01*
X86654414Y-82537509D01*
X86655353Y-82538966D01*
X86655076Y-82539144D01*
X86680474Y-82601898D01*
X86667301Y-82671662D01*
X86663846Y-82677474D01*
X86568567Y-82850787D01*
X86566706Y-82856654D01*
X86566705Y-82856656D01*
X86554207Y-82896056D01*
X86508765Y-83039306D01*
X86486719Y-83235851D01*
X86487235Y-83241995D01*
X86500055Y-83394666D01*
X86503268Y-83432934D01*
X86557783Y-83623050D01*
X86648187Y-83798956D01*
X86652016Y-83803787D01*
X86653839Y-83806088D01*
X86654414Y-83807509D01*
X86655353Y-83808966D01*
X86655076Y-83809144D01*
X86680474Y-83871898D01*
X86667301Y-83941662D01*
X86663846Y-83947474D01*
X86568567Y-84120787D01*
X86508765Y-84309306D01*
X86486719Y-84505851D01*
X86503268Y-84702934D01*
X86557783Y-84893050D01*
X86648187Y-85068956D01*
X86652016Y-85073787D01*
X86653839Y-85076088D01*
X86654414Y-85077509D01*
X86655353Y-85078966D01*
X86655076Y-85079144D01*
X86680474Y-85141898D01*
X86667301Y-85211662D01*
X86663846Y-85217474D01*
X86568567Y-85390787D01*
X86566706Y-85396654D01*
X86566705Y-85396656D01*
X86518016Y-85550142D01*
X86508765Y-85579306D01*
X86486719Y-85775851D01*
X86503268Y-85972934D01*
X86557783Y-86163050D01*
X86648187Y-86338956D01*
X86652016Y-86343787D01*
X86653839Y-86346088D01*
X86654414Y-86347509D01*
X86655353Y-86348966D01*
X86655076Y-86349144D01*
X86680474Y-86411898D01*
X86667301Y-86481662D01*
X86663846Y-86487474D01*
X86568567Y-86660787D01*
X86508765Y-86849306D01*
X86486719Y-87045851D01*
X86487235Y-87051995D01*
X86500523Y-87210240D01*
X86503268Y-87242934D01*
X86557783Y-87433050D01*
X86560602Y-87438535D01*
X86616082Y-87546486D01*
X86648187Y-87608956D01*
X86652016Y-87613787D01*
X86653839Y-87616088D01*
X86654414Y-87617509D01*
X86655353Y-87618966D01*
X86655076Y-87619144D01*
X86680474Y-87681898D01*
X86667301Y-87751662D01*
X86663846Y-87757474D01*
X86568567Y-87930787D01*
X86566706Y-87936654D01*
X86566705Y-87936656D01*
X86510627Y-88113436D01*
X86508765Y-88119306D01*
X86486719Y-88315851D01*
X86503268Y-88512934D01*
X86557783Y-88703050D01*
X86648187Y-88878956D01*
X86771035Y-89033953D01*
X86921650Y-89162136D01*
X86923451Y-89163143D01*
X86967081Y-89217340D01*
X86974635Y-89287934D01*
X86942824Y-89351405D01*
X86881747Y-89387602D01*
X86850648Y-89391500D01*
X82932060Y-89391500D01*
X82920203Y-89390941D01*
X82912463Y-89389211D01*
X82904538Y-89389460D01*
X82904537Y-89389460D01*
X82841599Y-89391438D01*
X82837641Y-89391500D01*
X82808568Y-89391500D01*
X82804634Y-89391997D01*
X82804632Y-89391997D01*
X82804189Y-89392053D01*
X82792354Y-89392985D01*
X82759564Y-89394016D01*
X82754089Y-89394188D01*
X82754088Y-89394188D01*
X82746169Y-89394437D01*
X82726444Y-89400168D01*
X82725571Y-89400421D01*
X82706218Y-89404429D01*
X82702743Y-89404868D01*
X82684936Y-89407118D01*
X82677568Y-89410035D01*
X82677565Y-89410036D01*
X82641982Y-89424125D01*
X82630747Y-89427971D01*
X82594016Y-89438642D01*
X82594013Y-89438643D01*
X82586400Y-89440855D01*
X82567935Y-89451775D01*
X82550195Y-89460466D01*
X82530244Y-89468365D01*
X82517726Y-89477460D01*
X82492874Y-89495516D01*
X82482952Y-89502033D01*
X82450023Y-89521507D01*
X82450019Y-89521510D01*
X82443193Y-89525547D01*
X82428029Y-89540711D01*
X82412996Y-89553551D01*
X82395643Y-89566159D01*
X82366198Y-89601752D01*
X82358208Y-89610532D01*
X81544145Y-90424595D01*
X81481833Y-90458621D01*
X81455050Y-90461500D01*
X81360224Y-90461500D01*
X81292103Y-90441498D01*
X81286163Y-90437436D01*
X81285909Y-90437251D01*
X81136752Y-90328882D01*
X81130724Y-90326198D01*
X81130722Y-90326197D01*
X80968319Y-90253891D01*
X80968318Y-90253891D01*
X80962288Y-90251206D01*
X80868196Y-90231206D01*
X80781944Y-90212872D01*
X80781939Y-90212872D01*
X80775487Y-90211500D01*
X80584513Y-90211500D01*
X80578061Y-90212872D01*
X80578056Y-90212872D01*
X80491804Y-90231206D01*
X80397712Y-90251206D01*
X80391682Y-90253891D01*
X80391681Y-90253891D01*
X80229278Y-90326197D01*
X80229276Y-90326198D01*
X80223248Y-90328882D01*
X80068747Y-90441134D01*
X79950835Y-90572089D01*
X79890389Y-90609328D01*
X79819405Y-90607976D01*
X79768104Y-90576874D01*
X79134109Y-89942880D01*
X79126121Y-89934100D01*
X79121875Y-89927409D01*
X79070200Y-89878883D01*
X79067359Y-89876129D01*
X79046792Y-89855562D01*
X79043285Y-89852842D01*
X79034263Y-89845136D01*
X79030072Y-89841200D01*
X79000592Y-89813517D01*
X78993640Y-89809695D01*
X78981801Y-89803186D01*
X78965277Y-89792332D01*
X78954591Y-89784044D01*
X78948327Y-89779185D01*
X78941055Y-89776038D01*
X78941053Y-89776037D01*
X78905924Y-89760835D01*
X78895264Y-89755613D01*
X78861743Y-89737184D01*
X78861741Y-89737183D01*
X78854796Y-89733365D01*
X78834018Y-89728030D01*
X78815328Y-89721631D01*
X78795635Y-89713109D01*
X78750011Y-89705883D01*
X78738388Y-89703476D01*
X78704116Y-89694677D01*
X78693647Y-89691989D01*
X78672200Y-89691989D01*
X78652490Y-89690438D01*
X78631307Y-89687083D01*
X78585318Y-89691430D01*
X78573463Y-89691989D01*
X77431571Y-89691989D01*
X77419714Y-89691430D01*
X77411974Y-89689700D01*
X77404049Y-89689949D01*
X77404048Y-89689949D01*
X77341110Y-89691927D01*
X77337152Y-89691989D01*
X77308079Y-89691989D01*
X77304145Y-89692486D01*
X77304143Y-89692486D01*
X77303700Y-89692542D01*
X77291865Y-89693474D01*
X77259075Y-89694505D01*
X77253600Y-89694677D01*
X77253599Y-89694677D01*
X77245680Y-89694926D01*
X77227240Y-89700283D01*
X77225082Y-89700910D01*
X77205729Y-89704918D01*
X77202254Y-89705357D01*
X77184447Y-89707607D01*
X77177079Y-89710524D01*
X77177076Y-89710525D01*
X77141493Y-89724614D01*
X77130258Y-89728460D01*
X77093527Y-89739131D01*
X77093524Y-89739132D01*
X77085911Y-89741344D01*
X77067446Y-89752264D01*
X77049706Y-89760955D01*
X77029755Y-89768854D01*
X76992385Y-89796005D01*
X76982463Y-89802522D01*
X76949534Y-89821996D01*
X76949530Y-89821999D01*
X76942704Y-89826036D01*
X76927540Y-89841200D01*
X76912507Y-89854040D01*
X76895154Y-89866648D01*
X76885032Y-89878884D01*
X76865709Y-89902241D01*
X76857719Y-89911021D01*
X76614145Y-90154595D01*
X76551833Y-90188621D01*
X76525050Y-90191500D01*
X76504513Y-90191500D01*
X76498061Y-90192872D01*
X76498056Y-90192872D01*
X76410697Y-90211441D01*
X76339906Y-90206039D01*
X76283273Y-90163222D01*
X76258780Y-90096584D01*
X76258500Y-90088194D01*
X76258500Y-89696866D01*
X76251745Y-89634684D01*
X76240328Y-89604229D01*
X76235145Y-89533423D01*
X76240326Y-89515776D01*
X76251745Y-89485316D01*
X76258500Y-89423134D01*
X76258500Y-88426866D01*
X76251745Y-88364684D01*
X76240328Y-88334229D01*
X76235145Y-88263423D01*
X76240326Y-88245776D01*
X76251745Y-88215316D01*
X76258500Y-88153134D01*
X76258500Y-87539669D01*
X79242001Y-87539669D01*
X79242371Y-87546490D01*
X79247895Y-87597352D01*
X79251521Y-87612604D01*
X79296676Y-87733054D01*
X79305214Y-87748649D01*
X79381715Y-87850724D01*
X79394276Y-87863285D01*
X79496351Y-87939786D01*
X79511946Y-87948324D01*
X79632394Y-87993478D01*
X79647649Y-87997105D01*
X79698514Y-88002631D01*
X79705328Y-88003000D01*
X81977885Y-88003000D01*
X81993124Y-87998525D01*
X81994329Y-87997135D01*
X81996000Y-87989452D01*
X81996000Y-87984884D01*
X82504000Y-87984884D01*
X82508475Y-88000123D01*
X82509865Y-88001328D01*
X82517548Y-88002999D01*
X84794669Y-88002999D01*
X84801490Y-88002629D01*
X84852352Y-87997105D01*
X84867604Y-87993479D01*
X84988054Y-87948324D01*
X85003649Y-87939786D01*
X85105724Y-87863285D01*
X85118285Y-87850724D01*
X85194786Y-87748649D01*
X85203324Y-87733054D01*
X85248478Y-87612606D01*
X85252105Y-87597351D01*
X85257631Y-87546486D01*
X85258000Y-87539672D01*
X85258000Y-85267115D01*
X85253525Y-85251876D01*
X85252135Y-85250671D01*
X85244452Y-85249000D01*
X82522115Y-85249000D01*
X82506876Y-85253475D01*
X82505671Y-85254865D01*
X82504000Y-85262548D01*
X82504000Y-87984884D01*
X81996000Y-87984884D01*
X81996000Y-85267115D01*
X81991525Y-85251876D01*
X81990135Y-85250671D01*
X81982452Y-85249000D01*
X79260116Y-85249000D01*
X79244877Y-85253475D01*
X79243672Y-85254865D01*
X79242001Y-85262548D01*
X79242001Y-87539669D01*
X76258500Y-87539669D01*
X76258500Y-87156866D01*
X76251745Y-87094684D01*
X76240328Y-87064229D01*
X76235145Y-86993423D01*
X76240326Y-86975776D01*
X76251745Y-86945316D01*
X76258500Y-86883134D01*
X76258500Y-85886866D01*
X76251745Y-85824684D01*
X76240328Y-85794229D01*
X76235145Y-85723423D01*
X76240326Y-85705776D01*
X76251745Y-85675316D01*
X76258500Y-85613134D01*
X76258500Y-84722885D01*
X79242000Y-84722885D01*
X79246475Y-84738124D01*
X79247865Y-84739329D01*
X79255548Y-84741000D01*
X81977885Y-84741000D01*
X81993124Y-84736525D01*
X81994329Y-84735135D01*
X81996000Y-84727452D01*
X81996000Y-84722885D01*
X82504000Y-84722885D01*
X82508475Y-84738124D01*
X82509865Y-84739329D01*
X82517548Y-84741000D01*
X85239884Y-84741000D01*
X85255123Y-84736525D01*
X85256328Y-84735135D01*
X85257999Y-84727452D01*
X85257999Y-82450331D01*
X85257629Y-82443510D01*
X85252105Y-82392648D01*
X85248479Y-82377396D01*
X85203324Y-82256946D01*
X85194786Y-82241351D01*
X85118285Y-82139276D01*
X85105724Y-82126715D01*
X85003649Y-82050214D01*
X84988054Y-82041676D01*
X84867606Y-81996522D01*
X84852351Y-81992895D01*
X84801486Y-81987369D01*
X84794672Y-81987000D01*
X82522115Y-81987000D01*
X82506876Y-81991475D01*
X82505671Y-81992865D01*
X82504000Y-82000548D01*
X82504000Y-84722885D01*
X81996000Y-84722885D01*
X81996000Y-82005116D01*
X81991525Y-81989877D01*
X81990135Y-81988672D01*
X81982452Y-81987001D01*
X79705331Y-81987001D01*
X79698510Y-81987371D01*
X79647648Y-81992895D01*
X79632396Y-81996521D01*
X79511946Y-82041676D01*
X79496351Y-82050214D01*
X79394276Y-82126715D01*
X79381715Y-82139276D01*
X79305214Y-82241351D01*
X79296676Y-82256946D01*
X79251522Y-82377394D01*
X79247895Y-82392649D01*
X79242369Y-82443514D01*
X79242000Y-82450328D01*
X79242000Y-84722885D01*
X76258500Y-84722885D01*
X76258500Y-84616866D01*
X76251745Y-84554684D01*
X76240328Y-84524229D01*
X76235145Y-84453423D01*
X76240326Y-84435776D01*
X76251745Y-84405316D01*
X76258500Y-84343134D01*
X76258500Y-83346866D01*
X76251745Y-83284684D01*
X76240328Y-83254229D01*
X76235145Y-83183423D01*
X76240326Y-83165776D01*
X76251745Y-83135316D01*
X76258500Y-83073134D01*
X76258500Y-82076866D01*
X76251745Y-82014684D01*
X76240328Y-81984229D01*
X76235145Y-81913423D01*
X76240326Y-81895776D01*
X76251745Y-81865316D01*
X76258500Y-81803134D01*
X76258500Y-80806866D01*
X76258132Y-80803480D01*
X76258015Y-80801317D01*
X76274302Y-80732214D01*
X76325364Y-80682886D01*
X76383830Y-80668500D01*
X80033275Y-80668500D01*
X80101396Y-80688502D01*
X80126910Y-80710189D01*
X80188747Y-80778866D01*
X80343248Y-80891118D01*
X80349276Y-80893802D01*
X80349278Y-80893803D01*
X80360632Y-80898858D01*
X80517712Y-80968794D01*
X80611113Y-80988647D01*
X80698056Y-81007128D01*
X80698061Y-81007128D01*
X80704513Y-81008500D01*
X80895487Y-81008500D01*
X80901939Y-81007128D01*
X80901944Y-81007128D01*
X80988887Y-80988647D01*
X81082288Y-80968794D01*
X81239368Y-80898858D01*
X81250722Y-80893803D01*
X81250724Y-80893802D01*
X81256752Y-80891118D01*
X81411253Y-80778866D01*
X81539040Y-80636944D01*
X81614973Y-80505425D01*
X81631223Y-80477279D01*
X81631224Y-80477278D01*
X81634527Y-80471556D01*
X81693542Y-80289928D01*
X81694530Y-80280533D01*
X81712814Y-80106565D01*
X81713504Y-80100000D01*
X81706274Y-80031206D01*
X81694232Y-79916635D01*
X81694232Y-79916633D01*
X81693542Y-79910072D01*
X81634527Y-79728444D01*
X81628104Y-79717318D01*
X81556792Y-79593803D01*
X81539040Y-79563056D01*
X81515459Y-79536866D01*
X81415675Y-79426045D01*
X81415674Y-79426044D01*
X81411253Y-79421134D01*
X81282848Y-79327842D01*
X81262094Y-79312763D01*
X81262093Y-79312762D01*
X81256752Y-79308882D01*
X81250724Y-79306198D01*
X81250722Y-79306197D01*
X81088319Y-79233891D01*
X81088318Y-79233891D01*
X81082288Y-79231206D01*
X80988888Y-79211353D01*
X80901944Y-79192872D01*
X80901939Y-79192872D01*
X80895487Y-79191500D01*
X80704513Y-79191500D01*
X80698061Y-79192872D01*
X80698056Y-79192872D01*
X80611112Y-79211353D01*
X80517712Y-79231206D01*
X80511682Y-79233891D01*
X80511681Y-79233891D01*
X80349278Y-79306197D01*
X80349276Y-79306198D01*
X80343248Y-79308882D01*
X80337907Y-79312762D01*
X80337906Y-79312763D01*
X80248892Y-79377436D01*
X80182024Y-79401294D01*
X80174831Y-79401500D01*
X77520007Y-79401500D01*
X77451886Y-79381498D01*
X77405393Y-79327842D01*
X77395289Y-79257568D01*
X77410888Y-79212500D01*
X77431223Y-79177279D01*
X77431224Y-79177278D01*
X77434527Y-79171556D01*
X77493542Y-78989928D01*
X77506383Y-78867758D01*
X77512814Y-78806565D01*
X77513504Y-78800000D01*
X77493542Y-78610072D01*
X77434527Y-78428444D01*
X77411404Y-78388393D01*
X77387386Y-78346793D01*
X77339040Y-78263056D01*
X77248045Y-78161995D01*
X77242513Y-78155851D01*
X86486719Y-78155851D01*
X86503268Y-78352934D01*
X86557783Y-78543050D01*
X86648187Y-78718956D01*
X86654164Y-78726497D01*
X86654843Y-78728174D01*
X86655353Y-78728966D01*
X86655203Y-78729063D01*
X86680802Y-78792304D01*
X86667633Y-78862069D01*
X86664254Y-78867754D01*
X86664262Y-78867758D01*
X86571998Y-79035585D01*
X86567166Y-79046858D01*
X86528506Y-79168731D01*
X86528202Y-79182831D01*
X86534763Y-79186000D01*
X88458183Y-79186000D01*
X88471714Y-79182027D01*
X88472806Y-79174433D01*
X88438231Y-79059919D01*
X88433560Y-79048586D01*
X88346537Y-78884918D01*
X88339435Y-78874228D01*
X88318398Y-78806420D01*
X88334827Y-78742264D01*
X88342327Y-78729063D01*
X88368783Y-78682492D01*
X88422723Y-78587542D01*
X88422725Y-78587537D01*
X88425769Y-78582179D01*
X88488197Y-78394513D01*
X88512985Y-78198295D01*
X88513380Y-78170000D01*
X88494080Y-77973167D01*
X88487611Y-77951739D01*
X88460918Y-77863330D01*
X88436916Y-77783831D01*
X88434024Y-77778391D01*
X88432195Y-77773954D01*
X88424731Y-77703350D01*
X88442512Y-77662631D01*
X88440921Y-77661760D01*
X88445229Y-77653891D01*
X88450615Y-77646705D01*
X88501745Y-77510316D01*
X88508500Y-77448134D01*
X88508500Y-77222885D01*
X90242000Y-77222885D01*
X90246475Y-77238124D01*
X90247865Y-77239329D01*
X90255548Y-77241000D01*
X91477885Y-77241000D01*
X91493124Y-77236525D01*
X91494329Y-77235135D01*
X91496000Y-77227452D01*
X91496000Y-77222885D01*
X92004000Y-77222885D01*
X92008475Y-77238124D01*
X92009865Y-77239329D01*
X92017548Y-77241000D01*
X93239884Y-77241000D01*
X93255123Y-77236525D01*
X93256328Y-77235135D01*
X93257999Y-77227452D01*
X93257999Y-77000331D01*
X93257629Y-76993510D01*
X93252105Y-76942648D01*
X93248479Y-76927396D01*
X93203324Y-76806946D01*
X93194786Y-76791351D01*
X93118285Y-76689276D01*
X93105724Y-76676715D01*
X93003649Y-76600214D01*
X92988054Y-76591676D01*
X92867606Y-76546522D01*
X92852351Y-76542895D01*
X92801486Y-76537369D01*
X92794672Y-76537000D01*
X92022115Y-76537000D01*
X92006876Y-76541475D01*
X92005671Y-76542865D01*
X92004000Y-76550548D01*
X92004000Y-77222885D01*
X91496000Y-77222885D01*
X91496000Y-76555116D01*
X91491525Y-76539877D01*
X91490135Y-76538672D01*
X91482452Y-76537001D01*
X90705331Y-76537001D01*
X90698510Y-76537371D01*
X90647648Y-76542895D01*
X90632396Y-76546521D01*
X90511946Y-76591676D01*
X90496351Y-76600214D01*
X90394276Y-76676715D01*
X90381715Y-76689276D01*
X90305214Y-76791351D01*
X90296676Y-76806946D01*
X90251522Y-76927394D01*
X90247895Y-76942649D01*
X90242369Y-76993514D01*
X90242000Y-77000328D01*
X90242000Y-77222885D01*
X88508500Y-77222885D01*
X88508500Y-76351866D01*
X88501745Y-76289684D01*
X88450615Y-76153295D01*
X88363261Y-76036739D01*
X88246705Y-75949385D01*
X88110316Y-75898255D01*
X88048134Y-75891500D01*
X86951866Y-75891500D01*
X86889684Y-75898255D01*
X86753295Y-75949385D01*
X86636739Y-76036739D01*
X86549385Y-76153295D01*
X86498255Y-76289684D01*
X86491500Y-76351866D01*
X86491500Y-77448134D01*
X86498255Y-77510316D01*
X86549385Y-77646705D01*
X86554771Y-77653892D01*
X86559079Y-77661760D01*
X86556858Y-77662976D01*
X86577013Y-77716910D01*
X86567993Y-77770605D01*
X86568567Y-77770787D01*
X86566706Y-77776654D01*
X86566705Y-77776656D01*
X86538876Y-77864385D01*
X86508765Y-77959306D01*
X86486719Y-78155851D01*
X77242513Y-78155851D01*
X77215675Y-78126045D01*
X77215674Y-78126044D01*
X77211253Y-78121134D01*
X77056752Y-78008882D01*
X77050724Y-78006198D01*
X77050722Y-78006197D01*
X76888319Y-77933891D01*
X76888318Y-77933891D01*
X76882288Y-77931206D01*
X76764391Y-77906146D01*
X76701944Y-77892872D01*
X76701939Y-77892872D01*
X76695487Y-77891500D01*
X76504513Y-77891500D01*
X76498058Y-77892872D01*
X76498049Y-77892873D01*
X76410198Y-77911547D01*
X76339407Y-77906146D01*
X76282774Y-77863330D01*
X76258280Y-77796692D01*
X76258000Y-77788301D01*
X76258000Y-77767115D01*
X76253525Y-77751876D01*
X76252135Y-77750671D01*
X76244452Y-77749000D01*
X73260116Y-77749000D01*
X73244877Y-77753475D01*
X73243672Y-77754865D01*
X73242001Y-77762548D01*
X73242001Y-77989669D01*
X73242371Y-77996490D01*
X73247895Y-78047352D01*
X73251520Y-78062600D01*
X73259939Y-78085057D01*
X73265122Y-78155864D01*
X73259942Y-78173510D01*
X73248255Y-78204684D01*
X73241500Y-78266866D01*
X73241500Y-79263134D01*
X73248255Y-79325316D01*
X73259672Y-79355771D01*
X73264855Y-79426577D01*
X73259674Y-79444224D01*
X73248255Y-79474684D01*
X73241500Y-79536866D01*
X73241500Y-80533134D01*
X73248255Y-80595316D01*
X73259672Y-80625771D01*
X73264855Y-80696577D01*
X73259674Y-80714224D01*
X73248255Y-80744684D01*
X73241500Y-80806866D01*
X73241500Y-81803134D01*
X73248255Y-81865316D01*
X73259672Y-81895771D01*
X73264855Y-81966577D01*
X73259674Y-81984224D01*
X73248255Y-82014684D01*
X73241500Y-82076866D01*
X73241500Y-83073134D01*
X73248255Y-83135316D01*
X73259672Y-83165771D01*
X73264855Y-83236577D01*
X73259674Y-83254224D01*
X73248255Y-83284684D01*
X73241500Y-83346866D01*
X73241500Y-84343134D01*
X73248255Y-84405316D01*
X73259672Y-84435771D01*
X73264855Y-84506577D01*
X73259674Y-84524224D01*
X73248255Y-84554684D01*
X73241500Y-84616866D01*
X73241500Y-84617374D01*
X73218029Y-84683788D01*
X73204965Y-84699131D01*
X72807742Y-85096353D01*
X72799463Y-85103887D01*
X72792982Y-85108000D01*
X72771172Y-85131226D01*
X72746357Y-85157651D01*
X72743602Y-85160493D01*
X72723865Y-85180230D01*
X72722514Y-85178879D01*
X72668911Y-85212651D01*
X72597917Y-85212013D01*
X72538538Y-85173095D01*
X72509626Y-85108252D01*
X72508500Y-85091441D01*
X72508500Y-77222885D01*
X73242000Y-77222885D01*
X73246475Y-77238124D01*
X73247865Y-77239329D01*
X73255548Y-77241000D01*
X74477885Y-77241000D01*
X74493124Y-77236525D01*
X74494329Y-77235135D01*
X74496000Y-77227452D01*
X74496000Y-77222885D01*
X75004000Y-77222885D01*
X75008475Y-77238124D01*
X75009865Y-77239329D01*
X75017548Y-77241000D01*
X76239884Y-77241000D01*
X76255123Y-77236525D01*
X76256328Y-77235135D01*
X76257999Y-77227452D01*
X76257999Y-77000331D01*
X76257629Y-76993510D01*
X76252105Y-76942648D01*
X76248479Y-76927396D01*
X76203324Y-76806946D01*
X76194786Y-76791351D01*
X76118285Y-76689276D01*
X76105724Y-76676715D01*
X76003649Y-76600214D01*
X75988054Y-76591676D01*
X75867606Y-76546522D01*
X75852351Y-76542895D01*
X75801486Y-76537369D01*
X75794672Y-76537000D01*
X75022115Y-76537000D01*
X75006876Y-76541475D01*
X75005671Y-76542865D01*
X75004000Y-76550548D01*
X75004000Y-77222885D01*
X74496000Y-77222885D01*
X74496000Y-76555116D01*
X74491525Y-76539877D01*
X74490135Y-76538672D01*
X74482452Y-76537001D01*
X73705331Y-76537001D01*
X73698510Y-76537371D01*
X73647648Y-76542895D01*
X73632396Y-76546521D01*
X73511946Y-76591676D01*
X73496351Y-76600214D01*
X73394276Y-76676715D01*
X73381715Y-76689276D01*
X73305214Y-76791351D01*
X73296676Y-76806946D01*
X73251522Y-76927394D01*
X73247895Y-76942649D01*
X73242369Y-76993514D01*
X73242000Y-77000328D01*
X73242000Y-77222885D01*
X72508500Y-77222885D01*
X72508500Y-76053250D01*
X72510246Y-76032345D01*
X72512770Y-76017344D01*
X72512770Y-76017341D01*
X72513576Y-76012552D01*
X72513729Y-76000000D01*
X72513040Y-75995188D01*
X72512723Y-75990327D01*
X72513008Y-75990308D01*
X72512607Y-75963549D01*
X72519234Y-75904736D01*
X72525513Y-75877229D01*
X72552485Y-75800147D01*
X72564727Y-75774726D01*
X72608178Y-75705574D01*
X72625770Y-75683515D01*
X72683515Y-75625770D01*
X72705574Y-75608178D01*
X72774726Y-75564727D01*
X72800147Y-75552485D01*
X72877228Y-75525513D01*
X72904736Y-75519234D01*
X72960226Y-75512982D01*
X72975868Y-75513077D01*
X72975879Y-75512200D01*
X72984851Y-75512310D01*
X72993724Y-75513691D01*
X73002626Y-75512527D01*
X73002628Y-75512527D01*
X73017951Y-75510523D01*
X73025286Y-75509564D01*
X73041621Y-75508500D01*
X93950633Y-75508500D01*
X93970018Y-75510000D01*
G37*
%TD.AperFunction*%
%TD*%
M02*
