M48
; DRILL file {KiCad 7.0.5} date Sat Oct  7 01:59:47 2023
; FORMAT={-:-/ absolute / inch / decimal}
; #@! TF.CreationDate,2023-10-07T01:59:47-03:00
; #@! TF.GenerationSoftware,Kicad,Pcbnew,7.0.5
; #@! TF.FileFunction,Plated,1,2,PTH
FMAT,2
INCH
; #@! TA.AperFunction,Plated,PTH,ViaDrill
T1C0.0157
; #@! TA.AperFunction,Plated,PTH,ComponentDrill
T2C0.0256
%
G90
G05
T1
X3.0157Y-3.1024
X3.126Y-3.204
X3.142Y-3.67
X3.158Y-3.522
X3.1811Y-3.1535
X3.2253Y-3.8866
X3.262Y-3.532
X3.306Y-3.83
X3.334Y-3.532
X3.4882Y-3.9213
X3.5Y-3.1024
X3.5Y-3.2992
X3.5354Y-3.185
X3.5354Y-3.249
T2
X3.4449Y-3.0276
X3.4449Y-3.0776
X3.4449Y-3.1276
X3.4449Y-3.1776
X3.4449Y-3.2276
X3.4449Y-3.2776
X3.4449Y-3.3276
X3.4449Y-3.3776
X3.4449Y-3.4276
X3.4449Y-3.4776
T0
M30
