%TF.GenerationSoftware,KiCad,Pcbnew,(6.0.5)*%
%TF.CreationDate,2023-03-06T17:13:13-03:00*%
%TF.ProjectId,ESP32_MicroSD,45535033-325f-44d6-9963-726f53442e6b,rev?*%
%TF.SameCoordinates,Original*%
%TF.FileFunction,Copper,L2,Bot*%
%TF.FilePolarity,Positive*%
%FSLAX46Y46*%
G04 Gerber Fmt 4.6, Leading zero omitted, Abs format (unit mm)*
G04 Created by KiCad (PCBNEW (6.0.5)) date 2023-03-06 17:13:13*
%MOMM*%
%LPD*%
G01*
G04 APERTURE LIST*
G04 Aperture macros list*
%AMRoundRect*
0 Rectangle with rounded corners*
0 $1 Rounding radius*
0 $2 $3 $4 $5 $6 $7 $8 $9 X,Y pos of 4 corners*
0 Add a 4 corners polygon primitive as box body*
4,1,4,$2,$3,$4,$5,$6,$7,$8,$9,$2,$3,0*
0 Add four circle primitives for the rounded corners*
1,1,$1+$1,$2,$3*
1,1,$1+$1,$4,$5*
1,1,$1+$1,$6,$7*
1,1,$1+$1,$8,$9*
0 Add four rect primitives between the rounded corners*
20,1,$1+$1,$2,$3,$4,$5,0*
20,1,$1+$1,$4,$5,$6,$7,0*
20,1,$1+$1,$6,$7,$8,$9,0*
20,1,$1+$1,$8,$9,$2,$3,0*%
G04 Aperture macros list end*
%TA.AperFunction,ComponentPad*%
%ADD10R,1.000000X1.000000*%
%TD*%
%TA.AperFunction,ComponentPad*%
%ADD11O,1.000000X1.000000*%
%TD*%
%TA.AperFunction,SMDPad,CuDef*%
%ADD12RoundRect,0.250000X0.475000X-0.250000X0.475000X0.250000X-0.475000X0.250000X-0.475000X-0.250000X0*%
%TD*%
%TA.AperFunction,SMDPad,CuDef*%
%ADD13RoundRect,0.250000X-0.450000X0.262500X-0.450000X-0.262500X0.450000X-0.262500X0.450000X0.262500X0*%
%TD*%
%TA.AperFunction,SMDPad,CuDef*%
%ADD14R,0.711200X1.092200*%
%TD*%
%TA.AperFunction,SMDPad,CuDef*%
%ADD15R,0.889000X0.939800*%
%TD*%
%TA.AperFunction,SMDPad,CuDef*%
%ADD16R,1.041400X0.787400*%
%TD*%
%TA.AperFunction,SMDPad,CuDef*%
%ADD17R,1.143000X1.828800*%
%TD*%
%TA.AperFunction,SMDPad,CuDef*%
%ADD18R,0.863600X2.794000*%
%TD*%
%TA.AperFunction,SMDPad,CuDef*%
%ADD19R,0.711200X3.327400*%
%TD*%
%TA.AperFunction,SMDPad,CuDef*%
%ADD20R,1.500000X1.000000*%
%TD*%
%TA.AperFunction,ViaPad*%
%ADD21C,0.800000*%
%TD*%
%TA.AperFunction,Conductor*%
%ADD22C,0.500000*%
%TD*%
%TA.AperFunction,Conductor*%
%ADD23C,0.250000*%
%TD*%
%TA.AperFunction,Conductor*%
%ADD24C,0.300000*%
%TD*%
%TA.AperFunction,Conductor*%
%ADD25C,0.400000*%
%TD*%
G04 APERTURE END LIST*
D10*
%TO.P,J1,9,Pin_9*%
%TO.N,Net-(J1-Pad9)*%
X87500000Y-76900000D03*
D11*
%TO.P,J1,10,Pin_10*%
%TO.N,unconnected-(J1-Pad10)*%
X87500000Y-78170000D03*
%TO.P,J1,11,Pin_11*%
%TO.N,GND*%
X87500000Y-79440000D03*
%TO.P,J1,12,Pin_12*%
%TO.N,unconnected-(J1-Pad12)*%
X87500000Y-80710000D03*
%TO.P,J1,13,Pin_13*%
%TO.N,/RX*%
X87500000Y-81980000D03*
%TO.P,J1,14,Pin_14*%
%TO.N,/TX*%
X87500000Y-83250000D03*
%TO.P,J1,15,Pin_15*%
%TO.N,unconnected-(J1-Pad15)*%
X87500000Y-84520000D03*
%TO.P,J1,16,Pin_16*%
%TO.N,unconnected-(J1-Pad16)*%
X87500000Y-85790000D03*
%TO.P,J1,17,Pin_17*%
%TO.N,unconnected-(J1-Pad17)*%
X87500000Y-87060000D03*
%TO.P,J1,18,Pin_18*%
%TO.N,unconnected-(J1-Pad18)*%
X87500000Y-88330000D03*
%TD*%
D12*
%TO.P,C1,1*%
%TO.N,+3V3*%
X76300000Y-86362500D03*
%TO.P,C1,2*%
%TO.N,GND*%
X76300000Y-84462500D03*
%TD*%
D13*
%TO.P,R1,1*%
%TO.N,+3V3*%
X76275000Y-88200000D03*
%TO.P,R1,2*%
%TO.N,/IO19*%
X76275000Y-90025000D03*
%TD*%
%TO.P,R3,1*%
%TO.N,+3V3*%
X80900000Y-88200000D03*
%TO.P,R3,2*%
%TO.N,/IO23*%
X80900000Y-90025000D03*
%TD*%
%TO.P,R2,1*%
%TO.N,+3V3*%
X78300000Y-88200000D03*
%TO.P,R2,2*%
%TO.N,/IO18*%
X78300000Y-90025000D03*
%TD*%
D14*
%TO.P,J2,1,DAT2*%
%TO.N,unconnected-(J2-Pad1)*%
X82880000Y-92474500D03*
%TO.P,J2,2,DAT3/CD*%
%TO.N,/IO5*%
X81780000Y-92474500D03*
%TO.P,J2,3,CMD*%
%TO.N,/IO23*%
X80680000Y-92474500D03*
%TO.P,J2,4,VDD*%
%TO.N,+3V3*%
X79579999Y-92474500D03*
%TO.P,J2,5,CLK*%
%TO.N,/IO18*%
X78479999Y-92474500D03*
%TO.P,J2,6,VSS*%
%TO.N,GND*%
X77379999Y-92474500D03*
%TO.P,J2,7,DAT0*%
%TO.N,/IO19*%
X76279998Y-92474500D03*
%TO.P,J2,8,DAT1*%
%TO.N,unconnected-(J2-Pad8)*%
X75180000Y-92474500D03*
D15*
%TO.P,J2,9,SHIELD*%
%TO.N,unconnected-(J2-Pad9)*%
X84669999Y-104939499D03*
D16*
%TO.P,J2,10*%
%TO.N,N/C*%
X80190001Y-105014500D03*
D17*
%TO.P,J2,11*%
X86760000Y-92489500D03*
D18*
%TO.P,J2,12*%
X74100000Y-92974500D03*
D19*
%TO.P,J2,13*%
X86980000Y-103739499D03*
%TO.P,J2,14*%
X74020000Y-103739499D03*
%TD*%
D13*
%TO.P,R4,1*%
%TO.N,+3V3*%
X82900000Y-88200000D03*
%TO.P,R4,2*%
%TO.N,/IO5*%
X82900000Y-90025000D03*
%TD*%
D20*
%TO.P,JP1,1,A*%
%TO.N,GND*%
X82200000Y-81450000D03*
%TO.P,JP1,2,B*%
%TO.N,Net-(JP1-Pad2)*%
X82200000Y-80150000D03*
%TD*%
D21*
%TO.N,/RX*%
X89800000Y-82524500D03*
X89800000Y-80900000D03*
%TO.N,Net-(JP1-Pad2)*%
X80800000Y-80100000D03*
%TO.N,+3V3*%
X76600000Y-78800000D03*
X88550000Y-101750000D03*
X81850000Y-99850000D03*
%TO.N,/IO19*%
X76600000Y-91100000D03*
%TO.N,/IO18*%
X78350008Y-91149992D03*
%TO.N,/IO23*%
X80680000Y-91120000D03*
X89800000Y-78800000D03*
X88600000Y-84600000D03*
%TO.N,/IO5*%
X84350000Y-92200000D03*
%TO.N,Net-(J1-Pad9)*%
X88600000Y-99600000D03*
%TD*%
D22*
%TO.N,Net-(J1-Pad9)*%
X88575000Y-89325000D02*
X91600000Y-86300000D01*
X91600000Y-86300000D02*
X91600000Y-78200000D01*
X88575000Y-99575000D02*
X88575000Y-89325000D01*
X91600000Y-78200000D02*
X90300000Y-76900000D01*
X90300000Y-76900000D02*
X87500000Y-76900000D01*
D23*
%TO.N,/RX*%
X89800000Y-82524500D02*
X89800000Y-80900000D01*
D24*
%TO.N,/IO23*%
X88600000Y-80000000D02*
X89800000Y-78800000D01*
X88600000Y-84600000D02*
X88600000Y-80000000D01*
D23*
%TO.N,Net-(JP1-Pad2)*%
X80850000Y-80150000D02*
X80800000Y-80100000D01*
X82200000Y-80150000D02*
X80850000Y-80150000D01*
D25*
%TO.N,+3V3*%
X76275000Y-86775000D02*
X76300000Y-86750000D01*
X79579999Y-92474500D02*
X79579999Y-88179999D01*
D23*
X78300000Y-88200000D02*
X76275000Y-88200000D01*
D25*
X79579999Y-98229999D02*
X81200000Y-99850000D01*
X81200000Y-99850000D02*
X81850000Y-99850000D01*
X78300000Y-88487500D02*
X78012500Y-88200000D01*
X81850000Y-99850000D02*
X86650000Y-99850000D01*
X76275000Y-88200000D02*
X76275000Y-86775000D01*
D23*
X82900000Y-88200000D02*
X80900000Y-88200000D01*
X78300000Y-88200000D02*
X79559998Y-88200000D01*
D25*
X79579999Y-81795001D02*
X79587500Y-81787500D01*
D23*
X79559998Y-88200000D02*
X79579999Y-88179999D01*
X80900000Y-88200000D02*
X79600000Y-88200000D01*
D25*
X79579999Y-92474500D02*
X79579999Y-98229999D01*
X80900000Y-88487500D02*
X80612500Y-88200000D01*
X79579999Y-88179999D02*
X79579999Y-81795001D01*
X86650000Y-99850000D02*
X88550000Y-101750000D01*
X79587500Y-81787500D02*
X76600000Y-78800000D01*
D23*
X79600000Y-88200000D02*
X79579999Y-88179999D01*
%TO.N,/IO19*%
X76279998Y-90317498D02*
X76275000Y-90312500D01*
D24*
X76600000Y-91250000D02*
X76600000Y-91100000D01*
X76279998Y-91570002D02*
X76600000Y-91250000D01*
D23*
X76279998Y-92474500D02*
X76279998Y-91570002D01*
D24*
X76279998Y-92474500D02*
X76279998Y-90317498D01*
D23*
%TO.N,/IO18*%
X78350008Y-91149992D02*
X78350008Y-91150008D01*
X78350008Y-91150008D02*
X78479999Y-91279999D01*
D24*
X78479999Y-92474500D02*
X78479999Y-91279999D01*
D23*
X78350008Y-91149992D02*
X78300000Y-91099984D01*
X78300000Y-91099984D02*
X78300000Y-90312500D01*
D24*
%TO.N,/IO23*%
X80680000Y-92474500D02*
X80680000Y-91120000D01*
X80680000Y-91120000D02*
X80900000Y-90900000D01*
X80900000Y-90900000D02*
X80900000Y-90025000D01*
%TO.N,/IO5*%
X81780000Y-91520000D02*
X81780000Y-92474500D01*
X84350000Y-92200000D02*
X84350000Y-91850000D01*
X82900000Y-90400000D02*
X81780000Y-91520000D01*
D23*
X82900000Y-90312500D02*
X82900000Y-90400000D01*
D24*
X84350000Y-91850000D02*
X82900000Y-90400000D01*
D25*
%TO.N,Net-(J1-Pad9)*%
X88575000Y-99575000D02*
X88600000Y-99600000D01*
%TD*%
%TA.AperFunction,Conductor*%
%TO.N,GND*%
G36*
X93970018Y-75510000D02*
G01*
X93984852Y-75512310D01*
X93984855Y-75512310D01*
X93993724Y-75513691D01*
X94002626Y-75512527D01*
X94002750Y-75512511D01*
X94033192Y-75512240D01*
X94040621Y-75513077D01*
X94095264Y-75519234D01*
X94122771Y-75525513D01*
X94199853Y-75552485D01*
X94225274Y-75564727D01*
X94294426Y-75608178D01*
X94316485Y-75625770D01*
X94374230Y-75683515D01*
X94391822Y-75705574D01*
X94435273Y-75774726D01*
X94447515Y-75800147D01*
X94474487Y-75877228D01*
X94480766Y-75904736D01*
X94487018Y-75960226D01*
X94486923Y-75975868D01*
X94487800Y-75975879D01*
X94487690Y-75984851D01*
X94486309Y-75993724D01*
X94487473Y-76002626D01*
X94487473Y-76002628D01*
X94490436Y-76025283D01*
X94491500Y-76041621D01*
X94491500Y-105950633D01*
X94490000Y-105970018D01*
X94486309Y-105993724D01*
X94487473Y-106002626D01*
X94487489Y-106002750D01*
X94487760Y-106033192D01*
X94485430Y-106053870D01*
X94480766Y-106095264D01*
X94474487Y-106122771D01*
X94447515Y-106199853D01*
X94435273Y-106225274D01*
X94391822Y-106294426D01*
X94374230Y-106316485D01*
X94316485Y-106374230D01*
X94294426Y-106391822D01*
X94225274Y-106435273D01*
X94199853Y-106447515D01*
X94122772Y-106474487D01*
X94095264Y-106480766D01*
X94039774Y-106487018D01*
X94024132Y-106486923D01*
X94024121Y-106487800D01*
X94015149Y-106487690D01*
X94006276Y-106486309D01*
X93997374Y-106487473D01*
X93997372Y-106487473D01*
X93986385Y-106488910D01*
X93974714Y-106490436D01*
X93958379Y-106491500D01*
X73049367Y-106491500D01*
X73029982Y-106490000D01*
X73015148Y-106487690D01*
X73015145Y-106487690D01*
X73006276Y-106486309D01*
X72997374Y-106487473D01*
X72997250Y-106487489D01*
X72966808Y-106487760D01*
X72946130Y-106485430D01*
X72904736Y-106480766D01*
X72877229Y-106474487D01*
X72800147Y-106447515D01*
X72774726Y-106435273D01*
X72705574Y-106391822D01*
X72683515Y-106374230D01*
X72625770Y-106316485D01*
X72608178Y-106294426D01*
X72564727Y-106225274D01*
X72552485Y-106199853D01*
X72525513Y-106122772D01*
X72519234Y-106095266D01*
X72513170Y-106041451D01*
X72512888Y-106016640D01*
X72513576Y-106012552D01*
X72513729Y-106000000D01*
X72509773Y-105972376D01*
X72508500Y-105954514D01*
X72508500Y-105451333D01*
X73155900Y-105451333D01*
X73162655Y-105513515D01*
X73213785Y-105649904D01*
X73301139Y-105766460D01*
X73417695Y-105853814D01*
X73554084Y-105904944D01*
X73616266Y-105911699D01*
X74423734Y-105911699D01*
X74485916Y-105904944D01*
X74622305Y-105853814D01*
X74738861Y-105766460D01*
X74826215Y-105649904D01*
X74877345Y-105513515D01*
X74883557Y-105456334D01*
X79160801Y-105456334D01*
X79167556Y-105518516D01*
X79218686Y-105654905D01*
X79306040Y-105771461D01*
X79422596Y-105858815D01*
X79558985Y-105909945D01*
X79621167Y-105916700D01*
X80758835Y-105916700D01*
X80821017Y-105909945D01*
X80957406Y-105858815D01*
X81073962Y-105771461D01*
X81161316Y-105654905D01*
X81212446Y-105518516D01*
X81219071Y-105457533D01*
X83716999Y-105457533D01*
X83723754Y-105519715D01*
X83774884Y-105656104D01*
X83862238Y-105772660D01*
X83978794Y-105860014D01*
X84115183Y-105911144D01*
X84177365Y-105917899D01*
X85162633Y-105917899D01*
X85224815Y-105911144D01*
X85361204Y-105860014D01*
X85477760Y-105772660D01*
X85565114Y-105656104D01*
X85616244Y-105519715D01*
X85622999Y-105457533D01*
X85622999Y-104421465D01*
X85616244Y-104359283D01*
X85565114Y-104222894D01*
X85477760Y-104106338D01*
X85361204Y-104018984D01*
X85224815Y-103967854D01*
X85162633Y-103961099D01*
X84177365Y-103961099D01*
X84115183Y-103967854D01*
X83978794Y-104018984D01*
X83862238Y-104106338D01*
X83774884Y-104222894D01*
X83723754Y-104359283D01*
X83716999Y-104421465D01*
X83716999Y-105457533D01*
X81219071Y-105457533D01*
X81219201Y-105456334D01*
X81219201Y-104572666D01*
X81212446Y-104510484D01*
X81161316Y-104374095D01*
X81073962Y-104257539D01*
X80957406Y-104170185D01*
X80821017Y-104119055D01*
X80758835Y-104112300D01*
X79621167Y-104112300D01*
X79558985Y-104119055D01*
X79422596Y-104170185D01*
X79306040Y-104257539D01*
X79218686Y-104374095D01*
X79167556Y-104510484D01*
X79160801Y-104572666D01*
X79160801Y-105456334D01*
X74883557Y-105456334D01*
X74884100Y-105451333D01*
X74884100Y-102027665D01*
X74877345Y-101965483D01*
X74826215Y-101829094D01*
X74738861Y-101712538D01*
X74622305Y-101625184D01*
X74485916Y-101574054D01*
X74423734Y-101567299D01*
X73616266Y-101567299D01*
X73554084Y-101574054D01*
X73417695Y-101625184D01*
X73301139Y-101712538D01*
X73213785Y-101829094D01*
X73162655Y-101965483D01*
X73155900Y-102027665D01*
X73155900Y-105451333D01*
X72508500Y-105451333D01*
X72508500Y-94419634D01*
X73159700Y-94419634D01*
X73166455Y-94481816D01*
X73217585Y-94618205D01*
X73304939Y-94734761D01*
X73421495Y-94822115D01*
X73557884Y-94873245D01*
X73620066Y-94880000D01*
X74579934Y-94880000D01*
X74642116Y-94873245D01*
X74778505Y-94822115D01*
X74895061Y-94734761D01*
X74982415Y-94618205D01*
X75033545Y-94481816D01*
X75040300Y-94419634D01*
X75040300Y-93655100D01*
X75060302Y-93586979D01*
X75113958Y-93540486D01*
X75166300Y-93529100D01*
X75583734Y-93529100D01*
X75588346Y-93528599D01*
X75638066Y-93523198D01*
X75638068Y-93523198D01*
X75645916Y-93522345D01*
X75685772Y-93507404D01*
X75756578Y-93502222D01*
X75774225Y-93507403D01*
X75814082Y-93522345D01*
X75821930Y-93523198D01*
X75821932Y-93523198D01*
X75871652Y-93528599D01*
X75876264Y-93529100D01*
X76683732Y-93529100D01*
X76745914Y-93522345D01*
X76786481Y-93507137D01*
X76857288Y-93501954D01*
X76874942Y-93507137D01*
X76906797Y-93519079D01*
X76922048Y-93522705D01*
X76972913Y-93528231D01*
X76979727Y-93528600D01*
X77107884Y-93528600D01*
X77123123Y-93524125D01*
X77124328Y-93522735D01*
X77125999Y-93515052D01*
X77125999Y-93184018D01*
X77132885Y-93146034D01*
X77132742Y-93146000D01*
X77133369Y-93143364D01*
X77134017Y-93139788D01*
X77134569Y-93138315D01*
X77137343Y-93130916D01*
X77144098Y-93068734D01*
X77144098Y-92346500D01*
X77164100Y-92278379D01*
X77217756Y-92231886D01*
X77270098Y-92220500D01*
X77489899Y-92220500D01*
X77558020Y-92240502D01*
X77604513Y-92294158D01*
X77615899Y-92346500D01*
X77615899Y-93068734D01*
X77616268Y-93072131D01*
X77621801Y-93123060D01*
X77622654Y-93130916D01*
X77625426Y-93138311D01*
X77625427Y-93138314D01*
X77625981Y-93139792D01*
X77626631Y-93143379D01*
X77627254Y-93145998D01*
X77627112Y-93146032D01*
X77633999Y-93184020D01*
X77633999Y-93510484D01*
X77638474Y-93525723D01*
X77639864Y-93526928D01*
X77647547Y-93528599D01*
X77780268Y-93528599D01*
X77787089Y-93528229D01*
X77837951Y-93522705D01*
X77853199Y-93519080D01*
X77885056Y-93507137D01*
X77955863Y-93501954D01*
X77973508Y-93507134D01*
X78014083Y-93522345D01*
X78076265Y-93529100D01*
X78745499Y-93529100D01*
X78813620Y-93549102D01*
X78860113Y-93602758D01*
X78871499Y-93655100D01*
X78871499Y-98201087D01*
X78871207Y-98209657D01*
X78867274Y-98267351D01*
X78868579Y-98274828D01*
X78868579Y-98274829D01*
X78878260Y-98330298D01*
X78879222Y-98336820D01*
X78886897Y-98400241D01*
X78889580Y-98407342D01*
X78890221Y-98409951D01*
X78894684Y-98426261D01*
X78895449Y-98428797D01*
X78896756Y-98436283D01*
X78899810Y-98443240D01*
X78922441Y-98494794D01*
X78924932Y-98500898D01*
X78947512Y-98560655D01*
X78951816Y-98566918D01*
X78953053Y-98569284D01*
X78961298Y-98584096D01*
X78962631Y-98586350D01*
X78965684Y-98593304D01*
X78970306Y-98599327D01*
X79004578Y-98643990D01*
X79008458Y-98649331D01*
X79040338Y-98695719D01*
X79040343Y-98695724D01*
X79044642Y-98701980D01*
X79050312Y-98707031D01*
X79050313Y-98707033D01*
X79091169Y-98743434D01*
X79096445Y-98748415D01*
X80678557Y-100330528D01*
X80684411Y-100336793D01*
X80722439Y-100380385D01*
X80774729Y-100417136D01*
X80779971Y-100421028D01*
X80830282Y-100460476D01*
X80837201Y-100463600D01*
X80839493Y-100464988D01*
X80854165Y-100473357D01*
X80856525Y-100474622D01*
X80862739Y-100478990D01*
X80869818Y-100481750D01*
X80869820Y-100481751D01*
X80922275Y-100502202D01*
X80928344Y-100504753D01*
X80986573Y-100531045D01*
X80994046Y-100532430D01*
X80996612Y-100533234D01*
X81012835Y-100537855D01*
X81015427Y-100538520D01*
X81022509Y-100541282D01*
X81030044Y-100542274D01*
X81085861Y-100549622D01*
X81092377Y-100550654D01*
X81130770Y-100557770D01*
X81155186Y-100562295D01*
X81162766Y-100561858D01*
X81162767Y-100561858D01*
X81217380Y-100558709D01*
X81224633Y-100558500D01*
X81238595Y-100558500D01*
X81306716Y-100578502D01*
X81312656Y-100582564D01*
X81393248Y-100641118D01*
X81399276Y-100643802D01*
X81399278Y-100643803D01*
X81561681Y-100716109D01*
X81567712Y-100718794D01*
X81661113Y-100738647D01*
X81748056Y-100757128D01*
X81748061Y-100757128D01*
X81754513Y-100758500D01*
X81945487Y-100758500D01*
X81951939Y-100757128D01*
X81951944Y-100757128D01*
X82038888Y-100738647D01*
X82132288Y-100718794D01*
X82138319Y-100716109D01*
X82300722Y-100643803D01*
X82300724Y-100643802D01*
X82306752Y-100641118D01*
X82387344Y-100582564D01*
X82454211Y-100558706D01*
X82461405Y-100558500D01*
X86304340Y-100558500D01*
X86372461Y-100578502D01*
X86393435Y-100595405D01*
X87150234Y-101352204D01*
X87184260Y-101414516D01*
X87179195Y-101485331D01*
X87136648Y-101542167D01*
X87070128Y-101566978D01*
X87061139Y-101567299D01*
X86576266Y-101567299D01*
X86514084Y-101574054D01*
X86377695Y-101625184D01*
X86261139Y-101712538D01*
X86173785Y-101829094D01*
X86122655Y-101965483D01*
X86115900Y-102027665D01*
X86115900Y-105451333D01*
X86122655Y-105513515D01*
X86173785Y-105649904D01*
X86261139Y-105766460D01*
X86377695Y-105853814D01*
X86514084Y-105904944D01*
X86576266Y-105911699D01*
X87383734Y-105911699D01*
X87445916Y-105904944D01*
X87582305Y-105853814D01*
X87698861Y-105766460D01*
X87786215Y-105649904D01*
X87837345Y-105513515D01*
X87844100Y-105451333D01*
X87844100Y-102747064D01*
X91067707Y-102747064D01*
X91096825Y-102939599D01*
X91099028Y-102945585D01*
X91099029Y-102945591D01*
X91161860Y-103116360D01*
X91161862Y-103116365D01*
X91164063Y-103122346D01*
X91266674Y-103287840D01*
X91400466Y-103429322D01*
X91559975Y-103541011D01*
X91565838Y-103543548D01*
X91732825Y-103615810D01*
X91732829Y-103615811D01*
X91738684Y-103618345D01*
X91744931Y-103619650D01*
X91744934Y-103619651D01*
X91924557Y-103657176D01*
X91924562Y-103657177D01*
X91929293Y-103658165D01*
X91935685Y-103658500D01*
X92078663Y-103658500D01*
X92147951Y-103651462D01*
X92217378Y-103644410D01*
X92217379Y-103644410D01*
X92223727Y-103643765D01*
X92304843Y-103618345D01*
X92403451Y-103587444D01*
X92403456Y-103587442D01*
X92409541Y-103585535D01*
X92496475Y-103537346D01*
X92574271Y-103494223D01*
X92574274Y-103494221D01*
X92579850Y-103491130D01*
X92584691Y-103486981D01*
X92584695Y-103486978D01*
X92722855Y-103368560D01*
X92727698Y-103364409D01*
X92847046Y-103210547D01*
X92887779Y-103127768D01*
X92930200Y-103041556D01*
X92933018Y-103035829D01*
X92934628Y-103029649D01*
X92980492Y-102853575D01*
X92980492Y-102853572D01*
X92982102Y-102847393D01*
X92992293Y-102652936D01*
X92963175Y-102460401D01*
X92960972Y-102454415D01*
X92960971Y-102454409D01*
X92898140Y-102283640D01*
X92898138Y-102283635D01*
X92895937Y-102277654D01*
X92793326Y-102112160D01*
X92659534Y-101970678D01*
X92500025Y-101858989D01*
X92450371Y-101837502D01*
X92327175Y-101784190D01*
X92327171Y-101784189D01*
X92321316Y-101781655D01*
X92315069Y-101780350D01*
X92315066Y-101780349D01*
X92135443Y-101742824D01*
X92135438Y-101742823D01*
X92130707Y-101741835D01*
X92124315Y-101741500D01*
X91981337Y-101741500D01*
X91912049Y-101748538D01*
X91842622Y-101755590D01*
X91842621Y-101755590D01*
X91836273Y-101756235D01*
X91779939Y-101773889D01*
X91656549Y-101812556D01*
X91656544Y-101812558D01*
X91650459Y-101814465D01*
X91608900Y-101837502D01*
X91485729Y-101905777D01*
X91485726Y-101905779D01*
X91480150Y-101908870D01*
X91475309Y-101913019D01*
X91475305Y-101913022D01*
X91402627Y-101975315D01*
X91332302Y-102035591D01*
X91212954Y-102189453D01*
X91210138Y-102195176D01*
X91210136Y-102195179D01*
X91129800Y-102358444D01*
X91126982Y-102364171D01*
X91125373Y-102370349D01*
X91125372Y-102370351D01*
X91080891Y-102541118D01*
X91077898Y-102552607D01*
X91067707Y-102747064D01*
X87844100Y-102747064D01*
X87844100Y-102607390D01*
X87864102Y-102539269D01*
X87917758Y-102492776D01*
X87988032Y-102482672D01*
X88044161Y-102505454D01*
X88093248Y-102541118D01*
X88099276Y-102543802D01*
X88099278Y-102543803D01*
X88133380Y-102558986D01*
X88267712Y-102618794D01*
X88361113Y-102638647D01*
X88448056Y-102657128D01*
X88448061Y-102657128D01*
X88454513Y-102658500D01*
X88645487Y-102658500D01*
X88651939Y-102657128D01*
X88651944Y-102657128D01*
X88738887Y-102638647D01*
X88832288Y-102618794D01*
X88966620Y-102558986D01*
X89000722Y-102543803D01*
X89000724Y-102543802D01*
X89006752Y-102541118D01*
X89161253Y-102428866D01*
X89289040Y-102286944D01*
X89384527Y-102121556D01*
X89443542Y-101939928D01*
X89447132Y-101905777D01*
X89462814Y-101756565D01*
X89463504Y-101750000D01*
X89450952Y-101630570D01*
X89444232Y-101566635D01*
X89444232Y-101566633D01*
X89443542Y-101560072D01*
X89384527Y-101378444D01*
X89289040Y-101213056D01*
X89161253Y-101071134D01*
X89006752Y-100958882D01*
X89000724Y-100956198D01*
X89000722Y-100956197D01*
X88838319Y-100883891D01*
X88838318Y-100883891D01*
X88832288Y-100881206D01*
X88679431Y-100848715D01*
X88616533Y-100814563D01*
X88525565Y-100723595D01*
X88491539Y-100661283D01*
X88496604Y-100590468D01*
X88539151Y-100533632D01*
X88605671Y-100508821D01*
X88614660Y-100508500D01*
X88695487Y-100508500D01*
X88701939Y-100507128D01*
X88701944Y-100507128D01*
X88821330Y-100481751D01*
X88882288Y-100468794D01*
X88888319Y-100466109D01*
X89050722Y-100393803D01*
X89050724Y-100393802D01*
X89056752Y-100391118D01*
X89211253Y-100278866D01*
X89339040Y-100136944D01*
X89434527Y-99971556D01*
X89493542Y-99789928D01*
X89498047Y-99747064D01*
X91067707Y-99747064D01*
X91096825Y-99939599D01*
X91099028Y-99945585D01*
X91099029Y-99945591D01*
X91161860Y-100116360D01*
X91161862Y-100116365D01*
X91164063Y-100122346D01*
X91266674Y-100287840D01*
X91271055Y-100292473D01*
X91271056Y-100292474D01*
X91366878Y-100393803D01*
X91400466Y-100429322D01*
X91405696Y-100432984D01*
X91405697Y-100432985D01*
X91475343Y-100481751D01*
X91559975Y-100541011D01*
X91565838Y-100543548D01*
X91732825Y-100615810D01*
X91732829Y-100615811D01*
X91738684Y-100618345D01*
X91744931Y-100619650D01*
X91744934Y-100619651D01*
X91924557Y-100657176D01*
X91924562Y-100657177D01*
X91929293Y-100658165D01*
X91935685Y-100658500D01*
X92078663Y-100658500D01*
X92147951Y-100651462D01*
X92217378Y-100644410D01*
X92217379Y-100644410D01*
X92223727Y-100643765D01*
X92304843Y-100618345D01*
X92403451Y-100587444D01*
X92403456Y-100587442D01*
X92409541Y-100585535D01*
X92513484Y-100527918D01*
X92574271Y-100494223D01*
X92574274Y-100494221D01*
X92579850Y-100491130D01*
X92584691Y-100486981D01*
X92584695Y-100486978D01*
X92722855Y-100368560D01*
X92727698Y-100364409D01*
X92847046Y-100210547D01*
X92887779Y-100127768D01*
X92930200Y-100041556D01*
X92933018Y-100035829D01*
X92952867Y-99959627D01*
X92980492Y-99853575D01*
X92980492Y-99853572D01*
X92982102Y-99847393D01*
X92989772Y-99701035D01*
X92991959Y-99659317D01*
X92991959Y-99659313D01*
X92992293Y-99652936D01*
X92963175Y-99460401D01*
X92960972Y-99454415D01*
X92960971Y-99454409D01*
X92898140Y-99283640D01*
X92898138Y-99283635D01*
X92895937Y-99277654D01*
X92793326Y-99112160D01*
X92787787Y-99106302D01*
X92663919Y-98975315D01*
X92659534Y-98970678D01*
X92617864Y-98941500D01*
X92505259Y-98862654D01*
X92500025Y-98858989D01*
X92452013Y-98838212D01*
X92327175Y-98784190D01*
X92327171Y-98784189D01*
X92321316Y-98781655D01*
X92315069Y-98780350D01*
X92315066Y-98780349D01*
X92135443Y-98742824D01*
X92135438Y-98742823D01*
X92130707Y-98741835D01*
X92124315Y-98741500D01*
X91981337Y-98741500D01*
X91938561Y-98745845D01*
X91842622Y-98755590D01*
X91842621Y-98755590D01*
X91836273Y-98756235D01*
X91779939Y-98773889D01*
X91656549Y-98812556D01*
X91656544Y-98812558D01*
X91650459Y-98814465D01*
X91574713Y-98856452D01*
X91485729Y-98905777D01*
X91485726Y-98905779D01*
X91480150Y-98908870D01*
X91475309Y-98913019D01*
X91475305Y-98913022D01*
X91341542Y-99027671D01*
X91332302Y-99035591D01*
X91328391Y-99040633D01*
X91328390Y-99040634D01*
X91311225Y-99062763D01*
X91212954Y-99189453D01*
X91210138Y-99195176D01*
X91210136Y-99195179D01*
X91168921Y-99278939D01*
X91126982Y-99364171D01*
X91125373Y-99370349D01*
X91125372Y-99370351D01*
X91103477Y-99454409D01*
X91077898Y-99552607D01*
X91075414Y-99600000D01*
X91069978Y-99703738D01*
X91067707Y-99747064D01*
X89498047Y-99747064D01*
X89513504Y-99600000D01*
X89493542Y-99410072D01*
X89434527Y-99228444D01*
X89416834Y-99197798D01*
X89350381Y-99082699D01*
X89333500Y-99019699D01*
X89333500Y-89691371D01*
X89353502Y-89623250D01*
X89370405Y-89602276D01*
X92088911Y-86883770D01*
X92103323Y-86871384D01*
X92114918Y-86862851D01*
X92114923Y-86862846D01*
X92120818Y-86858508D01*
X92125557Y-86852930D01*
X92125560Y-86852927D01*
X92155035Y-86818232D01*
X92161965Y-86810716D01*
X92167660Y-86805021D01*
X92185281Y-86782749D01*
X92188072Y-86779345D01*
X92230591Y-86729297D01*
X92230592Y-86729295D01*
X92235333Y-86723715D01*
X92238661Y-86717199D01*
X92242028Y-86712150D01*
X92245195Y-86707021D01*
X92249734Y-86701284D01*
X92280655Y-86635125D01*
X92282561Y-86631225D01*
X92315769Y-86566192D01*
X92317508Y-86559084D01*
X92319607Y-86553441D01*
X92321524Y-86547678D01*
X92324622Y-86541050D01*
X92339487Y-86469583D01*
X92340457Y-86465299D01*
X92356473Y-86399845D01*
X92357808Y-86394390D01*
X92358500Y-86383236D01*
X92358536Y-86383238D01*
X92358775Y-86379245D01*
X92359149Y-86375053D01*
X92360640Y-86367885D01*
X92358546Y-86290479D01*
X92358500Y-86287072D01*
X92358500Y-78267070D01*
X92359933Y-78248120D01*
X92362099Y-78233885D01*
X92362099Y-78233881D01*
X92363199Y-78226651D01*
X92358915Y-78173982D01*
X92358500Y-78163767D01*
X92358500Y-78155707D01*
X92355209Y-78127480D01*
X92354778Y-78123121D01*
X92354617Y-78121134D01*
X92348860Y-78050364D01*
X92346604Y-78043400D01*
X92345417Y-78037461D01*
X92344030Y-78031590D01*
X92343182Y-78024319D01*
X92340686Y-78017443D01*
X92340684Y-78017434D01*
X92318275Y-77955702D01*
X92316865Y-77951598D01*
X92294352Y-77882101D01*
X92290556Y-77875846D01*
X92288057Y-77870387D01*
X92285329Y-77864939D01*
X92282833Y-77858063D01*
X92242805Y-77797010D01*
X92240481Y-77793327D01*
X92205504Y-77735686D01*
X92205501Y-77735682D01*
X92202595Y-77730893D01*
X92195197Y-77722517D01*
X92195224Y-77722493D01*
X92192579Y-77719511D01*
X92189872Y-77716274D01*
X92185856Y-77710148D01*
X92129598Y-77656854D01*
X92127157Y-77654477D01*
X90883770Y-76411089D01*
X90871384Y-76396677D01*
X90862851Y-76385082D01*
X90862846Y-76385077D01*
X90858508Y-76379182D01*
X90852930Y-76374443D01*
X90852927Y-76374440D01*
X90818232Y-76344965D01*
X90810716Y-76338035D01*
X90805021Y-76332340D01*
X90798880Y-76327482D01*
X90782749Y-76314719D01*
X90779345Y-76311928D01*
X90729297Y-76269409D01*
X90729295Y-76269408D01*
X90723715Y-76264667D01*
X90717199Y-76261339D01*
X90712150Y-76257972D01*
X90707021Y-76254805D01*
X90701284Y-76250266D01*
X90635125Y-76219345D01*
X90631225Y-76217439D01*
X90566192Y-76184231D01*
X90559084Y-76182492D01*
X90553441Y-76180393D01*
X90547678Y-76178476D01*
X90541050Y-76175378D01*
X90469583Y-76160513D01*
X90465299Y-76159543D01*
X90439765Y-76153295D01*
X90394390Y-76142192D01*
X90388788Y-76141844D01*
X90388785Y-76141844D01*
X90383236Y-76141500D01*
X90383238Y-76141464D01*
X90379245Y-76141225D01*
X90375053Y-76140851D01*
X90367885Y-76139360D01*
X90301675Y-76141151D01*
X90290479Y-76141454D01*
X90287072Y-76141500D01*
X88504802Y-76141500D01*
X88436681Y-76121498D01*
X88403976Y-76091065D01*
X88368642Y-76043919D01*
X88363261Y-76036739D01*
X88246705Y-75949385D01*
X88110316Y-75898255D01*
X88048134Y-75891500D01*
X86951866Y-75891500D01*
X86889684Y-75898255D01*
X86753295Y-75949385D01*
X86636739Y-76036739D01*
X86549385Y-76153295D01*
X86498255Y-76289684D01*
X86491500Y-76351866D01*
X86491500Y-77448134D01*
X86498255Y-77510316D01*
X86549385Y-77646705D01*
X86554771Y-77653892D01*
X86559079Y-77661760D01*
X86556858Y-77662976D01*
X86577013Y-77716910D01*
X86567993Y-77770605D01*
X86568567Y-77770787D01*
X86566706Y-77776654D01*
X86566705Y-77776656D01*
X86518114Y-77929834D01*
X86508765Y-77959306D01*
X86486719Y-78155851D01*
X86503268Y-78352934D01*
X86557783Y-78543050D01*
X86560602Y-78548535D01*
X86616228Y-78656770D01*
X86648187Y-78718956D01*
X86654164Y-78726497D01*
X86654843Y-78728174D01*
X86655353Y-78728966D01*
X86655203Y-78729063D01*
X86680802Y-78792304D01*
X86667633Y-78862069D01*
X86664254Y-78867754D01*
X86664262Y-78867758D01*
X86571998Y-79035585D01*
X86567166Y-79046858D01*
X86528506Y-79168731D01*
X86528202Y-79182831D01*
X86534763Y-79186000D01*
X87628000Y-79186000D01*
X87696121Y-79206002D01*
X87742614Y-79259658D01*
X87754000Y-79312000D01*
X87754000Y-79568000D01*
X87733998Y-79636121D01*
X87680342Y-79682614D01*
X87628000Y-79694000D01*
X86542282Y-79694000D01*
X86528751Y-79697973D01*
X86527601Y-79705975D01*
X86556552Y-79806941D01*
X86561067Y-79818345D01*
X86645794Y-79983207D01*
X86652432Y-79993507D01*
X86654131Y-79995650D01*
X86654667Y-79996975D01*
X86655774Y-79998692D01*
X86655448Y-79998902D01*
X86680770Y-80061460D01*
X86667600Y-80131224D01*
X86663979Y-80137316D01*
X86663846Y-80137474D01*
X86663370Y-80138341D01*
X86663364Y-80138350D01*
X86617854Y-80221134D01*
X86568567Y-80310787D01*
X86566706Y-80316654D01*
X86566705Y-80316656D01*
X86517568Y-80471556D01*
X86508765Y-80499306D01*
X86486719Y-80695851D01*
X86487235Y-80701995D01*
X86499466Y-80847651D01*
X86503268Y-80892934D01*
X86504967Y-80898858D01*
X86542142Y-81028502D01*
X86557783Y-81083050D01*
X86560602Y-81088535D01*
X86632368Y-81228175D01*
X86648187Y-81258956D01*
X86652016Y-81263787D01*
X86653839Y-81266088D01*
X86654414Y-81267509D01*
X86655353Y-81268966D01*
X86655076Y-81269144D01*
X86680474Y-81331898D01*
X86667301Y-81401662D01*
X86663846Y-81407474D01*
X86568567Y-81580787D01*
X86566706Y-81586654D01*
X86566705Y-81586656D01*
X86545389Y-81653853D01*
X86508765Y-81769306D01*
X86486719Y-81965851D01*
X86487235Y-81971995D01*
X86502670Y-82155808D01*
X86503268Y-82162934D01*
X86504967Y-82168858D01*
X86552485Y-82334572D01*
X86557783Y-82353050D01*
X86648187Y-82528956D01*
X86652016Y-82533787D01*
X86653839Y-82536088D01*
X86654414Y-82537509D01*
X86655353Y-82538966D01*
X86655076Y-82539144D01*
X86680474Y-82601898D01*
X86667301Y-82671662D01*
X86663846Y-82677474D01*
X86568567Y-82850787D01*
X86508765Y-83039306D01*
X86486719Y-83235851D01*
X86487235Y-83241995D01*
X86500821Y-83403788D01*
X86503268Y-83432934D01*
X86557783Y-83623050D01*
X86560602Y-83628535D01*
X86620838Y-83745740D01*
X86648187Y-83798956D01*
X86652016Y-83803787D01*
X86653839Y-83806088D01*
X86654414Y-83807509D01*
X86655353Y-83808966D01*
X86655076Y-83809144D01*
X86680474Y-83871898D01*
X86667301Y-83941662D01*
X86663846Y-83947474D01*
X86568567Y-84120787D01*
X86508765Y-84309306D01*
X86486719Y-84505851D01*
X86503268Y-84702934D01*
X86519515Y-84759595D01*
X86548425Y-84860414D01*
X86557783Y-84893050D01*
X86560602Y-84898535D01*
X86633952Y-85041257D01*
X86648187Y-85068956D01*
X86652016Y-85073787D01*
X86653839Y-85076088D01*
X86654414Y-85077509D01*
X86655353Y-85078966D01*
X86655076Y-85079144D01*
X86680474Y-85141898D01*
X86667301Y-85211662D01*
X86663846Y-85217474D01*
X86568567Y-85390787D01*
X86566706Y-85396654D01*
X86566705Y-85396656D01*
X86525820Y-85525541D01*
X86508765Y-85579306D01*
X86486719Y-85775851D01*
X86487235Y-85781995D01*
X86501984Y-85957639D01*
X86503268Y-85972934D01*
X86504967Y-85978858D01*
X86529773Y-86065366D01*
X86557783Y-86163050D01*
X86648187Y-86338956D01*
X86652016Y-86343787D01*
X86653839Y-86346088D01*
X86654414Y-86347509D01*
X86655353Y-86348966D01*
X86655076Y-86349144D01*
X86680474Y-86411898D01*
X86667301Y-86481662D01*
X86663846Y-86487474D01*
X86568567Y-86660787D01*
X86566706Y-86666654D01*
X86566705Y-86666656D01*
X86519858Y-86814337D01*
X86508765Y-86849306D01*
X86486719Y-87045851D01*
X86487235Y-87051995D01*
X86500585Y-87210978D01*
X86503268Y-87242934D01*
X86513436Y-87278393D01*
X86552545Y-87414782D01*
X86557783Y-87433050D01*
X86648187Y-87608956D01*
X86652016Y-87613787D01*
X86653839Y-87616088D01*
X86654414Y-87617509D01*
X86655353Y-87618966D01*
X86655076Y-87619144D01*
X86680474Y-87681898D01*
X86667301Y-87751662D01*
X86663846Y-87757474D01*
X86568567Y-87930787D01*
X86566706Y-87936654D01*
X86566705Y-87936656D01*
X86519553Y-88085298D01*
X86508765Y-88119306D01*
X86486719Y-88315851D01*
X86503268Y-88512934D01*
X86557783Y-88703050D01*
X86648187Y-88878956D01*
X86771035Y-89033953D01*
X86921650Y-89162136D01*
X87094294Y-89258624D01*
X87282392Y-89319740D01*
X87478777Y-89343158D01*
X87484912Y-89342686D01*
X87484914Y-89342686D01*
X87675972Y-89327984D01*
X87676089Y-89329503D01*
X87739182Y-89336541D01*
X87794285Y-89381309D01*
X87816500Y-89452756D01*
X87816500Y-91051187D01*
X87796498Y-91119308D01*
X87742842Y-91165801D01*
X87672568Y-91175905D01*
X87614937Y-91152014D01*
X87578205Y-91124485D01*
X87441816Y-91073355D01*
X87379634Y-91066600D01*
X86140366Y-91066600D01*
X86078184Y-91073355D01*
X85941795Y-91124485D01*
X85825239Y-91211839D01*
X85737885Y-91328395D01*
X85686755Y-91464784D01*
X85680000Y-91526966D01*
X85680000Y-93452034D01*
X85686755Y-93514216D01*
X85737885Y-93650605D01*
X85825239Y-93767161D01*
X85941795Y-93854515D01*
X86078184Y-93905645D01*
X86140366Y-93912400D01*
X87379634Y-93912400D01*
X87441816Y-93905645D01*
X87578205Y-93854515D01*
X87614937Y-93826986D01*
X87681441Y-93802139D01*
X87750823Y-93817191D01*
X87801054Y-93867365D01*
X87816500Y-93927813D01*
X87816500Y-99106302D01*
X87799619Y-99169301D01*
X87765473Y-99228444D01*
X87706458Y-99410072D01*
X87705768Y-99416633D01*
X87705768Y-99416635D01*
X87687048Y-99594748D01*
X87660035Y-99660405D01*
X87601813Y-99701035D01*
X87530868Y-99703738D01*
X87472643Y-99670673D01*
X87171450Y-99369480D01*
X87165596Y-99363215D01*
X87161434Y-99358444D01*
X87127561Y-99319615D01*
X87075280Y-99282871D01*
X87069986Y-99278939D01*
X87025693Y-99244209D01*
X87019718Y-99239524D01*
X87012802Y-99236401D01*
X87010516Y-99235017D01*
X86995835Y-99226643D01*
X86993475Y-99225378D01*
X86987261Y-99221010D01*
X86980182Y-99218250D01*
X86980180Y-99218249D01*
X86927725Y-99197798D01*
X86921656Y-99195247D01*
X86863427Y-99168955D01*
X86855960Y-99167571D01*
X86853405Y-99166770D01*
X86837152Y-99162141D01*
X86834572Y-99161478D01*
X86827491Y-99158718D01*
X86819960Y-99157727D01*
X86819958Y-99157726D01*
X86790339Y-99153827D01*
X86764139Y-99150378D01*
X86757641Y-99149348D01*
X86694814Y-99137704D01*
X86687234Y-99138141D01*
X86687233Y-99138141D01*
X86632608Y-99141291D01*
X86625354Y-99141500D01*
X82461405Y-99141500D01*
X82393284Y-99121498D01*
X82387344Y-99117436D01*
X82312094Y-99062763D01*
X82312093Y-99062762D01*
X82306752Y-99058882D01*
X82300724Y-99056198D01*
X82300722Y-99056197D01*
X82138319Y-98983891D01*
X82138318Y-98983891D01*
X82132288Y-98981206D01*
X82038887Y-98961353D01*
X81951944Y-98942872D01*
X81951939Y-98942872D01*
X81945487Y-98941500D01*
X81754513Y-98941500D01*
X81748061Y-98942872D01*
X81748056Y-98942872D01*
X81661113Y-98961353D01*
X81567712Y-98981206D01*
X81561682Y-98983891D01*
X81561681Y-98983891D01*
X81484539Y-99018237D01*
X81414172Y-99027671D01*
X81349875Y-98997565D01*
X81344195Y-98992225D01*
X80325404Y-97973434D01*
X80291378Y-97911122D01*
X80288499Y-97884339D01*
X80288499Y-93655100D01*
X80308501Y-93586979D01*
X80362157Y-93540486D01*
X80414499Y-93529100D01*
X81083734Y-93529100D01*
X81145916Y-93522345D01*
X81185771Y-93507404D01*
X81256577Y-93502221D01*
X81274223Y-93507402D01*
X81314084Y-93522345D01*
X81376266Y-93529100D01*
X82183734Y-93529100D01*
X82245916Y-93522345D01*
X82285771Y-93507404D01*
X82356577Y-93502221D01*
X82374223Y-93507402D01*
X82414084Y-93522345D01*
X82476266Y-93529100D01*
X83283734Y-93529100D01*
X83345916Y-93522345D01*
X83482305Y-93471215D01*
X83598861Y-93383861D01*
X83686215Y-93267305D01*
X83737345Y-93130916D01*
X83740363Y-93103136D01*
X83767605Y-93037574D01*
X83825969Y-92997148D01*
X83896923Y-92994693D01*
X83916871Y-93001636D01*
X84067712Y-93068794D01*
X84161113Y-93088647D01*
X84248056Y-93107128D01*
X84248061Y-93107128D01*
X84254513Y-93108500D01*
X84445487Y-93108500D01*
X84451939Y-93107128D01*
X84451944Y-93107128D01*
X84538887Y-93088647D01*
X84632288Y-93068794D01*
X84783126Y-93001637D01*
X84800722Y-92993803D01*
X84800724Y-92993802D01*
X84806752Y-92991118D01*
X84961253Y-92878866D01*
X85089040Y-92736944D01*
X85184527Y-92571556D01*
X85243542Y-92389928D01*
X85248107Y-92346500D01*
X85262814Y-92206565D01*
X85263504Y-92200000D01*
X85243542Y-92010072D01*
X85184527Y-91828444D01*
X85089040Y-91663056D01*
X84961253Y-91521134D01*
X84955912Y-91517253D01*
X84955907Y-91517249D01*
X84910989Y-91484614D01*
X84884437Y-91455437D01*
X84883348Y-91456282D01*
X84878491Y-91450021D01*
X84874453Y-91443193D01*
X84859289Y-91428029D01*
X84846448Y-91412995D01*
X84838501Y-91402057D01*
X84833841Y-91395643D01*
X84798247Y-91366197D01*
X84789468Y-91358208D01*
X84096934Y-90665674D01*
X84062908Y-90603362D01*
X84066436Y-90536912D01*
X84095632Y-90448889D01*
X84095632Y-90448887D01*
X84097797Y-90442361D01*
X84108500Y-90337900D01*
X84108500Y-89712100D01*
X84100934Y-89639181D01*
X84098238Y-89613192D01*
X84098237Y-89613188D01*
X84097526Y-89606334D01*
X84041550Y-89438554D01*
X83948478Y-89288152D01*
X83861891Y-89201716D01*
X83827812Y-89139434D01*
X83832815Y-89068614D01*
X83861736Y-89023525D01*
X83944134Y-88940983D01*
X83949305Y-88935803D01*
X83984346Y-88878956D01*
X84038275Y-88791468D01*
X84038276Y-88791466D01*
X84042115Y-88785238D01*
X84097797Y-88617361D01*
X84108500Y-88512900D01*
X84108500Y-87887100D01*
X84097526Y-87781334D01*
X84064352Y-87681898D01*
X84043868Y-87620502D01*
X84041550Y-87613554D01*
X83948478Y-87463152D01*
X83823303Y-87338195D01*
X83817072Y-87334354D01*
X83678968Y-87249225D01*
X83678966Y-87249224D01*
X83672738Y-87245385D01*
X83569004Y-87210978D01*
X83511389Y-87191868D01*
X83511387Y-87191868D01*
X83504861Y-87189703D01*
X83498025Y-87189003D01*
X83498022Y-87189002D01*
X83454969Y-87184591D01*
X83400400Y-87179000D01*
X82399600Y-87179000D01*
X82396354Y-87179337D01*
X82396350Y-87179337D01*
X82300692Y-87189262D01*
X82300688Y-87189263D01*
X82293834Y-87189974D01*
X82287298Y-87192155D01*
X82287296Y-87192155D01*
X82155194Y-87236228D01*
X82126054Y-87245950D01*
X81975652Y-87339022D01*
X81975536Y-87339138D01*
X81912457Y-87364673D01*
X81842692Y-87351504D01*
X81825749Y-87340636D01*
X81823303Y-87338195D01*
X81720729Y-87274967D01*
X81678968Y-87249225D01*
X81678966Y-87249224D01*
X81672738Y-87245385D01*
X81569004Y-87210978D01*
X81511389Y-87191868D01*
X81511387Y-87191868D01*
X81504861Y-87189703D01*
X81498025Y-87189003D01*
X81498022Y-87189002D01*
X81454969Y-87184591D01*
X81400400Y-87179000D01*
X80414499Y-87179000D01*
X80346378Y-87158998D01*
X80299885Y-87105342D01*
X80288499Y-87053000D01*
X80288499Y-81994669D01*
X80942001Y-81994669D01*
X80942371Y-82001490D01*
X80947895Y-82052352D01*
X80951521Y-82067604D01*
X80996676Y-82188054D01*
X81005214Y-82203649D01*
X81081715Y-82305724D01*
X81094276Y-82318285D01*
X81196351Y-82394786D01*
X81211946Y-82403324D01*
X81332394Y-82448478D01*
X81347649Y-82452105D01*
X81398514Y-82457631D01*
X81405328Y-82458000D01*
X81927885Y-82458000D01*
X81943124Y-82453525D01*
X81944329Y-82452135D01*
X81946000Y-82444452D01*
X81946000Y-82439884D01*
X82454000Y-82439884D01*
X82458475Y-82455123D01*
X82459865Y-82456328D01*
X82467548Y-82457999D01*
X82994669Y-82457999D01*
X83001490Y-82457629D01*
X83052352Y-82452105D01*
X83067604Y-82448479D01*
X83188054Y-82403324D01*
X83203649Y-82394786D01*
X83305724Y-82318285D01*
X83318285Y-82305724D01*
X83394786Y-82203649D01*
X83403324Y-82188054D01*
X83448478Y-82067606D01*
X83452105Y-82052351D01*
X83457631Y-82001486D01*
X83458000Y-81994672D01*
X83458000Y-81722115D01*
X83453525Y-81706876D01*
X83452135Y-81705671D01*
X83444452Y-81704000D01*
X82472115Y-81704000D01*
X82456876Y-81708475D01*
X82455671Y-81709865D01*
X82454000Y-81717548D01*
X82454000Y-82439884D01*
X81946000Y-82439884D01*
X81946000Y-81722115D01*
X81941525Y-81706876D01*
X81940135Y-81705671D01*
X81932452Y-81704000D01*
X80960116Y-81704000D01*
X80944877Y-81708475D01*
X80943672Y-81709865D01*
X80942001Y-81717548D01*
X80942001Y-81994669D01*
X80288499Y-81994669D01*
X80288499Y-81926447D01*
X80288791Y-81917876D01*
X80291121Y-81883703D01*
X80292939Y-81869313D01*
X80298412Y-81839782D01*
X80299796Y-81832314D01*
X80297882Y-81799119D01*
X80297965Y-81783299D01*
X80299709Y-81757723D01*
X80299709Y-81757720D01*
X80300225Y-81750148D01*
X80298920Y-81742672D01*
X80298920Y-81742667D01*
X80293757Y-81713085D01*
X80292090Y-81698677D01*
X80290361Y-81668701D01*
X80289924Y-81661115D01*
X80280152Y-81629351D01*
X80276458Y-81613963D01*
X80272049Y-81588700D01*
X80270743Y-81581216D01*
X80267690Y-81574262D01*
X80267688Y-81574254D01*
X80255618Y-81546758D01*
X80250561Y-81533162D01*
X80241734Y-81504470D01*
X80239501Y-81497211D01*
X80235600Y-81490692D01*
X80222433Y-81468690D01*
X80215179Y-81454636D01*
X80204870Y-81431153D01*
X80204868Y-81431149D01*
X80201815Y-81424195D01*
X80178908Y-81394342D01*
X80170755Y-81382344D01*
X80155340Y-81356587D01*
X80155339Y-81356586D01*
X80151437Y-81350066D01*
X80123192Y-81321524D01*
X80122287Y-81320552D01*
X80121511Y-81319541D01*
X80094917Y-81292947D01*
X80094451Y-81292480D01*
X80033908Y-81231299D01*
X80033903Y-81231295D01*
X80030816Y-81228175D01*
X80029488Y-81227361D01*
X80028052Y-81226082D01*
X78901970Y-80100000D01*
X79886496Y-80100000D01*
X79887186Y-80106565D01*
X79899228Y-80221134D01*
X79906458Y-80289928D01*
X79965473Y-80471556D01*
X79968776Y-80477278D01*
X79968777Y-80477279D01*
X79985027Y-80505425D01*
X80060960Y-80636944D01*
X80065378Y-80641851D01*
X80065379Y-80641852D01*
X80184325Y-80773955D01*
X80188747Y-80778866D01*
X80343248Y-80891118D01*
X80349276Y-80893802D01*
X80349278Y-80893803D01*
X80511681Y-80966109D01*
X80517712Y-80968794D01*
X80611113Y-80988647D01*
X80698056Y-81007128D01*
X80698061Y-81007128D01*
X80704513Y-81008500D01*
X80816000Y-81008500D01*
X80884121Y-81028502D01*
X80930614Y-81082158D01*
X80942000Y-81134500D01*
X80942000Y-81177885D01*
X80946475Y-81193124D01*
X80947865Y-81194329D01*
X80955548Y-81196000D01*
X83439884Y-81196000D01*
X83455123Y-81191525D01*
X83456328Y-81190135D01*
X83457999Y-81182452D01*
X83457999Y-80905331D01*
X83457629Y-80898510D01*
X83452105Y-80847651D01*
X83447965Y-80830236D01*
X83447966Y-80771942D01*
X83448971Y-80767716D01*
X83451745Y-80760316D01*
X83458500Y-80698134D01*
X83458500Y-79601866D01*
X83451745Y-79539684D01*
X83400615Y-79403295D01*
X83313261Y-79286739D01*
X83196705Y-79199385D01*
X83060316Y-79148255D01*
X82998134Y-79141500D01*
X81401866Y-79141500D01*
X81339684Y-79148255D01*
X81203295Y-79199385D01*
X81196118Y-79204764D01*
X81196116Y-79204765D01*
X81188726Y-79210304D01*
X81122219Y-79235152D01*
X81082477Y-79230315D01*
X81082288Y-79231206D01*
X80901944Y-79192872D01*
X80901939Y-79192872D01*
X80895487Y-79191500D01*
X80704513Y-79191500D01*
X80698061Y-79192872D01*
X80698056Y-79192872D01*
X80611112Y-79211353D01*
X80517712Y-79231206D01*
X80511682Y-79233891D01*
X80511681Y-79233891D01*
X80349278Y-79306197D01*
X80349276Y-79306198D01*
X80343248Y-79308882D01*
X80188747Y-79421134D01*
X80184326Y-79426044D01*
X80184325Y-79426045D01*
X80074931Y-79547540D01*
X80060960Y-79563056D01*
X80043208Y-79593803D01*
X79971897Y-79717318D01*
X79965473Y-79728444D01*
X79906458Y-79910072D01*
X79886496Y-80100000D01*
X78901970Y-80100000D01*
X77534665Y-78732695D01*
X77500639Y-78670383D01*
X77498450Y-78656770D01*
X77494232Y-78616637D01*
X77494232Y-78616635D01*
X77493542Y-78610072D01*
X77486222Y-78587542D01*
X77436569Y-78434729D01*
X77434527Y-78428444D01*
X77411404Y-78388393D01*
X77342341Y-78268774D01*
X77339040Y-78263056D01*
X77334074Y-78257540D01*
X77215675Y-78126045D01*
X77215674Y-78126044D01*
X77211253Y-78121134D01*
X77096313Y-78037625D01*
X77062094Y-78012763D01*
X77062093Y-78012762D01*
X77056752Y-78008882D01*
X77050724Y-78006198D01*
X77050722Y-78006197D01*
X76888319Y-77933891D01*
X76888318Y-77933891D01*
X76882288Y-77931206D01*
X76771923Y-77907747D01*
X76701944Y-77892872D01*
X76701939Y-77892872D01*
X76695487Y-77891500D01*
X76504513Y-77891500D01*
X76498061Y-77892872D01*
X76498056Y-77892872D01*
X76428077Y-77907747D01*
X76317712Y-77931206D01*
X76311682Y-77933891D01*
X76311681Y-77933891D01*
X76149278Y-78006197D01*
X76149276Y-78006198D01*
X76143248Y-78008882D01*
X76137907Y-78012762D01*
X76137906Y-78012763D01*
X76103687Y-78037625D01*
X75988747Y-78121134D01*
X75984326Y-78126044D01*
X75984325Y-78126045D01*
X75865927Y-78257540D01*
X75860960Y-78263056D01*
X75857659Y-78268774D01*
X75788597Y-78388393D01*
X75765473Y-78428444D01*
X75706458Y-78610072D01*
X75686496Y-78800000D01*
X75687186Y-78806565D01*
X75693618Y-78867758D01*
X75706458Y-78989928D01*
X75765473Y-79171556D01*
X75768776Y-79177278D01*
X75768777Y-79177279D01*
X75772171Y-79183158D01*
X75860960Y-79336944D01*
X75865378Y-79341851D01*
X75865379Y-79341852D01*
X75928273Y-79411703D01*
X75988747Y-79478866D01*
X76143248Y-79591118D01*
X76149276Y-79593802D01*
X76149278Y-79593803D01*
X76311681Y-79666109D01*
X76317712Y-79668794D01*
X76448740Y-79696645D01*
X76470569Y-79701285D01*
X76533467Y-79735437D01*
X78834594Y-82036564D01*
X78868620Y-82098876D01*
X78871499Y-82125659D01*
X78871499Y-87053000D01*
X78851497Y-87121121D01*
X78797841Y-87167614D01*
X78745499Y-87179000D01*
X77799600Y-87179000D01*
X77796354Y-87179337D01*
X77796350Y-87179337D01*
X77700692Y-87189262D01*
X77700688Y-87189263D01*
X77693834Y-87189974D01*
X77687298Y-87192155D01*
X77687296Y-87192155D01*
X77540029Y-87241287D01*
X77469079Y-87243871D01*
X77407996Y-87207687D01*
X77376171Y-87144223D01*
X77383710Y-87073628D01*
X77392891Y-87055652D01*
X77467115Y-86935238D01*
X77522797Y-86767361D01*
X77533500Y-86662900D01*
X77533500Y-86062100D01*
X77533163Y-86058850D01*
X77523238Y-85963192D01*
X77523237Y-85963188D01*
X77522526Y-85956334D01*
X77466550Y-85788554D01*
X77373478Y-85638152D01*
X77248303Y-85513195D01*
X77243765Y-85510398D01*
X77203176Y-85453147D01*
X77199946Y-85382224D01*
X77235572Y-85320813D01*
X77244068Y-85313438D01*
X77254207Y-85305402D01*
X77368739Y-85190671D01*
X77377751Y-85179260D01*
X77462816Y-85041257D01*
X77468963Y-85028076D01*
X77520138Y-84873790D01*
X77523005Y-84860414D01*
X77532672Y-84766062D01*
X77533000Y-84759646D01*
X77533000Y-84734615D01*
X77528525Y-84719376D01*
X77527135Y-84718171D01*
X77519452Y-84716500D01*
X75085116Y-84716500D01*
X75069877Y-84720975D01*
X75068672Y-84722365D01*
X75067001Y-84730048D01*
X75067001Y-84759595D01*
X75067338Y-84766114D01*
X75077257Y-84861706D01*
X75080149Y-84875100D01*
X75131588Y-85029284D01*
X75137761Y-85042462D01*
X75223063Y-85180307D01*
X75232099Y-85191708D01*
X75346828Y-85306238D01*
X75355762Y-85313294D01*
X75396823Y-85371212D01*
X75400053Y-85442135D01*
X75364426Y-85503546D01*
X75356593Y-85510346D01*
X75350652Y-85514022D01*
X75225695Y-85639197D01*
X75221855Y-85645427D01*
X75221854Y-85645428D01*
X75137673Y-85781995D01*
X75132885Y-85789762D01*
X75077203Y-85957639D01*
X75066500Y-86062100D01*
X75066500Y-86662900D01*
X75066837Y-86666146D01*
X75066837Y-86666150D01*
X75071573Y-86711789D01*
X75077474Y-86768666D01*
X75079655Y-86775202D01*
X75079655Y-86775204D01*
X75113626Y-86877026D01*
X75133450Y-86936446D01*
X75226522Y-87086848D01*
X75319173Y-87179337D01*
X75325609Y-87185762D01*
X75359688Y-87248044D01*
X75354685Y-87318864D01*
X75325764Y-87363953D01*
X75275024Y-87414782D01*
X75225695Y-87464197D01*
X75132885Y-87614762D01*
X75130581Y-87621709D01*
X75087478Y-87751662D01*
X75077203Y-87782639D01*
X75066500Y-87887100D01*
X75066500Y-88512900D01*
X75077474Y-88618666D01*
X75133450Y-88786446D01*
X75226522Y-88936848D01*
X75231704Y-88942021D01*
X75313109Y-89023284D01*
X75347188Y-89085566D01*
X75342185Y-89156386D01*
X75313264Y-89201475D01*
X75256215Y-89258624D01*
X75225695Y-89289197D01*
X75221855Y-89295427D01*
X75221854Y-89295428D01*
X75196512Y-89336541D01*
X75132885Y-89439762D01*
X75077203Y-89607639D01*
X75076503Y-89614475D01*
X75076502Y-89614478D01*
X75073971Y-89639181D01*
X75066500Y-89712100D01*
X75066500Y-90337900D01*
X75077474Y-90443666D01*
X75133450Y-90611446D01*
X75226522Y-90761848D01*
X75351697Y-90886805D01*
X75502262Y-90979615D01*
X75535167Y-90990529D01*
X75593524Y-91030957D01*
X75620762Y-91096521D01*
X75621498Y-91110121D01*
X75621498Y-91293900D01*
X75601496Y-91362021D01*
X75547840Y-91408514D01*
X75495498Y-91419900D01*
X75103147Y-91419900D01*
X75035026Y-91399898D01*
X74988533Y-91346242D01*
X74985746Y-91339530D01*
X74985567Y-91339203D01*
X74982415Y-91330795D01*
X74895061Y-91214239D01*
X74778505Y-91126885D01*
X74642116Y-91075755D01*
X74579934Y-91069000D01*
X73620066Y-91069000D01*
X73557884Y-91075755D01*
X73421495Y-91126885D01*
X73304939Y-91214239D01*
X73217585Y-91330795D01*
X73166455Y-91467184D01*
X73159700Y-91529366D01*
X73159700Y-94419634D01*
X72508500Y-94419634D01*
X72508500Y-84190385D01*
X75067000Y-84190385D01*
X75071475Y-84205624D01*
X75072865Y-84206829D01*
X75080548Y-84208500D01*
X76027885Y-84208500D01*
X76043124Y-84204025D01*
X76044329Y-84202635D01*
X76046000Y-84194952D01*
X76046000Y-84190385D01*
X76554000Y-84190385D01*
X76558475Y-84205624D01*
X76559865Y-84206829D01*
X76567548Y-84208500D01*
X77514884Y-84208500D01*
X77530123Y-84204025D01*
X77531328Y-84202635D01*
X77532999Y-84194952D01*
X77532999Y-84165405D01*
X77532662Y-84158886D01*
X77522743Y-84063294D01*
X77519851Y-84049900D01*
X77468412Y-83895716D01*
X77462239Y-83882538D01*
X77376937Y-83744693D01*
X77367901Y-83733292D01*
X77253171Y-83618761D01*
X77241760Y-83609749D01*
X77103757Y-83524684D01*
X77090576Y-83518537D01*
X76936290Y-83467362D01*
X76922914Y-83464495D01*
X76828562Y-83454828D01*
X76822145Y-83454500D01*
X76572115Y-83454500D01*
X76556876Y-83458975D01*
X76555671Y-83460365D01*
X76554000Y-83468048D01*
X76554000Y-84190385D01*
X76046000Y-84190385D01*
X76046000Y-83472616D01*
X76041525Y-83457377D01*
X76040135Y-83456172D01*
X76032452Y-83454501D01*
X75777905Y-83454501D01*
X75771386Y-83454838D01*
X75675794Y-83464757D01*
X75662400Y-83467649D01*
X75508216Y-83519088D01*
X75495038Y-83525261D01*
X75357193Y-83610563D01*
X75345792Y-83619599D01*
X75231261Y-83734329D01*
X75222249Y-83745740D01*
X75137184Y-83883743D01*
X75131037Y-83896924D01*
X75079862Y-84051210D01*
X75076995Y-84064586D01*
X75067328Y-84158938D01*
X75067000Y-84165355D01*
X75067000Y-84190385D01*
X72508500Y-84190385D01*
X72508500Y-76053250D01*
X72510246Y-76032345D01*
X72512770Y-76017344D01*
X72512770Y-76017341D01*
X72513576Y-76012552D01*
X72513729Y-76000000D01*
X72513040Y-75995188D01*
X72512723Y-75990327D01*
X72513008Y-75990308D01*
X72512607Y-75963549D01*
X72519234Y-75904736D01*
X72525513Y-75877229D01*
X72552485Y-75800147D01*
X72564727Y-75774726D01*
X72608178Y-75705574D01*
X72625770Y-75683515D01*
X72683515Y-75625770D01*
X72705574Y-75608178D01*
X72774726Y-75564727D01*
X72800147Y-75552485D01*
X72877228Y-75525513D01*
X72904736Y-75519234D01*
X72960226Y-75512982D01*
X72975868Y-75513077D01*
X72975879Y-75512200D01*
X72984851Y-75512310D01*
X72993724Y-75513691D01*
X73002626Y-75512527D01*
X73002628Y-75512527D01*
X73017951Y-75510523D01*
X73025286Y-75509564D01*
X73041621Y-75508500D01*
X93950633Y-75508500D01*
X93970018Y-75510000D01*
G37*
%TD.AperFunction*%
%TD*%
M02*
