%TF.GenerationSoftware,KiCad,Pcbnew,7.0.5*%
%TF.CreationDate,2023-10-07T01:59:45-03:00*%
%TF.ProjectId,ESP32_MicroSD,45535033-325f-44d6-9963-726f53442e6b,rev?*%
%TF.SameCoordinates,Original*%
%TF.FileFunction,Copper,L2,Bot*%
%TF.FilePolarity,Positive*%
%FSLAX46Y46*%
G04 Gerber Fmt 4.6, Leading zero omitted, Abs format (unit mm)*
G04 Created by KiCad (PCBNEW 7.0.5) date 2023-10-07 01:59:45*
%MOMM*%
%LPD*%
G01*
G04 APERTURE LIST*
G04 Aperture macros list*
%AMRoundRect*
0 Rectangle with rounded corners*
0 $1 Rounding radius*
0 $2 $3 $4 $5 $6 $7 $8 $9 X,Y pos of 4 corners*
0 Add a 4 corners polygon primitive as box body*
4,1,4,$2,$3,$4,$5,$6,$7,$8,$9,$2,$3,0*
0 Add four circle primitives for the rounded corners*
1,1,$1+$1,$2,$3*
1,1,$1+$1,$4,$5*
1,1,$1+$1,$6,$7*
1,1,$1+$1,$8,$9*
0 Add four rect primitives between the rounded corners*
20,1,$1+$1,$2,$3,$4,$5,0*
20,1,$1+$1,$4,$5,$6,$7,0*
20,1,$1+$1,$6,$7,$8,$9,0*
20,1,$1+$1,$8,$9,$2,$3,0*%
G04 Aperture macros list end*
%TA.AperFunction,SMDPad,CuDef*%
%ADD10R,0.750000X1.675000*%
%TD*%
%TA.AperFunction,SMDPad,CuDef*%
%ADD11R,1.900000X1.650000*%
%TD*%
%TA.AperFunction,SMDPad,CuDef*%
%ADD12R,1.657300X2.363000*%
%TD*%
%TA.AperFunction,SMDPad,CuDef*%
%ADD13R,1.689000X2.393000*%
%TD*%
%TA.AperFunction,SMDPad,CuDef*%
%ADD14R,1.900000X1.500000*%
%TD*%
%TA.AperFunction,SMDPad,CuDef*%
%ADD15RoundRect,0.250000X0.475000X-0.250000X0.475000X0.250000X-0.475000X0.250000X-0.475000X-0.250000X0*%
%TD*%
%TA.AperFunction,SMDPad,CuDef*%
%ADD16RoundRect,0.250000X-0.450000X0.262500X-0.450000X-0.262500X0.450000X-0.262500X0.450000X0.262500X0*%
%TD*%
%TA.AperFunction,ComponentPad*%
%ADD17O,1.000000X1.000000*%
%TD*%
%TA.AperFunction,ComponentPad*%
%ADD18R,1.000000X1.000000*%
%TD*%
%TA.AperFunction,SMDPad,CuDef*%
%ADD19R,1.500000X1.000000*%
%TD*%
%TA.AperFunction,ViaPad*%
%ADD20C,0.800000*%
%TD*%
%TA.AperFunction,Conductor*%
%ADD21C,0.250000*%
%TD*%
%TA.AperFunction,Conductor*%
%ADD22C,0.400000*%
%TD*%
%TA.AperFunction,Conductor*%
%ADD23C,0.500000*%
%TD*%
%TA.AperFunction,Conductor*%
%ADD24C,0.300000*%
%TD*%
G04 APERTURE END LIST*
D10*
%TO.P,J2,1,DAT2*%
%TO.N,unconnected-(J2-Pad1)*%
X78652890Y-91467337D03*
%TO.P,J2,2,DAT3/CD*%
%TO.N,/IO5*%
X79756982Y-91485300D03*
%TO.P,J2,3,CMD*%
%TO.N,/IO23*%
X80845656Y-91493242D03*
%TO.P,J2,4,VDD*%
%TO.N,+3V3*%
X81941698Y-91483853D03*
%TO.P,J2,5,CLK*%
%TO.N,/IO18*%
X83034794Y-91481478D03*
%TO.P,J2,6,VSS*%
%TO.N,GND*%
X84127288Y-91470722D03*
%TO.P,J2,7,DAT0*%
%TO.N,/IO19*%
X85215962Y-91478664D03*
%TO.P,J2,8,DAT1*%
%TO.N,unconnected-(J2-Pad8)*%
X86312004Y-91469275D03*
%TO.P,J2,9,SHIELD*%
%TO.N,unconnected-(J2-Pad9)*%
X87405100Y-91466900D03*
D11*
%TO.P,J2,10*%
%TO.N,N/C*%
X89055100Y-92304400D03*
D12*
%TO.P,J2,11*%
X88655250Y-101910900D03*
D13*
%TO.P,J2,12*%
X73094600Y-101895900D03*
D14*
%TO.P,J2,13*%
X73955100Y-92279400D03*
%TD*%
D15*
%TO.P,C1,1*%
%TO.N,+3V3*%
X77978000Y-84973200D03*
%TO.P,C1,2*%
%TO.N,GND*%
X77978000Y-83073200D03*
%TD*%
D16*
%TO.P,R1,2*%
%TO.N,/IO19*%
X84683600Y-88136100D03*
%TO.P,R1,1*%
%TO.N,+3V3*%
X84683600Y-86311100D03*
%TD*%
%TO.P,R3,2*%
%TO.N,/IO23*%
X79806800Y-88136100D03*
%TO.P,R3,1*%
%TO.N,+3V3*%
X79806800Y-86311100D03*
%TD*%
%TO.P,R2,2*%
%TO.N,/IO18*%
X82854800Y-88136100D03*
%TO.P,R2,1*%
%TO.N,+3V3*%
X82854800Y-86311100D03*
%TD*%
%TO.P,R4,2*%
%TO.N,/IO5*%
X77978000Y-88136100D03*
%TO.P,R4,1*%
%TO.N,+3V3*%
X77978000Y-86311100D03*
%TD*%
D17*
%TO.P,J1,18,Pin_18*%
%TO.N,unconnected-(J1-Pad18)*%
X87500000Y-88330000D03*
%TO.P,J1,17,Pin_17*%
%TO.N,unconnected-(J1-Pad17)*%
X87500000Y-87060000D03*
%TO.P,J1,16,Pin_16*%
%TO.N,unconnected-(J1-Pad16)*%
X87500000Y-85790000D03*
%TO.P,J1,15,Pin_15*%
%TO.N,unconnected-(J1-Pad15)*%
X87500000Y-84520000D03*
%TO.P,J1,14,Pin_14*%
%TO.N,/TX*%
X87500000Y-83250000D03*
%TO.P,J1,13,Pin_13*%
%TO.N,/RX*%
X87500000Y-81980000D03*
%TO.P,J1,12,Pin_12*%
%TO.N,unconnected-(J1-Pad12)*%
X87500000Y-80710000D03*
%TO.P,J1,11,Pin_11*%
%TO.N,GND*%
X87500000Y-79440000D03*
%TO.P,J1,10,Pin_10*%
%TO.N,unconnected-(J1-Pad10)*%
X87500000Y-78170000D03*
D18*
%TO.P,J1,9,Pin_9*%
%TO.N,Net-(J1-Pad9)*%
X87500000Y-76900000D03*
%TD*%
D19*
%TO.P,JP1,1,A*%
%TO.N,GND*%
X82200000Y-81450000D03*
%TO.P,JP1,2,B*%
%TO.N,Net-(JP1-Pad2)*%
X82200000Y-80150000D03*
%TD*%
D20*
%TO.N,GND*%
X83972400Y-97282000D03*
X79400400Y-81381600D03*
%TO.N,/IO18*%
X82854800Y-89712300D03*
%TO.N,/IO19*%
X84683600Y-89712300D03*
%TO.N,/IO23*%
X80213200Y-89458800D03*
%TO.N,/IO5*%
X79806800Y-93218000D03*
%TO.N,+3V3*%
X76600000Y-78800000D03*
X81923200Y-98719600D03*
%TO.N,/IO23*%
X88900000Y-78800000D03*
X88900000Y-83800000D03*
%TO.N,Net-(JP1-Pad2)*%
X80800000Y-80100000D03*
%TO.N,/RX*%
X89800000Y-80900000D03*
X89800000Y-82524500D03*
%TO.N,Net-(J1-Pad9)*%
X88600000Y-99600000D03*
%TD*%
D21*
%TO.N,/IO5*%
X77978000Y-88618818D02*
X77978000Y-88136100D01*
X79756982Y-90397800D02*
X77978000Y-88618818D01*
X79756982Y-91485300D02*
X79756982Y-90397800D01*
D22*
%TO.N,+3V3*%
X81923200Y-98763400D02*
X81923200Y-98719600D01*
D23*
%TO.N,Net-(J1-Pad9)*%
X91897200Y-79097200D02*
X89700000Y-76900000D01*
X91897200Y-93929200D02*
X91897200Y-79097200D01*
X88575000Y-97251400D02*
X91897200Y-93929200D01*
X88575000Y-99575000D02*
X88575000Y-97251400D01*
X89700000Y-76900000D02*
X87500000Y-76900000D01*
D21*
%TO.N,GND*%
X84127288Y-92859912D02*
X84124800Y-92862400D01*
X84127288Y-91470722D02*
X84127288Y-92859912D01*
%TO.N,/IO18*%
X83034794Y-89892294D02*
X82854800Y-89712300D01*
X83034794Y-91481478D02*
X83034794Y-89892294D01*
D22*
%TO.N,+3V3*%
X81941698Y-98701102D02*
X81923200Y-98719600D01*
X81941698Y-91483853D02*
X81941698Y-98701102D01*
X81381600Y-89458800D02*
X81381600Y-86311100D01*
X81178400Y-86311100D02*
X81381600Y-86311100D01*
X81941698Y-90018898D02*
X81381600Y-89458800D01*
X81941698Y-91483853D02*
X81941698Y-90018898D01*
X81381600Y-86311100D02*
X84683600Y-86311100D01*
D21*
%TO.N,/IO19*%
X85215962Y-90244662D02*
X84683600Y-89712300D01*
X85215962Y-91478664D02*
X85215962Y-90244662D01*
D24*
X84683600Y-89712300D02*
X84683600Y-88136100D01*
%TO.N,/IO18*%
X82854800Y-89712300D02*
X82854800Y-88136100D01*
D22*
%TO.N,+3V3*%
X80975200Y-86311100D02*
X81178400Y-86311100D01*
D21*
%TO.N,/IO23*%
X80845656Y-90091256D02*
X80213200Y-89458800D01*
X80845656Y-91493242D02*
X80845656Y-90091256D01*
X79806800Y-88136100D02*
X79806800Y-89052400D01*
X79806800Y-89052400D02*
X80213200Y-89458800D01*
%TO.N,/IO5*%
X79756982Y-93168182D02*
X79806800Y-93218000D01*
X79756982Y-91485300D02*
X79756982Y-93168182D01*
%TO.N,unconnected-(J2-Pad1)*%
X78791782Y-91282100D02*
X78790800Y-91281118D01*
%TO.N,/IO5*%
X77978000Y-88544400D02*
X77978000Y-88034500D01*
D22*
%TO.N,+3V3*%
X77319500Y-86311100D02*
X77978000Y-86311100D01*
X76600000Y-78800000D02*
X76600000Y-85591600D01*
X76600000Y-85591600D02*
X77319500Y-86311100D01*
D21*
%TO.N,GND*%
X84226400Y-91251102D02*
X84250762Y-91275464D01*
%TO.N,+3V3*%
X80976498Y-86312398D02*
X80975200Y-86311100D01*
X82069594Y-91278278D02*
X82143600Y-91204272D01*
%TO.N,/IO23*%
X79880456Y-88209756D02*
X79806800Y-88136100D01*
D22*
%TO.N,+3V3*%
X79959200Y-86311100D02*
X80975200Y-86311100D01*
X77978000Y-86311100D02*
X79959200Y-86311100D01*
D21*
X79857600Y-86209500D02*
X79959200Y-86311100D01*
X77978000Y-84973200D02*
X77978000Y-86209500D01*
%TO.N,/IO23*%
X79959200Y-88136100D02*
X79880456Y-88214844D01*
D24*
X88900000Y-78800000D02*
X88900000Y-83800000D01*
D21*
%TO.N,Net-(JP1-Pad2)*%
X82200000Y-80150000D02*
X80850000Y-80150000D01*
X80850000Y-80150000D02*
X80800000Y-80100000D01*
%TO.N,/RX*%
X89800000Y-82524500D02*
X89800000Y-80900000D01*
D22*
%TO.N,Net-(J1-Pad9)*%
X88575000Y-99575000D02*
X88600000Y-99600000D01*
%TD*%
%TA.AperFunction,Conductor*%
%TO.N,GND*%
G36*
X94002735Y-75000740D02*
G01*
X94036642Y-75003705D01*
X94045440Y-75004475D01*
X94171603Y-75016901D01*
X94191847Y-75020584D01*
X94257408Y-75038151D01*
X94259232Y-75038672D01*
X94351432Y-75066640D01*
X94368092Y-75073014D01*
X94404035Y-75089775D01*
X94435351Y-75104378D01*
X94438418Y-75105911D01*
X94522280Y-75150736D01*
X94528718Y-75154692D01*
X94594799Y-75200963D01*
X94598632Y-75203870D01*
X94670774Y-75263076D01*
X94675347Y-75267220D01*
X94732777Y-75324650D01*
X94736922Y-75329224D01*
X94796128Y-75401366D01*
X94799035Y-75405199D01*
X94845306Y-75471280D01*
X94849265Y-75477723D01*
X94894084Y-75561574D01*
X94895620Y-75564647D01*
X94926982Y-75631902D01*
X94933362Y-75648577D01*
X94961296Y-75740661D01*
X94961862Y-75742644D01*
X94979412Y-75808144D01*
X94983098Y-75828404D01*
X94995523Y-75954556D01*
X94999260Y-75997253D01*
X94999500Y-76002748D01*
X94999500Y-105997249D01*
X94999260Y-106002745D01*
X94995522Y-106045450D01*
X94983098Y-106171594D01*
X94979412Y-106191854D01*
X94961862Y-106257354D01*
X94961296Y-106259337D01*
X94933362Y-106351421D01*
X94926982Y-106368096D01*
X94895620Y-106435351D01*
X94894084Y-106438424D01*
X94849265Y-106522275D01*
X94845306Y-106528718D01*
X94799035Y-106594799D01*
X94796128Y-106598632D01*
X94736922Y-106670774D01*
X94732768Y-106675358D01*
X94675358Y-106732768D01*
X94670774Y-106736922D01*
X94598632Y-106796128D01*
X94594799Y-106799035D01*
X94528718Y-106845306D01*
X94522275Y-106849265D01*
X94438424Y-106894084D01*
X94435351Y-106895620D01*
X94368096Y-106926982D01*
X94351421Y-106933362D01*
X94259337Y-106961296D01*
X94257354Y-106961862D01*
X94191854Y-106979412D01*
X94171594Y-106983098D01*
X94045450Y-106995522D01*
X94008705Y-106998738D01*
X94002740Y-106999260D01*
X93997250Y-106999500D01*
X73002749Y-106999500D01*
X72997259Y-106999260D01*
X72989143Y-106998550D01*
X72954556Y-106995523D01*
X72828404Y-106983098D01*
X72808144Y-106979412D01*
X72742644Y-106961862D01*
X72740687Y-106961303D01*
X72695652Y-106947642D01*
X72648577Y-106933362D01*
X72631902Y-106926982D01*
X72564647Y-106895620D01*
X72561574Y-106894084D01*
X72477723Y-106849265D01*
X72471280Y-106845306D01*
X72405199Y-106799035D01*
X72401366Y-106796128D01*
X72329224Y-106736922D01*
X72324650Y-106732777D01*
X72267220Y-106675347D01*
X72263076Y-106670774D01*
X72203870Y-106598632D01*
X72200963Y-106594799D01*
X72154692Y-106528718D01*
X72150733Y-106522275D01*
X72105914Y-106438424D01*
X72104378Y-106435351D01*
X72073016Y-106368096D01*
X72066640Y-106351432D01*
X72038672Y-106259232D01*
X72038151Y-106257408D01*
X72020584Y-106191847D01*
X72016901Y-106171603D01*
X72004474Y-106045424D01*
X72000740Y-106002734D01*
X72000500Y-105997241D01*
X72000500Y-103719567D01*
X72020502Y-103651446D01*
X72074158Y-103604953D01*
X72139969Y-103594289D01*
X72201452Y-103600899D01*
X72201453Y-103600899D01*
X72201462Y-103600900D01*
X72201468Y-103600900D01*
X73987732Y-103600900D01*
X73987738Y-103600900D01*
X73987745Y-103600899D01*
X73987749Y-103600899D01*
X74048296Y-103594390D01*
X74048299Y-103594389D01*
X74048301Y-103594389D01*
X74185304Y-103543289D01*
X74189701Y-103539998D01*
X74302361Y-103455661D01*
X74389987Y-103338607D01*
X74389987Y-103338606D01*
X74389989Y-103338604D01*
X74441089Y-103201601D01*
X74447600Y-103141038D01*
X74447600Y-102258957D01*
X77249691Y-102258957D01*
X77270328Y-102415717D01*
X77329557Y-102558707D01*
X77330837Y-102561798D01*
X77427091Y-102687239D01*
X77552532Y-102783493D01*
X77698611Y-102844001D01*
X77776992Y-102854320D01*
X77855372Y-102864639D01*
X77855372Y-102864638D01*
X77855373Y-102864639D01*
X78012135Y-102844001D01*
X78158214Y-102783493D01*
X78283655Y-102687239D01*
X78379909Y-102561798D01*
X78440417Y-102415719D01*
X78461055Y-102258957D01*
X78457164Y-102229400D01*
X85199418Y-102229400D01*
X85220055Y-102386160D01*
X85279284Y-102529150D01*
X85280564Y-102532241D01*
X85376818Y-102657682D01*
X85502259Y-102753936D01*
X85648338Y-102814444D01*
X85805100Y-102835082D01*
X85961862Y-102814444D01*
X86107941Y-102753936D01*
X86233382Y-102657682D01*
X86329636Y-102532241D01*
X86390144Y-102386162D01*
X86410782Y-102229400D01*
X86390144Y-102072638D01*
X86329636Y-101926559D01*
X86233382Y-101801118D01*
X86107941Y-101704864D01*
X86033217Y-101673912D01*
X85961860Y-101644355D01*
X85805100Y-101623718D01*
X85648339Y-101644355D01*
X85502260Y-101704863D01*
X85502257Y-101704865D01*
X85376818Y-101801118D01*
X85280565Y-101926557D01*
X85280563Y-101926560D01*
X85220055Y-102072639D01*
X85199418Y-102229399D01*
X85199418Y-102229400D01*
X78457164Y-102229400D01*
X78440417Y-102102195D01*
X78379909Y-101956116D01*
X78283655Y-101830675D01*
X78158214Y-101734421D01*
X78086858Y-101704864D01*
X78012133Y-101673912D01*
X77855373Y-101653275D01*
X77698612Y-101673912D01*
X77552533Y-101734420D01*
X77552530Y-101734422D01*
X77427091Y-101830675D01*
X77330838Y-101956114D01*
X77330836Y-101956117D01*
X77270328Y-102102196D01*
X77249691Y-102258956D01*
X77249691Y-102258957D01*
X74447600Y-102258957D01*
X74447600Y-100650762D01*
X74444315Y-100620203D01*
X74441090Y-100590203D01*
X74441088Y-100590195D01*
X74401179Y-100483197D01*
X74389989Y-100453196D01*
X74389988Y-100453194D01*
X74389987Y-100453192D01*
X74302361Y-100336138D01*
X74185307Y-100248512D01*
X74185302Y-100248510D01*
X74048304Y-100197411D01*
X74048296Y-100197409D01*
X73987749Y-100190900D01*
X73987738Y-100190900D01*
X72201462Y-100190900D01*
X72201457Y-100190900D01*
X72201447Y-100190901D01*
X72139967Y-100197510D01*
X72070099Y-100184904D01*
X72018137Y-100136524D01*
X72000500Y-100072232D01*
X72000500Y-93078049D01*
X72496600Y-93078049D01*
X72503109Y-93138596D01*
X72503111Y-93138604D01*
X72554210Y-93275602D01*
X72554212Y-93275607D01*
X72641838Y-93392661D01*
X72758892Y-93480287D01*
X72758894Y-93480288D01*
X72758896Y-93480289D01*
X72817975Y-93502324D01*
X72895895Y-93531388D01*
X72895903Y-93531390D01*
X72956450Y-93537899D01*
X72956455Y-93537899D01*
X72956462Y-93537900D01*
X72956468Y-93537900D01*
X74953732Y-93537900D01*
X74953738Y-93537900D01*
X74953745Y-93537899D01*
X74953749Y-93537899D01*
X75014296Y-93531390D01*
X75014299Y-93531389D01*
X75014301Y-93531389D01*
X75151304Y-93480289D01*
X75268361Y-93392661D01*
X75268360Y-93392660D01*
X75355987Y-93275607D01*
X75355987Y-93275606D01*
X75355989Y-93275604D01*
X75407089Y-93138601D01*
X75413600Y-93078038D01*
X75413600Y-91480762D01*
X75413599Y-91480750D01*
X75407090Y-91420203D01*
X75407088Y-91420195D01*
X75355989Y-91283197D01*
X75355987Y-91283192D01*
X75268361Y-91166138D01*
X75151307Y-91078512D01*
X75151302Y-91078510D01*
X75014304Y-91027411D01*
X75014296Y-91027409D01*
X74953749Y-91020900D01*
X74953738Y-91020900D01*
X72956462Y-91020900D01*
X72956450Y-91020900D01*
X72895903Y-91027409D01*
X72895895Y-91027411D01*
X72758897Y-91078510D01*
X72758892Y-91078512D01*
X72641838Y-91166138D01*
X72554212Y-91283192D01*
X72554210Y-91283197D01*
X72503111Y-91420195D01*
X72503109Y-91420203D01*
X72496600Y-91480750D01*
X72496600Y-93078049D01*
X72000500Y-93078049D01*
X72000500Y-78800000D01*
X75686496Y-78800000D01*
X75706457Y-78989927D01*
X75716561Y-79021022D01*
X75765473Y-79171556D01*
X75785360Y-79206002D01*
X75860958Y-79336941D01*
X75864843Y-79342288D01*
X75863233Y-79343457D01*
X75889853Y-79398925D01*
X75891500Y-79419229D01*
X75891500Y-85568285D01*
X75891385Y-85572088D01*
X75891212Y-85574947D01*
X75887598Y-85634692D01*
X75898902Y-85696382D01*
X75899475Y-85700144D01*
X75907033Y-85762394D01*
X75907034Y-85762398D01*
X75910650Y-85771933D01*
X75916771Y-85793889D01*
X75918612Y-85803932D01*
X75944353Y-85861128D01*
X75945809Y-85864643D01*
X75957009Y-85894174D01*
X75968046Y-85923275D01*
X75973840Y-85931669D01*
X75985035Y-85951519D01*
X75989223Y-85960822D01*
X75989225Y-85960826D01*
X76010275Y-85987694D01*
X76027899Y-86010190D01*
X76030154Y-86013255D01*
X76065783Y-86064871D01*
X76065784Y-86064872D01*
X76065785Y-86064873D01*
X76112750Y-86106480D01*
X76115494Y-86109064D01*
X76497653Y-86491223D01*
X76781621Y-86775191D01*
X76812130Y-86824652D01*
X76835884Y-86896335D01*
X76835885Y-86896338D01*
X76928969Y-87047252D01*
X76928970Y-87047252D01*
X76928975Y-87047258D01*
X77016222Y-87134505D01*
X77050248Y-87196817D01*
X77045183Y-87267632D01*
X77016222Y-87312695D01*
X76928975Y-87399941D01*
X76928970Y-87399947D01*
X76835885Y-87550862D01*
X76780113Y-87719172D01*
X76780112Y-87719179D01*
X76769500Y-87823046D01*
X76769500Y-88449144D01*
X76780112Y-88553025D01*
X76835885Y-88721338D01*
X76928970Y-88872252D01*
X76928975Y-88872258D01*
X77054341Y-88997624D01*
X77054347Y-88997629D01*
X77054348Y-88997630D01*
X77205262Y-89090715D01*
X77373574Y-89146487D01*
X77477455Y-89157100D01*
X77568187Y-89157099D01*
X77636307Y-89177100D01*
X77657282Y-89194004D01*
X78369520Y-89906242D01*
X78403546Y-89968554D01*
X78398481Y-90039369D01*
X78355934Y-90096205D01*
X78289414Y-90121016D01*
X78280425Y-90121337D01*
X78229240Y-90121337D01*
X78168693Y-90127846D01*
X78168685Y-90127848D01*
X78031687Y-90178947D01*
X78031682Y-90178949D01*
X77914628Y-90266575D01*
X77827002Y-90383629D01*
X77827000Y-90383634D01*
X77775901Y-90520632D01*
X77775899Y-90520640D01*
X77769390Y-90581187D01*
X77769390Y-92353486D01*
X77775899Y-92414033D01*
X77775901Y-92414041D01*
X77827000Y-92551039D01*
X77827002Y-92551044D01*
X77914628Y-92668098D01*
X78031682Y-92755724D01*
X78031684Y-92755725D01*
X78031686Y-92755726D01*
X78062055Y-92767053D01*
X78168685Y-92806825D01*
X78168693Y-92806827D01*
X78229240Y-92813336D01*
X78229245Y-92813336D01*
X78229252Y-92813337D01*
X78809605Y-92813337D01*
X78877726Y-92833339D01*
X78924219Y-92886995D01*
X78934323Y-92957269D01*
X78929438Y-92978273D01*
X78913257Y-93028070D01*
X78893296Y-93217999D01*
X78913257Y-93407927D01*
X78936769Y-93480287D01*
X78972273Y-93589556D01*
X78972276Y-93589561D01*
X79067758Y-93754941D01*
X79067765Y-93754951D01*
X79195544Y-93896864D01*
X79256799Y-93941368D01*
X79350048Y-94009118D01*
X79524512Y-94086794D01*
X79711313Y-94126500D01*
X79902287Y-94126500D01*
X80089088Y-94086794D01*
X80263552Y-94009118D01*
X80418053Y-93896866D01*
X80545840Y-93754944D01*
X80641327Y-93589556D01*
X80700342Y-93407928D01*
X80720304Y-93218000D01*
X80700342Y-93028072D01*
X80700342Y-93028070D01*
X80692579Y-93004178D01*
X80690552Y-92933210D01*
X80727214Y-92872412D01*
X80790927Y-92841087D01*
X80812412Y-92839242D01*
X81107198Y-92839242D01*
X81175319Y-92859244D01*
X81221812Y-92912900D01*
X81233198Y-92965242D01*
X81233198Y-98079826D01*
X81213196Y-98147947D01*
X81200836Y-98164135D01*
X81184157Y-98182659D01*
X81088676Y-98348038D01*
X81088673Y-98348045D01*
X81029657Y-98529672D01*
X81009696Y-98719600D01*
X81029657Y-98909527D01*
X81058892Y-98999500D01*
X81088673Y-99091156D01*
X81088676Y-99091161D01*
X81184158Y-99256541D01*
X81184165Y-99256551D01*
X81311944Y-99398464D01*
X81311947Y-99398466D01*
X81466448Y-99510718D01*
X81640912Y-99588394D01*
X81827713Y-99628100D01*
X82018687Y-99628100D01*
X82205488Y-99588394D01*
X82379952Y-99510718D01*
X82534453Y-99398466D01*
X82534455Y-99398464D01*
X82662234Y-99256551D01*
X82662235Y-99256549D01*
X82662240Y-99256544D01*
X82757727Y-99091156D01*
X82816742Y-98909528D01*
X82836704Y-98719600D01*
X82816742Y-98529672D01*
X82757727Y-98348044D01*
X82721222Y-98284816D01*
X82667079Y-98191036D01*
X82650198Y-98128036D01*
X82650198Y-92953478D01*
X82670200Y-92885357D01*
X82723856Y-92838864D01*
X82776198Y-92827478D01*
X83458426Y-92827478D01*
X83458432Y-92827478D01*
X83458439Y-92827477D01*
X83458443Y-92827477D01*
X83476488Y-92825536D01*
X83518995Y-92820967D01*
X83552142Y-92808603D01*
X83622952Y-92803536D01*
X83640215Y-92808605D01*
X83643194Y-92809716D01*
X83703690Y-92816221D01*
X83703703Y-92816222D01*
X84550873Y-92816222D01*
X84550885Y-92816221D01*
X84611381Y-92809716D01*
X84611383Y-92809716D01*
X84616228Y-92807909D01*
X84687043Y-92802843D01*
X84704292Y-92807907D01*
X84718849Y-92813337D01*
X84731761Y-92818153D01*
X84731765Y-92818154D01*
X84792312Y-92824663D01*
X84792317Y-92824663D01*
X84792324Y-92824664D01*
X84792330Y-92824664D01*
X85639594Y-92824664D01*
X85639600Y-92824664D01*
X85639607Y-92824663D01*
X85639611Y-92824663D01*
X85700158Y-92818154D01*
X85700159Y-92818153D01*
X85700163Y-92818153D01*
X85732533Y-92806078D01*
X85803347Y-92801012D01*
X85820597Y-92806076D01*
X85827803Y-92808764D01*
X85827806Y-92808764D01*
X85827807Y-92808765D01*
X85888354Y-92815274D01*
X85888359Y-92815274D01*
X85888366Y-92815275D01*
X85888372Y-92815275D01*
X86735636Y-92815275D01*
X86735642Y-92815275D01*
X86735649Y-92815274D01*
X86735653Y-92815274D01*
X86796199Y-92808765D01*
X86796200Y-92808764D01*
X86796205Y-92808764D01*
X86817702Y-92800745D01*
X86888512Y-92795678D01*
X86905755Y-92800740D01*
X86920899Y-92806389D01*
X86920903Y-92806389D01*
X86920904Y-92806390D01*
X86981450Y-92812899D01*
X86981455Y-92812899D01*
X86981462Y-92812900D01*
X87470600Y-92812900D01*
X87538721Y-92832902D01*
X87585214Y-92886558D01*
X87596600Y-92938900D01*
X87596600Y-93178049D01*
X87603109Y-93238596D01*
X87603111Y-93238604D01*
X87654210Y-93375602D01*
X87654212Y-93375607D01*
X87741838Y-93492661D01*
X87858892Y-93580287D01*
X87858894Y-93580288D01*
X87858896Y-93580289D01*
X87917975Y-93602324D01*
X87995895Y-93631388D01*
X87995903Y-93631390D01*
X88056450Y-93637899D01*
X88056455Y-93637899D01*
X88056462Y-93637900D01*
X88056468Y-93637900D01*
X90053732Y-93637900D01*
X90053738Y-93637900D01*
X90053745Y-93637899D01*
X90053749Y-93637899D01*
X90114296Y-93631390D01*
X90114299Y-93631389D01*
X90114301Y-93631389D01*
X90251304Y-93580289D01*
X90368361Y-93492661D01*
X90377624Y-93480287D01*
X90455987Y-93375607D01*
X90455987Y-93375606D01*
X90455989Y-93375604D01*
X90507089Y-93238601D01*
X90513600Y-93178038D01*
X90513600Y-91430762D01*
X90512465Y-91420203D01*
X90507090Y-91370203D01*
X90507088Y-91370195D01*
X90455989Y-91233197D01*
X90455987Y-91233192D01*
X90368361Y-91116138D01*
X90251307Y-91028512D01*
X90251302Y-91028510D01*
X90114304Y-90977411D01*
X90114296Y-90977409D01*
X90053749Y-90970900D01*
X90053738Y-90970900D01*
X88414600Y-90970900D01*
X88346479Y-90950898D01*
X88299986Y-90897242D01*
X88288600Y-90844900D01*
X88288600Y-90580767D01*
X88288599Y-90580750D01*
X88282090Y-90520203D01*
X88282088Y-90520195D01*
X88236426Y-90397774D01*
X88230989Y-90383196D01*
X88230988Y-90383194D01*
X88230987Y-90383192D01*
X88143361Y-90266138D01*
X88026307Y-90178512D01*
X88026302Y-90178510D01*
X87889304Y-90127411D01*
X87889296Y-90127409D01*
X87828749Y-90120900D01*
X87828738Y-90120900D01*
X86981462Y-90120900D01*
X86981450Y-90120900D01*
X86920902Y-90127410D01*
X86920899Y-90127410D01*
X86920899Y-90127411D01*
X86914532Y-90129786D01*
X86899399Y-90135430D01*
X86828583Y-90140494D01*
X86811339Y-90135430D01*
X86796205Y-90129786D01*
X86796203Y-90129785D01*
X86796201Y-90129785D01*
X86735653Y-90123275D01*
X86735642Y-90123275D01*
X85934994Y-90123275D01*
X85866873Y-90103273D01*
X85820380Y-90049617D01*
X85813997Y-90032429D01*
X85801980Y-89991067D01*
X85791665Y-89973626D01*
X85782967Y-89955871D01*
X85775514Y-89937045D01*
X85747780Y-89898872D01*
X85744520Y-89893909D01*
X85720504Y-89853300D01*
X85706176Y-89838972D01*
X85693346Y-89823951D01*
X85681434Y-89807555D01*
X85681431Y-89807553D01*
X85681431Y-89807552D01*
X85645075Y-89777475D01*
X85640683Y-89773479D01*
X85630721Y-89763516D01*
X85596695Y-89701204D01*
X85594508Y-89687606D01*
X85577142Y-89522372D01*
X85518127Y-89340744D01*
X85456646Y-89234256D01*
X85439909Y-89165265D01*
X85463129Y-89098173D01*
X85499616Y-89064020D01*
X85607252Y-88997630D01*
X85732630Y-88872252D01*
X85825715Y-88721338D01*
X85881487Y-88553026D01*
X85892100Y-88449145D01*
X85892100Y-88330003D01*
X86486620Y-88330003D01*
X86506090Y-88527694D01*
X86506091Y-88527700D01*
X86506092Y-88527701D01*
X86563759Y-88717804D01*
X86657405Y-88893004D01*
X86783432Y-89046568D01*
X86936996Y-89172595D01*
X87112196Y-89266241D01*
X87302299Y-89323908D01*
X87302303Y-89323908D01*
X87302305Y-89323909D01*
X87499997Y-89343380D01*
X87500000Y-89343380D01*
X87500003Y-89343380D01*
X87697694Y-89323909D01*
X87697695Y-89323908D01*
X87697701Y-89323908D01*
X87887804Y-89266241D01*
X88063004Y-89172595D01*
X88216568Y-89046568D01*
X88342595Y-88893004D01*
X88436241Y-88717804D01*
X88493908Y-88527701D01*
X88501645Y-88449153D01*
X88513380Y-88330003D01*
X88513380Y-88329996D01*
X88493909Y-88132305D01*
X88493908Y-88132303D01*
X88493908Y-88132299D01*
X88436241Y-87942196D01*
X88342595Y-87766996D01*
X88342587Y-87766987D01*
X88341265Y-87765007D01*
X88340887Y-87763801D01*
X88339677Y-87761537D01*
X88340106Y-87761307D01*
X88320047Y-87697256D01*
X88338827Y-87628788D01*
X88341265Y-87624993D01*
X88342584Y-87623017D01*
X88342595Y-87623004D01*
X88436241Y-87447804D01*
X88493908Y-87257701D01*
X88501604Y-87179568D01*
X88513380Y-87060003D01*
X88513380Y-87059996D01*
X88493909Y-86862305D01*
X88493908Y-86862303D01*
X88493908Y-86862299D01*
X88436241Y-86672196D01*
X88342595Y-86496996D01*
X88342587Y-86496987D01*
X88341265Y-86495007D01*
X88340887Y-86493801D01*
X88339677Y-86491537D01*
X88340106Y-86491307D01*
X88320047Y-86427256D01*
X88338827Y-86358788D01*
X88341265Y-86354993D01*
X88342584Y-86353017D01*
X88342595Y-86353004D01*
X88436241Y-86177804D01*
X88493908Y-85987701D01*
X88496556Y-85960822D01*
X88513380Y-85790003D01*
X88513380Y-85789996D01*
X88493909Y-85592305D01*
X88493908Y-85592303D01*
X88493908Y-85592299D01*
X88436241Y-85402196D01*
X88342595Y-85226996D01*
X88342587Y-85226987D01*
X88341265Y-85225007D01*
X88340887Y-85223801D01*
X88339677Y-85221537D01*
X88340106Y-85221307D01*
X88320047Y-85157256D01*
X88338827Y-85088788D01*
X88341265Y-85084993D01*
X88342584Y-85083017D01*
X88342595Y-85083004D01*
X88436241Y-84907804D01*
X88481755Y-84757761D01*
X88520669Y-84698382D01*
X88585510Y-84669467D01*
X88628526Y-84671093D01*
X88804508Y-84708500D01*
X88804513Y-84708500D01*
X88995487Y-84708500D01*
X89182288Y-84668794D01*
X89356752Y-84591118D01*
X89511253Y-84478866D01*
X89639040Y-84336944D01*
X89734527Y-84171556D01*
X89793542Y-83989928D01*
X89813504Y-83800000D01*
X89793542Y-83610072D01*
X89793542Y-83610070D01*
X89789358Y-83597195D01*
X89787327Y-83526228D01*
X89823987Y-83465428D01*
X89887698Y-83434100D01*
X89895243Y-83433051D01*
X89895483Y-83433000D01*
X89895487Y-83433000D01*
X90082288Y-83393294D01*
X90256752Y-83315618D01*
X90411253Y-83203366D01*
X90539040Y-83061444D01*
X90634527Y-82896056D01*
X90693542Y-82714428D01*
X90713504Y-82524500D01*
X90693542Y-82334572D01*
X90634527Y-82152944D01*
X90539040Y-81987556D01*
X90465863Y-81906284D01*
X90435146Y-81842276D01*
X90433500Y-81821974D01*
X90433500Y-81602524D01*
X90453502Y-81534403D01*
X90465858Y-81518220D01*
X90539040Y-81436944D01*
X90634527Y-81271556D01*
X90693542Y-81089928D01*
X90713504Y-80900000D01*
X90693542Y-80710072D01*
X90634527Y-80528444D01*
X90539040Y-80363056D01*
X90539038Y-80363054D01*
X90539034Y-80363048D01*
X90411255Y-80221135D01*
X90256752Y-80108882D01*
X90082288Y-80031206D01*
X89895487Y-79991500D01*
X89704513Y-79991500D01*
X89704508Y-79991500D01*
X89697940Y-79992190D01*
X89697628Y-79989223D01*
X89639720Y-79984712D01*
X89583155Y-79941806D01*
X89558767Y-79875130D01*
X89558500Y-79866938D01*
X89558500Y-79474759D01*
X89578502Y-79406638D01*
X89590865Y-79390447D01*
X89605247Y-79374475D01*
X89639040Y-79336944D01*
X89734527Y-79171556D01*
X89793542Y-78989928D01*
X89813504Y-78800000D01*
X89793542Y-78610072D01*
X89734527Y-78428444D01*
X89639040Y-78263056D01*
X89639038Y-78263054D01*
X89637637Y-78260627D01*
X89620899Y-78191632D01*
X89644119Y-78124540D01*
X89699926Y-78080653D01*
X89770601Y-78073904D01*
X89833706Y-78106436D01*
X89835851Y-78108532D01*
X91101795Y-79374475D01*
X91135820Y-79436787D01*
X91138700Y-79463570D01*
X91138700Y-93562828D01*
X91118698Y-93630949D01*
X91101795Y-93651923D01*
X88084225Y-96669492D01*
X88070376Y-96681462D01*
X88050943Y-96695930D01*
X88017007Y-96736371D01*
X88013300Y-96740417D01*
X88007421Y-96746297D01*
X88007414Y-96746305D01*
X87987430Y-96771577D01*
X87986276Y-96772994D01*
X87936964Y-96831764D01*
X87932935Y-96837891D01*
X87932880Y-96837855D01*
X87928825Y-96844220D01*
X87928882Y-96844255D01*
X87925030Y-96850499D01*
X87892609Y-96920023D01*
X87891812Y-96921670D01*
X87857393Y-96990206D01*
X87854882Y-96997107D01*
X87854820Y-96997084D01*
X87852343Y-97004210D01*
X87852404Y-97004231D01*
X87850096Y-97011195D01*
X87834574Y-97086360D01*
X87834178Y-97088147D01*
X87816500Y-97162741D01*
X87815648Y-97170034D01*
X87815581Y-97170026D01*
X87814814Y-97177526D01*
X87814881Y-97177532D01*
X87814241Y-97184843D01*
X87816473Y-97261574D01*
X87816500Y-97263406D01*
X87816500Y-99106300D01*
X87799620Y-99169299D01*
X87765472Y-99228444D01*
X87765470Y-99228449D01*
X87706457Y-99410071D01*
X87686496Y-99600000D01*
X87706457Y-99789927D01*
X87736526Y-99882470D01*
X87765473Y-99971556D01*
X87765476Y-99971561D01*
X87805003Y-100040024D01*
X87821741Y-100109019D01*
X87798521Y-100176111D01*
X87742714Y-100219998D01*
X87724868Y-100225645D01*
X87717399Y-100227410D01*
X87580397Y-100278510D01*
X87580392Y-100278512D01*
X87463338Y-100366138D01*
X87375712Y-100483192D01*
X87375710Y-100483197D01*
X87324611Y-100620195D01*
X87324609Y-100620203D01*
X87318100Y-100680750D01*
X87318100Y-103141049D01*
X87324609Y-103201596D01*
X87324611Y-103201604D01*
X87375710Y-103338602D01*
X87375712Y-103338607D01*
X87463338Y-103455661D01*
X87580392Y-103543287D01*
X87580394Y-103543288D01*
X87580396Y-103543289D01*
X87639475Y-103565324D01*
X87717395Y-103594388D01*
X87717403Y-103594390D01*
X87777950Y-103600899D01*
X87777955Y-103600899D01*
X87777962Y-103600900D01*
X87777968Y-103600900D01*
X89532532Y-103600900D01*
X89532538Y-103600900D01*
X89532545Y-103600899D01*
X89532549Y-103600899D01*
X89593096Y-103594390D01*
X89593099Y-103594389D01*
X89593101Y-103594389D01*
X89730104Y-103543289D01*
X89734501Y-103539998D01*
X89847161Y-103455661D01*
X89934787Y-103338607D01*
X89934787Y-103338606D01*
X89934789Y-103338604D01*
X89985889Y-103201601D01*
X89992400Y-103141038D01*
X89992400Y-102785059D01*
X91329500Y-102785059D01*
X91370208Y-102950221D01*
X91370210Y-102950225D01*
X91449265Y-103100851D01*
X91449270Y-103100857D01*
X91562069Y-103228181D01*
X91562071Y-103228183D01*
X91702070Y-103324818D01*
X91702074Y-103324820D01*
X91791172Y-103358609D01*
X91861128Y-103385140D01*
X91987628Y-103400500D01*
X91987632Y-103400500D01*
X92072368Y-103400500D01*
X92072372Y-103400500D01*
X92198872Y-103385140D01*
X92357930Y-103324818D01*
X92497929Y-103228183D01*
X92610734Y-103100852D01*
X92689790Y-102950225D01*
X92730500Y-102785056D01*
X92730500Y-102614944D01*
X92689790Y-102449775D01*
X92610734Y-102299148D01*
X92497929Y-102171817D01*
X92397067Y-102102196D01*
X92357929Y-102075181D01*
X92357925Y-102075179D01*
X92198870Y-102014859D01*
X92072378Y-101999500D01*
X92072372Y-101999500D01*
X91987628Y-101999500D01*
X91987621Y-101999500D01*
X91861129Y-102014859D01*
X91702074Y-102075179D01*
X91702070Y-102075181D01*
X91562071Y-102171816D01*
X91562069Y-102171818D01*
X91449270Y-102299142D01*
X91449265Y-102299148D01*
X91370210Y-102449774D01*
X91370208Y-102449778D01*
X91329500Y-102614940D01*
X91329500Y-102785059D01*
X89992400Y-102785059D01*
X89992400Y-100680762D01*
X89992399Y-100680750D01*
X89985890Y-100620203D01*
X89985888Y-100620195D01*
X89934789Y-100483197D01*
X89934787Y-100483192D01*
X89847161Y-100366138D01*
X89730107Y-100278512D01*
X89730102Y-100278510D01*
X89593104Y-100227411D01*
X89593096Y-100227409D01*
X89532549Y-100220900D01*
X89532538Y-100220900D01*
X89508806Y-100220900D01*
X89440685Y-100200898D01*
X89394192Y-100147242D01*
X89384088Y-100076968D01*
X89399685Y-100031902D01*
X89434527Y-99971556D01*
X89493542Y-99789928D01*
X89494054Y-99785059D01*
X91329500Y-99785059D01*
X91370208Y-99950221D01*
X91370210Y-99950225D01*
X91449265Y-100100851D01*
X91449270Y-100100857D01*
X91562069Y-100228181D01*
X91562071Y-100228183D01*
X91702070Y-100324818D01*
X91702074Y-100324820D01*
X91731921Y-100336139D01*
X91861128Y-100385140D01*
X91987628Y-100400500D01*
X91987632Y-100400500D01*
X92072368Y-100400500D01*
X92072372Y-100400500D01*
X92198872Y-100385140D01*
X92357930Y-100324818D01*
X92497929Y-100228183D01*
X92610734Y-100100852D01*
X92689790Y-99950225D01*
X92730500Y-99785056D01*
X92730500Y-99614944D01*
X92689790Y-99449775D01*
X92610734Y-99299148D01*
X92572996Y-99256551D01*
X92497930Y-99171818D01*
X92497928Y-99171816D01*
X92357929Y-99075181D01*
X92357925Y-99075179D01*
X92198870Y-99014859D01*
X92072378Y-98999500D01*
X92072372Y-98999500D01*
X91987628Y-98999500D01*
X91987621Y-98999500D01*
X91861129Y-99014859D01*
X91702074Y-99075179D01*
X91702070Y-99075181D01*
X91562071Y-99171816D01*
X91562069Y-99171818D01*
X91449270Y-99299142D01*
X91449265Y-99299148D01*
X91370210Y-99449774D01*
X91370208Y-99449778D01*
X91329500Y-99614940D01*
X91329500Y-99785059D01*
X89494054Y-99785059D01*
X89513504Y-99600000D01*
X89493542Y-99410072D01*
X89434527Y-99228444D01*
X89364007Y-99106300D01*
X89350381Y-99082698D01*
X89333500Y-99019698D01*
X89333500Y-97617770D01*
X89353502Y-97549649D01*
X89370400Y-97528680D01*
X92387978Y-94511101D01*
X92401817Y-94499141D01*
X92421258Y-94484669D01*
X92455201Y-94444215D01*
X92458900Y-94440179D01*
X92464780Y-94434301D01*
X92484821Y-94408953D01*
X92485874Y-94407661D01*
X92535232Y-94348840D01*
X92535233Y-94348837D01*
X92535237Y-94348833D01*
X92539266Y-94342708D01*
X92539322Y-94342745D01*
X92543371Y-94336390D01*
X92543313Y-94336354D01*
X92547163Y-94330111D01*
X92547162Y-94330111D01*
X92547167Y-94330106D01*
X92579609Y-94260530D01*
X92580392Y-94258915D01*
X92614809Y-94190388D01*
X92614810Y-94190381D01*
X92617320Y-94183489D01*
X92617383Y-94183512D01*
X92619857Y-94176396D01*
X92619793Y-94176375D01*
X92622099Y-94169411D01*
X92622102Y-94169407D01*
X92637631Y-94094191D01*
X92637988Y-94092583D01*
X92655700Y-94017856D01*
X92655700Y-94017853D01*
X92656552Y-94010568D01*
X92656618Y-94010575D01*
X92657384Y-94003077D01*
X92657318Y-94003072D01*
X92657956Y-93995766D01*
X92657958Y-93995758D01*
X92656642Y-93950555D01*
X92655727Y-93919058D01*
X92655700Y-93917226D01*
X92655700Y-79161635D01*
X92657031Y-79143372D01*
X92660540Y-79119416D01*
X92660541Y-79119411D01*
X92658075Y-79091227D01*
X92655940Y-79066814D01*
X92655700Y-79061321D01*
X92655700Y-79053013D01*
X92651959Y-79021022D01*
X92651775Y-79019233D01*
X92645087Y-78942774D01*
X92645085Y-78942770D01*
X92643603Y-78935588D01*
X92643669Y-78935574D01*
X92642037Y-78928212D01*
X92641972Y-78928228D01*
X92640280Y-78921093D01*
X92640279Y-78921091D01*
X92640279Y-78921087D01*
X92614042Y-78849003D01*
X92613441Y-78847273D01*
X92607851Y-78830405D01*
X92589314Y-78774462D01*
X92589309Y-78774455D01*
X92586212Y-78767811D01*
X92586274Y-78767781D01*
X92582988Y-78760995D01*
X92582928Y-78761026D01*
X92579633Y-78754465D01*
X92537478Y-78690373D01*
X92536493Y-78688826D01*
X92496232Y-78623551D01*
X92491678Y-78617792D01*
X92491731Y-78617749D01*
X92486966Y-78611900D01*
X92486915Y-78611944D01*
X92482198Y-78606322D01*
X92426359Y-78553641D01*
X92425078Y-78552397D01*
X90281907Y-76409226D01*
X90269936Y-76395375D01*
X90255469Y-76375942D01*
X90255467Y-76375940D01*
X90215024Y-76342003D01*
X90210970Y-76338289D01*
X90205104Y-76332423D01*
X90205101Y-76332420D01*
X90195555Y-76324871D01*
X90179810Y-76312421D01*
X90178392Y-76311266D01*
X90119635Y-76261964D01*
X90113506Y-76257933D01*
X90113541Y-76257878D01*
X90107187Y-76253829D01*
X90107153Y-76253886D01*
X90100906Y-76250033D01*
X90031375Y-76217609D01*
X90029742Y-76216819D01*
X89961188Y-76182391D01*
X89961186Y-76182390D01*
X89961183Y-76182389D01*
X89954289Y-76179880D01*
X89954311Y-76179817D01*
X89947189Y-76177341D01*
X89947169Y-76177404D01*
X89940210Y-76175097D01*
X89865045Y-76159576D01*
X89863258Y-76159180D01*
X89788656Y-76141500D01*
X89781367Y-76140648D01*
X89781374Y-76140580D01*
X89773877Y-76139814D01*
X89773872Y-76139881D01*
X89766558Y-76139241D01*
X89689825Y-76141473D01*
X89687993Y-76141500D01*
X88504755Y-76141500D01*
X88436634Y-76121498D01*
X88403887Y-76091009D01*
X88363261Y-76036738D01*
X88246207Y-75949112D01*
X88246202Y-75949110D01*
X88109204Y-75898011D01*
X88109196Y-75898009D01*
X88048649Y-75891500D01*
X88048638Y-75891500D01*
X86951362Y-75891500D01*
X86951350Y-75891500D01*
X86890803Y-75898009D01*
X86890795Y-75898011D01*
X86753797Y-75949110D01*
X86753792Y-75949112D01*
X86636738Y-76036738D01*
X86549112Y-76153792D01*
X86549110Y-76153797D01*
X86498011Y-76290795D01*
X86498009Y-76290803D01*
X86491500Y-76351350D01*
X86491500Y-77448649D01*
X86498009Y-77509196D01*
X86498011Y-77509204D01*
X86549110Y-77646202D01*
X86549112Y-77646206D01*
X86552015Y-77650084D01*
X86576824Y-77716605D01*
X86564248Y-77775706D01*
X86566126Y-77776484D01*
X86563757Y-77782202D01*
X86506090Y-77972305D01*
X86486620Y-78169996D01*
X86486620Y-78170003D01*
X86506090Y-78367694D01*
X86506091Y-78367700D01*
X86506092Y-78367701D01*
X86562109Y-78552364D01*
X86563759Y-78557804D01*
X86657406Y-78733007D01*
X86659041Y-78735453D01*
X86659503Y-78736929D01*
X86660323Y-78738463D01*
X86660032Y-78738618D01*
X86680255Y-78803206D01*
X86661471Y-78871672D01*
X86659046Y-78875446D01*
X86657826Y-78877271D01*
X86564224Y-79052387D01*
X86564223Y-79052389D01*
X86523692Y-79185999D01*
X86523693Y-79186000D01*
X87289941Y-79186000D01*
X87287871Y-79187195D01*
X87214199Y-79274993D01*
X87175000Y-79382694D01*
X87175000Y-79497306D01*
X87214199Y-79605007D01*
X87287871Y-79692805D01*
X87289941Y-79694000D01*
X86523693Y-79694000D01*
X86564223Y-79827610D01*
X86564224Y-79827612D01*
X86657821Y-80002718D01*
X86659037Y-80004538D01*
X86659381Y-80005637D01*
X86660742Y-80008183D01*
X86660259Y-80008441D01*
X86680255Y-80072290D01*
X86661475Y-80140758D01*
X86659050Y-80144533D01*
X86657406Y-80146993D01*
X86563759Y-80322195D01*
X86506090Y-80512305D01*
X86486620Y-80709996D01*
X86486620Y-80710003D01*
X86506090Y-80907694D01*
X86563759Y-81097804D01*
X86657407Y-81273008D01*
X86658740Y-81275003D01*
X86659116Y-81276206D01*
X86660323Y-81278463D01*
X86659894Y-81278691D01*
X86679952Y-81342757D01*
X86661166Y-81411223D01*
X86658740Y-81414997D01*
X86657407Y-81416991D01*
X86563759Y-81592195D01*
X86506090Y-81782305D01*
X86486620Y-81979996D01*
X86486620Y-81980003D01*
X86506090Y-82177694D01*
X86563759Y-82367804D01*
X86657407Y-82543008D01*
X86658740Y-82545003D01*
X86659116Y-82546206D01*
X86660323Y-82548463D01*
X86659894Y-82548691D01*
X86679952Y-82612757D01*
X86661166Y-82681223D01*
X86658740Y-82684997D01*
X86657407Y-82686991D01*
X86563759Y-82862195D01*
X86506090Y-83052305D01*
X86486620Y-83249996D01*
X86486620Y-83250003D01*
X86506090Y-83447694D01*
X86506091Y-83447700D01*
X86506092Y-83447701D01*
X86563759Y-83637804D01*
X86657405Y-83813004D01*
X86657408Y-83813008D01*
X86658736Y-83814995D01*
X86659113Y-83816199D01*
X86660323Y-83818463D01*
X86659893Y-83818692D01*
X86679952Y-83882748D01*
X86661170Y-83951215D01*
X86658745Y-83954989D01*
X86657408Y-83956989D01*
X86563759Y-84132195D01*
X86506090Y-84322305D01*
X86486620Y-84519996D01*
X86486620Y-84520003D01*
X86506090Y-84717694D01*
X86563759Y-84907804D01*
X86657407Y-85083008D01*
X86658740Y-85085003D01*
X86659116Y-85086206D01*
X86660323Y-85088463D01*
X86659894Y-85088691D01*
X86679952Y-85152757D01*
X86661166Y-85221223D01*
X86658740Y-85224997D01*
X86657407Y-85226991D01*
X86563759Y-85402195D01*
X86506090Y-85592305D01*
X86486620Y-85789996D01*
X86486620Y-85790003D01*
X86506090Y-85987694D01*
X86563759Y-86177804D01*
X86657407Y-86353008D01*
X86658740Y-86355003D01*
X86659116Y-86356206D01*
X86660323Y-86358463D01*
X86659894Y-86358691D01*
X86679952Y-86422757D01*
X86661166Y-86491223D01*
X86658740Y-86494997D01*
X86657407Y-86496991D01*
X86563759Y-86672195D01*
X86506090Y-86862305D01*
X86486620Y-87059996D01*
X86486620Y-87060003D01*
X86506090Y-87257694D01*
X86506091Y-87257700D01*
X86506092Y-87257701D01*
X86563759Y-87447804D01*
X86657405Y-87623004D01*
X86657408Y-87623008D01*
X86658736Y-87624995D01*
X86659113Y-87626199D01*
X86660323Y-87628463D01*
X86659893Y-87628692D01*
X86679952Y-87692748D01*
X86661170Y-87761215D01*
X86658745Y-87764989D01*
X86657408Y-87766989D01*
X86563759Y-87942195D01*
X86506090Y-88132305D01*
X86486620Y-88329996D01*
X86486620Y-88330003D01*
X85892100Y-88330003D01*
X85892099Y-87823056D01*
X85881487Y-87719174D01*
X85825715Y-87550862D01*
X85732630Y-87399948D01*
X85732629Y-87399947D01*
X85732624Y-87399941D01*
X85645378Y-87312695D01*
X85611352Y-87250383D01*
X85616417Y-87179568D01*
X85645378Y-87134505D01*
X85732624Y-87047258D01*
X85732630Y-87047252D01*
X85825715Y-86896338D01*
X85881487Y-86728026D01*
X85892100Y-86624145D01*
X85892099Y-85998056D01*
X85891040Y-85987694D01*
X85881487Y-85894174D01*
X85881487Y-85894173D01*
X85825715Y-85725862D01*
X85732630Y-85574948D01*
X85732629Y-85574947D01*
X85732624Y-85574941D01*
X85607258Y-85449575D01*
X85607252Y-85449570D01*
X85607251Y-85449569D01*
X85456338Y-85356485D01*
X85372182Y-85328598D01*
X85288027Y-85300713D01*
X85288020Y-85300712D01*
X85184153Y-85290100D01*
X84183055Y-85290100D01*
X84079174Y-85300712D01*
X83910862Y-85356485D01*
X83835345Y-85403064D01*
X83766865Y-85421800D01*
X83703053Y-85403063D01*
X83627538Y-85356485D01*
X83543382Y-85328598D01*
X83459227Y-85300713D01*
X83459220Y-85300712D01*
X83355353Y-85290100D01*
X82354255Y-85290100D01*
X82250374Y-85300712D01*
X82082061Y-85356485D01*
X81931147Y-85449570D01*
X81931141Y-85449575D01*
X81815022Y-85565695D01*
X81752710Y-85599721D01*
X81725927Y-85602600D01*
X80935673Y-85602600D01*
X80867552Y-85582598D01*
X80846578Y-85565695D01*
X80730458Y-85449575D01*
X80730452Y-85449570D01*
X80730451Y-85449569D01*
X80579538Y-85356485D01*
X80495382Y-85328598D01*
X80411227Y-85300713D01*
X80411220Y-85300712D01*
X80307353Y-85290100D01*
X79337499Y-85290100D01*
X79269378Y-85270098D01*
X79222885Y-85216442D01*
X79211499Y-85164103D01*
X79211499Y-84672656D01*
X79211104Y-84668794D01*
X79200887Y-84568774D01*
X79171094Y-84478864D01*
X79145115Y-84400462D01*
X79052030Y-84249548D01*
X79052029Y-84249547D01*
X79052024Y-84249541D01*
X78926657Y-84124174D01*
X78923547Y-84121715D01*
X78921967Y-84119484D01*
X78921463Y-84118980D01*
X78921549Y-84118893D01*
X78882518Y-84063775D01*
X78879326Y-83992850D01*
X78914986Y-83931459D01*
X78923558Y-83924032D01*
X78926350Y-83921824D01*
X79051629Y-83796545D01*
X79051634Y-83796539D01*
X79144657Y-83645725D01*
X79200393Y-83477521D01*
X79200394Y-83477518D01*
X79210999Y-83373716D01*
X79211000Y-83373716D01*
X79211000Y-83327200D01*
X77850000Y-83327200D01*
X77781879Y-83307198D01*
X77735386Y-83253542D01*
X77724000Y-83201200D01*
X77724000Y-82065200D01*
X78232000Y-82065200D01*
X78232000Y-82819200D01*
X79211000Y-82819200D01*
X79211000Y-82772683D01*
X79200394Y-82668881D01*
X79200393Y-82668878D01*
X79144657Y-82500674D01*
X79051634Y-82349860D01*
X79051629Y-82349854D01*
X78926345Y-82224570D01*
X78926339Y-82224565D01*
X78775525Y-82131542D01*
X78607321Y-82075806D01*
X78607318Y-82075805D01*
X78503516Y-82065200D01*
X78232000Y-82065200D01*
X77724000Y-82065200D01*
X77452487Y-82065200D01*
X77447294Y-82065730D01*
X77377494Y-82052748D01*
X77325793Y-82004090D01*
X77308500Y-81940381D01*
X77308500Y-81704000D01*
X80942000Y-81704000D01*
X80942000Y-81998597D01*
X80948505Y-82059093D01*
X80999555Y-82195964D01*
X80999555Y-82195965D01*
X81087095Y-82312904D01*
X81204034Y-82400444D01*
X81340906Y-82451494D01*
X81401402Y-82457999D01*
X81401415Y-82458000D01*
X81946000Y-82458000D01*
X81946000Y-81704000D01*
X82454000Y-81704000D01*
X82454000Y-82458000D01*
X82998585Y-82458000D01*
X82998597Y-82457999D01*
X83059093Y-82451494D01*
X83195964Y-82400444D01*
X83195965Y-82400444D01*
X83312904Y-82312904D01*
X83400444Y-82195965D01*
X83400444Y-82195964D01*
X83451494Y-82059093D01*
X83457999Y-81998597D01*
X83458000Y-81998585D01*
X83458000Y-81704000D01*
X82454000Y-81704000D01*
X81946000Y-81704000D01*
X80942000Y-81704000D01*
X77308500Y-81704000D01*
X77308500Y-80099999D01*
X79886496Y-80099999D01*
X79906457Y-80289927D01*
X79936526Y-80382470D01*
X79965473Y-80471556D01*
X79993841Y-80520691D01*
X80060958Y-80636941D01*
X80060965Y-80636951D01*
X80188744Y-80778864D01*
X80188747Y-80778866D01*
X80343248Y-80891118D01*
X80517712Y-80968794D01*
X80704513Y-81008500D01*
X80816000Y-81008500D01*
X80884121Y-81028502D01*
X80930614Y-81082158D01*
X80942000Y-81134500D01*
X80942000Y-81196000D01*
X83458000Y-81196000D01*
X83458000Y-80901414D01*
X83457999Y-80901402D01*
X83451494Y-80840906D01*
X83449681Y-80833231D01*
X83452068Y-80832666D01*
X83447857Y-80773960D01*
X83451158Y-80762714D01*
X83451988Y-80759203D01*
X83451987Y-80759203D01*
X83451989Y-80759201D01*
X83458500Y-80698638D01*
X83458500Y-79601362D01*
X83458499Y-79601350D01*
X83451990Y-79540803D01*
X83451988Y-79540795D01*
X83406645Y-79419229D01*
X83400889Y-79403796D01*
X83400888Y-79403794D01*
X83400887Y-79403792D01*
X83313261Y-79286738D01*
X83196207Y-79199112D01*
X83196202Y-79199110D01*
X83059204Y-79148011D01*
X83059196Y-79148009D01*
X82998649Y-79141500D01*
X82998638Y-79141500D01*
X81401362Y-79141500D01*
X81401350Y-79141500D01*
X81340803Y-79148009D01*
X81340795Y-79148011D01*
X81203797Y-79199110D01*
X81203793Y-79199112D01*
X81189305Y-79209958D01*
X81122784Y-79234767D01*
X81087601Y-79232335D01*
X80895487Y-79191500D01*
X80704513Y-79191500D01*
X80517711Y-79231206D01*
X80343247Y-79308882D01*
X80188744Y-79421135D01*
X80060965Y-79563048D01*
X80060958Y-79563058D01*
X79965476Y-79728438D01*
X79965473Y-79728445D01*
X79906457Y-79910072D01*
X79886496Y-80099999D01*
X77308500Y-80099999D01*
X77308500Y-79419229D01*
X77328502Y-79351108D01*
X77335208Y-79342325D01*
X77335157Y-79342288D01*
X77339033Y-79336950D01*
X77339040Y-79336944D01*
X77434527Y-79171556D01*
X77493542Y-78989928D01*
X77513504Y-78800000D01*
X77493542Y-78610072D01*
X77434527Y-78428444D01*
X77339040Y-78263056D01*
X77339038Y-78263054D01*
X77339034Y-78263048D01*
X77211255Y-78121135D01*
X77056752Y-78008882D01*
X76882288Y-77931206D01*
X76695487Y-77891500D01*
X76504513Y-77891500D01*
X76317711Y-77931206D01*
X76143247Y-78008882D01*
X75988744Y-78121135D01*
X75860965Y-78263048D01*
X75860958Y-78263058D01*
X75765476Y-78428438D01*
X75765473Y-78428445D01*
X75706457Y-78610072D01*
X75686496Y-78800000D01*
X72000500Y-78800000D01*
X72000500Y-76002756D01*
X72000740Y-75997264D01*
X72001846Y-75984610D01*
X72004480Y-75954508D01*
X72016902Y-75828389D01*
X72020583Y-75808156D01*
X72038160Y-75742557D01*
X72038662Y-75740799D01*
X72066643Y-75648558D01*
X72073010Y-75631916D01*
X72104392Y-75564618D01*
X72105896Y-75561609D01*
X72150744Y-75477703D01*
X72154684Y-75471292D01*
X72200970Y-75405189D01*
X72203849Y-75401392D01*
X72263086Y-75329212D01*
X72267200Y-75324672D01*
X72324672Y-75267200D01*
X72329212Y-75263086D01*
X72401392Y-75203849D01*
X72405189Y-75200970D01*
X72471292Y-75154684D01*
X72477703Y-75150744D01*
X72561609Y-75105896D01*
X72564618Y-75104392D01*
X72631916Y-75073010D01*
X72648558Y-75066643D01*
X72740799Y-75038662D01*
X72742557Y-75038160D01*
X72808156Y-75020583D01*
X72828391Y-75016902D01*
X72954511Y-75004479D01*
X72976849Y-75002525D01*
X72997266Y-75000740D01*
X73002758Y-75000500D01*
X93997242Y-75000500D01*
X94002735Y-75000740D01*
G37*
%TD.AperFunction*%
%TD*%
M02*
